<svg version="1.1" id="Calque_1" xmlns="http://www.w3.org/2000/svg" xmlns:xlink="http://www.w3.org/1999/xlink" x="0px" y="0px"
	 viewBox="0 0 24 24" style="enable-background:new 0 0 24 24;" xml:space="preserve" width="24px" height="24px">
<g>
	<path fill="#81869B" d="M24,5c0,4.7,0,9.3,0,14c0,0,0,0,0,0.1c-0.3,1.6-1.5,2.5-3.1,2.5c-5.9,0-11.8,0-17.7,0c-0.2,0-0.5,0-0.7,0
		C1,21.3,0,20,0,18.4c0-4.3,0-8.6,0-12.9c0-1.9,1.3-3.2,3.2-3.2c2.2,0,4.4,0,6.6,0c3.7,0,7.5,0,11.2,0c1.4,0,2.5,0.8,2.9,2.1
		C23.9,4.7,24,4.8,24,5z M10.1,14.9c0.5-0.6,1-1.2,1.4-1.7c1-1.2,2-2.4,3-3.6c0.6-0.7,1.2-0.9,2.1-0.8c0.5,0.1,0.9,0.4,1.2,0.8
		c1.2,1.4,2.3,2.7,3.5,4.1c0.1,0.1,0.1,0.1,0.2,0.2c0-0.1,0-0.2,0-0.3c0-2.7,0-5.4,0-8.1c0-0.5-0.2-0.7-0.7-0.7
		c-5.9,0-11.8,0-17.7,0C2.6,4.8,2.4,5,2.4,5.6c0,3.6,0,7.2,0,10.8c0,0.1,0,0.2,0,0.3c0.1-0.1,0.2-0.2,0.3-0.2c1-1,1.9-1.9,2.9-2.9
		c1-1,2.2-1,3.2,0C9.3,14,9.7,14.4,10.1,14.9z"/>
	<path fill="#81869B" d="M6,10.8c-1.3,0-2.4-1.1-2.4-2.4C3.6,7.1,4.7,6,6,6c1.3,0,2.4,1.1,2.4,2.4C8.4,9.7,7.3,10.8,6,10.8z"/>
</g>
</svg>
