<?xml version="1.0" encoding="utf-8"?>
<!-- Generator: Adobe Illustrator 26.0.1, SVG Export Plug-In . SVG Version: 6.00 Build 0)  -->
<svg version="1.1" id="Calque_1" xmlns="http://www.w3.org/2000/svg" xmlns:xlink="http://www.w3.org/1999/xlink" x="0px" y="0px"
	 viewBox="0 0 44 53" style="enable-background:new 0 0 44 53;" xml:space="preserve">
<style type="text/css">
	.st0{fill:#FFFFFF;}
	.st1{fill:#A5C9FF;}
</style>
<path class="st0" d="M36,25.4l-4,4l-3-3l1-1c2-2,1-3,0-4l-6-6c-0.7-0.7-1.4-0.9-2-0.9s-1.3,0.2-2,0.9l-6,6c-1,1-2,2,0,4l1,1l-3,3
	l-4-4c-0.5-0.5-2-2,0-4c1.6-1.6,8.7-8.7,12-12c0.4-0.4,1-0.9,2-0.9s1.6,0.5,2,0.9c3.3,3.4,10.4,10.4,12,12
	C38,23.4,36.5,24.9,36,25.4z"/>
<g>
	<image style="overflow:visible;" width="88" height="88" xlink:href="D35D850F.png"  transform="matrix(1 0 0 1 -22 -7)">
	</image>
</g>
<g>
	<path class="st1" d="M29.5,32v4.5L27,34v5.5l-2-3c-1,0-1.6,1-2,3l-1,5l-1-5c-0.4-2-1-3-2-3l-2,3V34l-2.5,2.5V32l3-3l2.5,2.5
		c0.7,0.7,1.4,0.9,2,0.9s1.3-0.2,2-0.9l2.5-2.5L29.5,32z"/>
</g>
</svg>
