<svg width="40" height="40" viewBox="0 0 40 40" fill="none" xmlns="http://www.w3.org/2000/svg"><path d="M18.0008 8.90526L12.0054 14.9249C11.0072 15.9279 10.0082 16.9318 12.0054 18.9379L13.004 19.9412L10.0064 22.951L6.00946 18.9379C5.51004 18.4362 4.01208 16.9312 6.00946 14.9249C7.13753 13.7917 10.9869 9.92718 14.3255 6.57544L18.0008 2.88566C18.3869 2.49796 19.0008 2 20 2C20.9992 2 21.6131 2.49796 21.9992 2.88566L25.6508 6.55167C28.9949 9.90888 32.8598 13.789 33.9905 14.9249C35.9879 16.9312 34.49 18.4362 33.9905 18.9379L29.9937 22.951L26.996 19.9412L27.9946 18.9379C29.9918 16.9318 28.9928 15.9279 27.9946 14.9249L21.9992 8.90526C21.3267 8.22994 20.6305 8.00445 20 8.01964C19.3695 8.00445 18.6733 8.22994 18.0008 8.90526Z" fill="#81869B"></path><path d="M18.0016 24.9575L15.5035 22.4494L12.5058 25.4592V29.9739L15.0039 27.4657V32.9837L17.0023 29.9739C18.0016 29.9739 18.5968 30.9555 19.0008 32.9837L20 38L20.9992 32.9837C21.4032 30.9555 21.9984 29.9739 22.9977 29.9739L24.9961 32.9837V27.4657L27.4942 29.9739V25.4592L24.4965 22.4494L21.9984 24.9575C21.3261 25.6326 20.6303 25.8581 20 25.8432C19.3697 25.8581 18.6739 25.6326 18.0016 24.9575Z" fill="#81869B"></path></svg>