<svg width="24" height="24" viewBox="0 0 24 24" fill="none" xmlns="http://www.w3.org/2000/svg">
<path d="M3 11.6137V18.4766C3 19.8702 4.11929 21 5.5 21H7C8.38071 21 9.5 19.8702 9.5 18.4766V15.9531C9.5 14.5595 10.6193 13.4297 12 13.4297C13.3807 13.4297 14.5 14.5595 14.5 15.9531V18.4766C14.5 19.8702 15.6193 21 17 21H18.5C19.8807 21 21 19.8702 21 18.4766V11.6137C21 10.212 20.3589 8.88888 19.2627 8.02833L13.5349 3.53156C12.6321 2.82282 11.3679 2.82281 10.4651 3.53156L4.73727 8.02833C3.64113 8.88888 3 10.212 3 11.6137Z" fill="#3b69b2"/>
</svg>
