<svg width="24" height="24" viewBox="0 0 24 24" fill="none" xmlns="http://www.w3.org/2000/svg">
<path fill-rule="evenodd" clip-rule="evenodd" d="M12.6188 3.73984C12.2726 3.42005 11.7274 3.42005 11.3812 3.73984L9.0606 5.88362C8.92392 6.00988 8.74938 6.0911 8.562 6.11563L5.38054 6.5321C4.90595 6.59423 4.56597 7.00617 4.60889 7.46708L4.89662 10.5568C4.91357 10.7388 4.87046 10.9213 4.77348 11.0781L3.12685 13.7412C2.88122 14.1385 3.00256 14.6522 3.40225 14.9071L6.08163 16.6162C6.23944 16.7168 6.36023 16.8632 6.42668 17.0342L7.55482 19.9386C7.72311 20.3718 8.21441 20.6005 8.66989 20.4575L11.7233 19.4989C11.9031 19.4424 12.0969 19.4424 12.2767 19.4989L15.3301 20.4575C15.7856 20.6005 16.2769 20.3718 16.4452 19.9386L17.5733 17.0342C17.6398 16.8632 17.7606 16.7168 17.9184 16.6162L20.5977 14.9071C20.9974 14.6522 21.1188 14.1385 20.8731 13.7412L19.2265 11.0781C19.1295 10.9213 19.0864 10.7388 19.1034 10.5568L19.3911 7.46708C19.434 7.00617 19.094 6.59423 18.6195 6.5321L15.438 6.11563C15.2506 6.0911 15.0761 6.00988 14.9394 5.88362L12.6188 3.73984ZM10.1748 11.8539L11.204 12.8484L14.6212 9.54652L15.7467 10.6341L11.204 15.0234L9.04934 12.9414L10.1748 11.8539Z" fill="#10A1F2"/>
</svg>
