<svg width="24" height="24" viewBox="0 0 24 24" fill="none" xmlns="http://www.w3.org/2000/svg">
<path d="M10.7992 7.20001C10.7992 8.15479 10.4199 9.07046 9.7448 9.74559C9.06967 10.4207 8.154 10.8 7.19922 10.8C6.24444 10.8 5.32877 10.4207 4.65363 9.74559C3.9785 9.07046 3.59922 8.15479 3.59922 7.20001C3.59922 6.24523 3.9785 5.32955 4.65363 4.65442C5.32877 3.97929 6.24444 3.60001 7.19922 3.60001C8.154 3.60001 9.06967 3.97929 9.7448 4.65442C10.4199 5.32955 10.7992 6.24523 10.7992 7.20001ZM20.3992 7.20001C20.3992 7.67277 20.3061 8.14089 20.1252 8.57767C19.9443 9.01444 19.6791 9.4113 19.3448 9.74559C19.0105 10.0799 18.6136 10.3451 18.1769 10.526C17.7401 10.7069 17.272 10.8 16.7992 10.8C16.3265 10.8 15.8583 10.7069 15.4216 10.526C14.9848 10.3451 14.5879 10.0799 14.2536 9.74559C13.9193 9.4113 13.6542 9.01444 13.4733 8.57767C13.2923 8.14089 13.1992 7.67277 13.1992 7.20001C13.1992 6.24523 13.5785 5.32955 14.2536 4.65442C14.9288 3.97929 15.8444 3.60001 16.7992 3.60001C17.754 3.60001 18.6697 3.97929 19.3448 4.65442C20.0199 5.32955 20.3992 6.24523 20.3992 7.20001ZM15.5152 20.4C15.5704 20.0076 15.5992 19.608 15.5992 19.2C15.602 17.3146 14.9677 15.4836 13.7992 14.004C14.7113 13.4774 15.746 13.2002 16.7992 13.2002C17.8524 13.2002 18.887 13.4774 19.7992 14.004C20.7113 14.5306 21.4687 15.288 21.9953 16.2001C22.5219 17.1122 22.7992 18.1468 22.7992 19.2V20.4H15.5152ZM7.19922 13.2C8.79052 13.2 10.3166 13.8321 11.4419 14.9574C12.5671 16.0826 13.1992 17.6087 13.1992 19.2V20.4H1.19922V19.2C1.19922 17.6087 1.83136 16.0826 2.95658 14.9574C4.0818 13.8321 5.60792 13.2 7.19922 13.2Z" fill="#3b69b2"/>
</svg>
