<svg width="24" height="24" viewBox="0 0 24 24" fill="none" xmlns="http://www.w3.org/2000/svg">
<path fill-rule="evenodd" clip-rule="evenodd" d="M3.43874 3.45793C3.71975 3.17673 4.10083 3.01875 4.49817 3.01875C4.89552 3.01875 5.2766 3.17673 5.55761 3.45793L11.9906 9.89743L18.4237 3.45793C18.5619 3.31467 18.7272 3.20039 18.9101 3.12178C19.0929 3.04317 19.2895 3.00179 19.4885 3.00006C19.6875 2.99833 19.8848 3.03628 20.0689 3.1117C20.2531 3.18712 20.4204 3.2985 20.5611 3.43934C20.7018 3.58018 20.8131 3.74766 20.8884 3.932C20.9638 4.11635 21.0017 4.31387 20.9999 4.51303C20.9982 4.7122 20.9569 4.90903 20.8783 5.09204C20.7998 5.27504 20.6856 5.44056 20.5425 5.57893L14.1095 12.0184L20.5425 18.4579C20.8155 18.7408 20.9665 19.1197 20.9631 19.513C20.9597 19.9063 20.8021 20.2825 20.5243 20.5607C20.2464 20.8388 19.8706 20.9965 19.4777 20.9999C19.0848 21.0034 18.7063 20.8522 18.4237 20.5789L11.9906 14.1394L5.55761 20.5789C5.27499 20.8522 4.89646 21.0034 4.50356 20.9999C4.11066 20.9965 3.73482 20.8388 3.45699 20.5607C3.17916 20.2825 3.02156 19.9063 3.01815 19.513C3.01474 19.1197 3.16578 18.7408 3.43874 18.4579L9.87177 12.0184L3.43874 5.57893C3.15781 5.29764 3 4.91618 3 4.51843C3 4.12069 3.15781 3.73922 3.43874 3.45793Z" fill="#81869B"/>
</svg>
