<svg width="24" height="24" viewBox="0 0 24 24" fill="none" xmlns="http://www.w3.org/2000/svg">
<path fill-rule="evenodd" clip-rule="evenodd" d="M2.37546 5.91957C2.66565 4.23488 4.00472 2.99648 5.69477 2.73932C7.31411 2.49293 9.53559 2.25 12 2.25C14.4644 2.25 16.6859 2.49293 18.3052 2.73932C19.9953 2.99648 21.3344 4.23488 21.6245 5.91957C21.8268 7.09372 22 8.58525 22 10.25C22 11.9147 21.8268 13.4063 21.6245 14.5804C21.3344 16.2651 19.9953 17.5035 18.3052 17.7607C16.8238 17.9861 14.8384 18.2086 12.6241 18.2449L6.50873 21.8585C5.84211 22.2524 5 21.7719 5 20.9976V17.594C3.64656 17.1439 2.62456 16.0266 2.37546 14.5804C2.17321 13.4063 2 11.9147 2 10.25C2 8.58525 2.17321 7.09372 2.37546 5.91957Z" fill="#81869B"/>
</svg>
