<svg width="24" height="24" viewBox="0 0 24 24" fill="none" xmlns="http://www.w3.org/2000/svg">
<path d="M7.20011 12C7.20011 12.6365 6.94726 13.247 6.49717 13.6971C6.04708 14.1472 5.43663 14.4 4.80011 14.4C4.16359 14.4 3.55314 14.1472 3.10306 13.6971C2.65297 13.247 2.40011 12.6365 2.40011 12C2.40011 11.3635 2.65297 10.753 3.10306 10.303C3.55314 9.85286 4.16359 9.60001 4.80011 9.60001C5.43663 9.60001 6.04708 9.85286 6.49717 10.303C6.94726 10.753 7.20011 11.3635 7.20011 12ZM14.4001 12C14.4001 12.6365 14.1473 13.247 13.6972 13.6971C13.2471 14.1472 12.6366 14.4 12.0001 14.4C11.3636 14.4 10.7531 14.1472 10.3031 13.6971C9.85297 13.247 9.60011 12.6365 9.60011 12C9.60011 11.3635 9.85297 10.753 10.3031 10.303C10.7531 9.85286 11.3636 9.60001 12.0001 9.60001C12.6366 9.60001 13.2471 9.85286 13.6972 10.303C14.1473 10.753 14.4001 11.3635 14.4001 12ZM19.2001 14.4C19.8366 14.4 20.4471 14.1472 20.8972 13.6971C21.3473 13.247 21.6001 12.6365 21.6001 12C21.6001 11.3635 21.3473 10.753 20.8972 10.303C20.4471 9.85286 19.8366 9.60001 19.2001 9.60001C18.5636 9.60001 17.9531 9.85286 17.5031 10.303C17.053 10.753 16.8001 11.3635 16.8001 12C16.8001 12.6365 17.053 13.247 17.5031 13.6971C17.9531 14.1472 18.5636 14.4 19.2001 14.4Z" fill="#81869B"/>
</svg>
