<svg width="24" height="24" viewBox="0 0 24 24" fill="none" xmlns="http://www.w3.org/2000/svg">
<path fill-rule="evenodd" clip-rule="evenodd" d="M5.94824 2.45153C4.12108 2.71842 2.71842 4.12108 2.45153 5.94824C2.21869 7.54226 2 9.66177 2 12C2 14.3382 2.21869 16.4577 2.45153 18.0517C2.71842 19.8788 4.12108 21.2815 5.94824 21.5484C7.54226 21.7812 9.66177 21.9999 12 21.9999C14.3382 21.9999 16.4577 21.7812 18.0517 21.5484C19.8788 21.2815 21.2815 19.8788 21.5484 18.0517C21.7812 16.4577 21.9999 14.3382 21.9999 12C21.9999 9.66177 21.7812 7.54226 21.5484 5.94824C21.2815 4.12108 19.8788 2.71842 18.0517 2.45153C16.4577 2.21869 14.3382 2 12 2C9.66177 2 7.54226 2.21869 5.94824 2.45153ZM9.4923 10.8409C9.37734 10.6288 9.21096 10.4682 8.99315 10.3591C8.78139 10.2439 8.53031 10.1864 8.2399 10.1864C7.73773 10.1864 7.33539 10.353 7.03288 10.6864C6.73037 11.0136 6.57911 11.453 6.57911 12.0045C6.57911 12.5924 6.73642 13.053 7.05103 13.3864C7.37169 13.7136 7.81033 13.8773 8.36695 13.8773C8.74812 13.8773 9.06878 13.7803 9.32894 13.5864C9.59515 13.3924 9.78876 13.1136 9.90976 12.75H7.94041V11.6045H11.3164V13.05C11.2015 13.4379 11.0049 13.7985 10.7265 14.1318C10.4543 14.4652 10.1064 14.7348 9.68288 14.9409C9.25936 15.147 8.78139 15.25 8.24897 15.25C7.61975 15.25 7.05708 15.1136 6.56096 14.8409C6.07089 14.5621 5.6867 14.1773 5.40839 13.6864C5.13613 13.1955 5 12.6348 5 12.0045C5 11.3742 5.13613 10.8136 5.40839 10.3227C5.6867 9.82576 6.07089 9.44091 6.56096 9.16818C7.05103 8.88939 7.61067 8.75 8.2399 8.75C9.00223 8.75 9.64355 8.93485 10.1639 9.30455C10.6902 9.67424 11.0381 10.1864 11.2075 10.8409H9.4923ZM13.7279 8.82273V15.2045H12.176V8.82273H13.7279ZM19 10.0682V8.82273H14.8526V15.2045H16.4045V12.6227H18.3466V11.4136H16.4045V10.0682H19Z" fill="#81869B"/>
<path fill-rule="evenodd" clip-rule="evenodd" d="M5.94824 2.45153C4.12108 2.71842 2.71842 4.12108 2.45153 5.94824C2.21869 7.54226 2 9.66177 2 12C2 14.3382 2.21869 16.4577 2.45153 18.0517C2.71842 19.8788 4.12108 21.2815 5.94824 21.5484C7.54226 21.7812 9.66177 21.9999 12 21.9999C14.3382 21.9999 16.4577 21.7812 18.0517 21.5484C19.8788 21.2815 21.2815 19.8788 21.5484 18.0517C21.7812 16.4577 21.9999 14.3382 21.9999 12C21.9999 9.66177 21.7812 7.54226 21.5484 5.94824C21.2815 4.12108 19.8788 2.71842 18.0517 2.45153C16.4577 2.21869 14.3382 2 12 2C9.66177 2 7.54226 2.21869 5.94824 2.45153ZM9.4923 10.8409C9.37734 10.6288 9.21096 10.4682 8.99315 10.3591C8.78139 10.2439 8.53031 10.1864 8.2399 10.1864C7.73773 10.1864 7.33539 10.353 7.03288 10.6864C6.73037 11.0136 6.57911 11.453 6.57911 12.0045C6.57911 12.5924 6.73642 13.053 7.05103 13.3864C7.37169 13.7136 7.81033 13.8773 8.36695 13.8773C8.74812 13.8773 9.06878 13.7803 9.32894 13.5864C9.59515 13.3924 9.78876 13.1136 9.90976 12.75H7.94041V11.6045H11.3164V13.05C11.2015 13.4379 11.0049 13.7985 10.7265 14.1318C10.4543 14.4652 10.1064 14.7348 9.68288 14.9409C9.25936 15.147 8.78139 15.25 8.24897 15.25C7.61975 15.25 7.05708 15.1136 6.56096 14.8409C6.07089 14.5621 5.6867 14.1773 5.40839 13.6864C5.13613 13.1955 5 12.6348 5 12.0045C5 11.3742 5.13613 10.8136 5.40839 10.3227C5.6867 9.82576 6.07089 9.44091 6.56096 9.16818C7.05103 8.88939 7.61067 8.75 8.2399 8.75C9.00223 8.75 9.64355 8.93485 10.1639 9.30455C10.6902 9.67424 11.0381 10.1864 11.2075 10.8409H9.4923ZM13.7279 8.82273V15.2045H12.176V8.82273H13.7279ZM19 10.0682V8.82273H14.8526V15.2045H16.4045V12.6227H18.3466V11.4136H16.4045V10.0682H19Z" fill="#81869B"/>
</svg>
