<svg width="28" height="28" viewBox="0 0 28 28" fill="none" xmlns="http://www.w3.org/2000/svg">
<path d="M3.5 13.5493V21.556C3.5 23.1819 4.80584 24.5 6.41667 24.5H8.16667C9.7775 24.5 11.0833 23.1819 11.0833 21.556V18.612C11.0833 16.9861 12.3892 15.668 14 15.668C15.6108 15.668 16.9167 16.9861 16.9167 18.612V21.556C16.9167 23.1819 18.2225 24.5 19.8333 24.5H21.5833C23.1942 24.5 24.5 23.1819 24.5 21.556V13.5493C24.5 11.914 23.752 10.3704 22.4732 9.36639L15.7907 4.12015C14.7374 3.29328 13.2626 3.29328 12.2093 4.12015L5.52681 9.36639C4.24798 10.3704 3.5 11.914 3.5 13.5493Z" fill="#81869B"/>
</svg>
