<svg width="24" height="24" viewBox="0 0 24 24" fill="none" xmlns="http://www.w3.org/2000/svg">
<path d="M9.67968 5.33636C9.67968 4.10212 10.6473 3.09142 11.8732 3.00587L12.0419 3C12.5702 3 13.0833 3.17517 13.4991 3.49751L22.0949 10.1611C23.1217 10.9571 23.3017 12.4256 22.4969 13.4412C22.3796 13.5893 22.2446 13.7228 22.0949 13.8388L13.4991 20.5024C12.4723 21.2984 10.9875 21.1204 10.1827 20.1048C9.85679 19.6935 9.67968 19.1861 9.67968 18.6638L9.67858 15.9533L9.44402 15.9813C6.91849 16.3149 4.63573 17.5884 3.03239 19.5297L2.82715 19.7866C2.28338 20.4909 1.14882 20.1741 1.05761 19.2926C1.01934 18.9229 1 18.55 1 18.1759C1 13.0269 4.67654 8.66263 9.65614 7.64226L9.67858 7.63694L9.67968 5.33636Z" fill="#81869B"/>
</svg>
