<svg width="24" height="24" viewBox="0 0 24 24" fill="none" xmlns="http://www.w3.org/2000/svg">
<path fill-rule="evenodd" clip-rule="evenodd" d="M12 1.25C12.8482 1.25 13.5357 1.93756 13.5357 2.78571V10.4643H21.2143C22.0624 10.4643 22.75 11.1518 22.75 12C22.75 12.8482 22.0624 13.5357 21.2143 13.5357H13.5357V21.2143C13.5357 22.0624 12.8482 22.75 12 22.75C11.1518 22.75 10.4643 22.0624 10.4643 21.2143V13.5357H2.78571C1.93756 13.5357 1.25 12.8482 1.25 12C1.25 11.1518 1.93756 10.4643 2.78571 10.4643H10.4643V2.78571C10.4643 1.93756 11.1518 1.25 12 1.25Z" fill="white"/>
</svg>
