<svg id="Calque_1" data-name="Calque 1" xmlns="http://www.w3.org/2000/svg" viewBox="0 0 12.52019 14.39822"><defs><style>.cls-1{fill:#fff;}</style></defs><path class="cls-1" d="M13.76009,14.69911l-3.28655-3.13.39439,1.252h-8.063a1.565,1.565,0,0,1-1.565-1.565V1.86592a1.565,1.565,0,0,1,1.565-1.565h9.39014a1.565,1.565,0,0,1,1.565,1.565V14.69911M7.5,3.93175a5.94072,5.94072,0,0,0-2.8546.71991A5.49354,5.49354,0,0,1,6.417,3.74394l-.10642-.10642a3.93719,3.93719,0,0,0-2.01575.75121A9.87422,9.87422,0,0,0,3.287,8.57674,2.73154,2.73154,0,0,0,5.46547,9.62843L5.90994,9.065a2.38063,2.38063,0,0,1-1.27706-.86389,5.53011,5.53011,0,0,0,5.73424,0A2.38063,2.38063,0,0,1,9.09006,9.065l.44447.56341A2.73154,2.73154,0,0,0,11.713,8.57674a9.87422,9.87422,0,0,0-1.00787-4.188,3.93719,3.93719,0,0,0-2.01575-.75121L8.583,3.74394a5.49354,5.49354,0,0,1,1.7716.90772A5.94072,5.94072,0,0,0,7.5,3.93175M6.20416,6.30432a.76059.76059,0,0,1,.73243.795.76862.76862,0,0,1-.73243.795.76778.76778,0,0,1-.72617-.795.75967.75967,0,0,1,.72617-.795m2.61046,0a.7983.7983,0,1,1-.72617.795A.76465.76465,0,0,1,8.81462,6.30432Z" transform="translate(-1.23991 -0.30089)"/></svg>