<svg width="24" height="24" viewBox="0 0 24 24" fill="none" xmlns="http://www.w3.org/2000/svg">
<path d="M3 12V18.5C3 19.8807 4.11929 21 5.5 21H7C8.38071 21 9.5 19.8807 9.5 18.5V16C9.5 14.6193 10.6193 13.5 12 13.5C13.3807 13.5 14.5 14.6193 14.5 16V18.5C14.5 19.8807 15.6193 21 17 21H18.5C19.8807 21 21 19.8807 21 18.5V12C21 11.7239 20.7761 11.5 20.5 11.5H16.9142C16.649 11.5 16.3946 11.3946 16.2071 11.2071C15.8166 10.8166 15.1834 10.8166 14.7929 11.2071C14.6054 11.3946 14.351 11.5 14.0858 11.5H9.91421C9.649 11.5 9.39464 11.3946 9.20711 11.2071C8.81658 10.8166 8.18342 10.8166 7.79289 11.2071C7.60536 11.3946 7.351 11.5 7.08579 11.5H3.5C3.22386 11.5 3 11.7239 3 12Z" fill="#81869B"/>
<path d="M17.9549 3H6.04508C5.09815 3 4.2325 3.53501 3.80902 4.38197L2.80902 6.38197C1.97789 8.04422 3.18663 10 5.04508 10H6.25C6.72214 10 7.16672 9.77771 7.45 9.4L7.7 9.06667C8.1 8.53333 8.9 8.53333 9.3 9.06667L9.55 9.4C9.83328 9.77771 10.2779 10 10.75 10H13.25C13.7221 10 14.1667 9.77771 14.45 9.4L14.7 9.06667C15.1 8.53333 15.9 8.53333 16.3 9.06667L16.55 9.4C16.8333 9.77771 17.2779 10 17.75 10H18.9549C20.8134 10 22.0221 8.04422 21.191 6.38197L20.191 4.38197C19.7675 3.53501 18.9018 3 17.9549 3Z" fill="#81869B"/>
</svg>
