<svg width="24" height="24" viewBox="0 0 24 24" fill="none" xmlns="http://www.w3.org/2000/svg">
<path d="M16.5 7C16.5 4 18 3 19.5 3H6.99998C5.61927 3 4.49998 4.11929 4.49998 5.5V14.5C4.49998 15.0523 4.94769 15.5 5.49998 15.5H11.5C12.6045 15.5 13.4763 16.3996 13.6198 17.4948C13.7783 18.7038 14.1461 20 15 20C16.5 20 16.5 14.5 16.5 7Z" fill="#81869B"/>
<path d="M12.426 17.9765C12.7302 19.1307 12.5454 20.2182 14.5 21H4.99998C2.49998 21 1.49998 17 3.49997 17H10.9296C11.5983 17 12.2556 17.3299 12.426 17.9765Z" fill="#81869B"/>
<path d="M21 6C21 5.03573 20.7933 4.48472 19.9816 4.21412C18.9337 3.8648 18 4.89543 18 6V9C18 9.55228 18.4654 10.0255 18.9785 9.82105C20.6363 9.16039 21 6.85285 21 6Z" fill="#81869B"/>
</svg>
