<svg width="28" height="20" viewBox="0 0 28 20" fill="none" xmlns="http://www.w3.org/2000/svg">
<path fill-rule="evenodd" clip-rule="evenodd" d="M1.6947 5.77648C2.0596 2.85732 4.5411 0.666687 7.48299 0.666687H20.5172C23.4591 0.666687 25.9406 2.85732 26.3055 5.77648L27.2091 13.005C27.6291 16.3653 25.009 19.3334 21.6225 19.3334C19.7517 19.3334 18.0839 18.418 17.0581 17H10.9421C9.91632 18.418 8.24843 19.3334 6.37765 19.3334C2.99122 19.3334 0.371096 16.3653 0.791131 13.005L1.6947 5.77648ZM9.33333 5.33335C8.689 5.33335 8.16667 5.85569 8.16667 6.50002V7.66669H7C6.35567 7.66669 5.83333 8.18902 5.83333 8.83335C5.83333 9.47768 6.35567 10 7 10H8.16667V11.1667C8.16667 11.811 8.689 12.3334 9.33333 12.3334C9.97767 12.3334 10.5 11.811 10.5 11.1667V10H11.6667C12.311 10 12.8333 9.47768 12.8333 8.83335C12.8333 8.18902 12.311 7.66669 11.6667 7.66669H10.5V6.50002C10.5 5.85569 9.97767 5.33335 9.33333 5.33335ZM22.1667 6.50002C22.1667 7.14435 21.6443 7.66669 21 7.66669C20.3557 7.66669 19.8333 7.14435 19.8333 6.50002C19.8333 5.85569 20.3557 5.33335 21 5.33335C21.6443 5.33335 22.1667 5.85569 22.1667 6.50002ZM19.8333 11.1667C19.8333 11.811 19.311 12.3334 18.6667 12.3334C18.0223 12.3334 17.5 11.811 17.5 11.1667C17.5 10.5224 18.0223 10 18.6667 10C19.311 10 19.8333 10.5224 19.8333 11.1667Z" fill="#81869B"/>
</svg>
