<svg width="24" height="24" viewBox="0 0 24 24" fill="none" xmlns="http://www.w3.org/2000/svg">
<path d="M15.9991 14.838L16.1788 14.6628C17.0933 13.5163 17.6447 12.0812 17.6447 10.5192C17.6447 6.78685 14.528 3.75 10.6974 3.75C6.86676 3.75 3.75 6.78685 3.75 10.5192C3.75 14.2516 6.86676 17.2885 10.6974 17.2885C12.1693 17.2885 13.5302 16.8315 14.6539 16.0666L18.9474 20.25L20.25 18.9808L15.9991 14.838ZM10.6974 15.5962C7.82376 15.5962 5.48684 13.3192 5.48684 10.5192C5.48684 7.71931 7.82376 5.44231 10.6974 5.44231C13.571 5.44231 15.9079 7.71931 15.9079 10.5192C15.9079 13.3192 13.571 15.5962 10.6974 15.5962Z" fill="#81869B"/>
</svg>
