<?xml version="1.0" encoding="utf-8"?>
<!-- Generator: Adobe Illustrator 26.0.1, SVG Export Plug-In . SVG Version: 6.00 Build 0)  -->
<svg version="1.1" id="Calque_1" xmlns="http://www.w3.org/2000/svg" xmlns:xlink="http://www.w3.org/1999/xlink" x="0px" y="0px"
	 viewBox="0 0 161.6 143.1" style="enable-background:new 0 0 161.6 143.1;" xml:space="preserve">
<style type="text/css">
	.st0{fill:#EBB667;}
</style>
<path class="st0" d="M18,98.6c-2.2-0.4-4-0.6-5.8-1.2c-7-2.2-11.9-8.6-12.1-15.9C0,71.9,0,62.3,0.1,52.7C0.3,43.3,7.9,36.1,17.7,36
	c16.4,0,32.8-0.4,49.1,0.1c20.3,0.6,37.7-5.8,52.8-19.1c5.8-5.1,12.1-9.7,18.1-14.5c3.1-2.4,6.5-3.3,10.1-1.5
	c3.3,1.7,4.6,4.8,4.6,8.4c0,12.7,0.1,25.4,0,38.1c-0.2,2.5,0.9,4.9,2.9,6.3c8.6,7.1,8.3,20-0.4,27.1c-1.4,1.3-2.2,3-2.4,4.9
	c-0.2,12-0.1,23.9-0.1,35.9c0,1.2,0,2.5-0.1,3.7c-0.3,3.4-1.6,6.4-4.8,7.9c-3.3,1.6-6.6,0.9-9.5-1.4c-7.1-5.7-14.4-11.2-21.4-17
	C102,102.5,85.2,97.2,66.1,98.4c-2.8,0.2-2.9,1.8-3.1,3.6c-1,9.2,0.3,17.9,5.8,25.6c0.5,0.7,1,1.4,1.4,2.2
	c3.4,6.2-0.5,13.1-7.7,13.2c-9.7,0.1-19.5,0-29.2,0c-4.3,0-7-1.8-8.7-5.7c-4.2-9.4-6.4-19.5-6.5-29.7C18,104.7,18,101.7,18,98.6z
	 M139.2,116.3V17.8c-3.1,2.5-5.7,4.4-8.1,6.5C117.5,36.5,102.4,45.5,84,47.9c-3,0.4-3.6,1.7-3.5,4.4c0.1,9.7,0.2,19.4,0,29.1
	c-0.1,3.6,1.4,4.7,4.6,5.1c14.6,2,27.4,8,38.7,17.3C128.7,108,133.7,111.9,139.2,116.3z M67.6,49.7c-0.7-0.3-0.9-0.5-1.1-0.5
	c-16.4,0-32.7-0.1-49.1-0.1c-3.1,0-4.4,2.1-4.4,5c-0.1,8.7-0.1,17.4,0,26.1c0,3,1.6,5,4.8,5c15.7,0.1,31.5,0,47.2,0.1
	c2,0,2.6-0.8,2.6-2.7C67.6,71.6,67.6,60.7,67.6,49.7z M50.2,98.5c-6,0-11.6-0.1-17.1,0.1c-0.6,0-1.5,1.2-1.6,2
	c-1,9.3-0.3,18.4,3.2,27.1c0.4,1,1.6,2.2,2.4,2.3c5.7,0.2,11.4,0.1,17.8,0.1C49.9,119.7,48.8,109.5,50.2,98.5z"/>
</svg>
