<?xml version="1.0" encoding="utf-8"?>
<!-- Generator: Adobe Illustrator 26.0.1, SVG Export Plug-In . SVG Version: 6.00 Build 0)  -->
<svg version="1.1" id="Calque_1" xmlns="http://www.w3.org/2000/svg" xmlns:xlink="http://www.w3.org/1999/xlink" x="0px" y="0px"
	 viewBox="0 0 336 95" style="enable-background:new 0 0 336 95;" xml:space="preserve">
<style type="text/css">
	.st0{fill:url(#SVGID_1_);fill-opacity:0.28;}
	.st1{fill:#6590FF;}
	.st2{fill:#FFC0F8;}
	.st3{fill-rule:evenodd;clip-rule:evenodd;fill:#FFC0F8;}
</style>
<linearGradient id="SVGID_1_" gradientUnits="userSpaceOnUse" x1="377.8275" y1="300.1449" x2="347.8275" y2="465.1449" gradientTransform="matrix(1 0 0 -1 0 96)">
	<stop  offset="0" style="stop-color:#6778B4"/>
	<stop  offset="1" style="stop-color:#6786C4;stop-opacity:0.26"/>
</linearGradient>
<path class="st0" d="M201.4-352.9h316c5.5,0,10,4.5,10,10v75c0,5.5-4.5,10-10,10h-316c-5.5,0-10-4.5-10-10v-75
	C191.4-348.4,195.9-352.9,201.4-352.9z"/>
<g>
	<path class="st1" d="M-184-181.4c0,1.6-0.1,2.9-0.2,4.1c-0.1,1.2-0.4,2.1-0.7,2.9c-0.4,0.8-0.9,1.5-1.6,2c-0.7,0.5-1.6,0.9-2.7,1.2
		c-1.1,0.3-2.5,0.5-4.2,0.6c-1.6,0.1-3.6,0.1-5.9,0.1h-16.1V-193h16.1c2.2,0,4.1,0,5.8,0.1c1.6,0.1,3,0.3,4.1,0.5
		c1.1,0.3,2,0.7,2.7,1.2c0.7,0.5,1.3,1.1,1.6,2c0.4,0.8,0.7,1.8,0.8,3c0.1,1.2,0.2,2.5,0.2,4.1V-181.4z M-199.9-176.4
		c1.9,0,3.3-0.1,4.4-0.2c1.1-0.1,1.9-0.3,2.4-0.7c0.5-0.4,0.9-0.9,1-1.6c0.1-0.7,0.2-1.6,0.2-2.7v-0.4c0-1.1-0.1-2-0.2-2.7
		c-0.1-0.7-0.5-1.2-1-1.6c-0.5-0.4-1.3-0.6-2.4-0.7c-1.1-0.1-2.5-0.2-4.4-0.2h-7.6v10.7H-199.9z"/>
	<path class="st1" d="M-171-170.5h-7.9V-193h7.9V-170.5z"/>
	<path class="st1" d="M-133.5-170.5h-8.4l-2-3.9h-13.7l-2,3.9h-8.3l12.7-22.4h8.9L-133.5-170.5z M-146.7-179.6l-4.2-8.1h-0.1
		l-4.1,8.1H-146.7z"/>
	<path class="st1" d="M-92.9-170.5h-7.6v-15.1h-0.1l-8.2,15.1h-6l-8-15.1h-0.2v15.1h-7.6V-193h10.9l8.1,15.1h0.1l8-15.1h10.7V-170.5
		z"/>
	<path class="st1" d="M-72.3-170.3c-2.2,0-4.2,0-5.8-0.1c-1.6-0.1-3-0.3-4.2-0.6c-1.1-0.3-2.1-0.7-2.8-1.2c-0.7-0.5-1.3-1.2-1.7-2
		c-0.4-0.8-0.7-1.8-0.8-3c-0.1-1.2-0.2-2.6-0.2-4.2v-0.5c0-1.6,0.1-3,0.2-4.2c0.1-1.2,0.4-2.2,0.8-3c0.4-0.8,1-1.5,1.7-2
		c0.7-0.5,1.7-0.9,2.8-1.2c1.1-0.3,2.5-0.5,4.2-0.6c1.6-0.1,3.6-0.1,5.8-0.1h1c2.2,0,4.2,0,5.8,0.1c1.6,0.1,3,0.3,4.2,0.6
		c1.1,0.3,2.1,0.7,2.8,1.2c0.7,0.5,1.3,1.2,1.7,2c0.4,0.8,0.7,1.8,0.8,3c0.1,1.2,0.2,2.6,0.2,4.2v0.5c0,1.6-0.1,3-0.2,4.2
		c-0.1,1.2-0.4,2.2-0.8,3c-0.4,0.8-1,1.5-1.7,2c-0.7,0.5-1.6,0.9-2.8,1.2c-1.1,0.3-2.5,0.5-4.2,0.6c-1.6,0.1-3.6,0.1-5.8,0.1H-72.3z
		 M-71.4-176.2c1.8,0,3.3,0,4.3-0.1c1-0.1,1.8-0.3,2.3-0.7c0.5-0.4,0.8-0.9,0.9-1.6c0.1-0.7,0.2-1.7,0.2-3v-0.3
		c0-1.2-0.1-2.2-0.2-2.9c-0.1-0.7-0.4-1.3-0.9-1.6c-0.5-0.4-1.3-0.6-2.3-0.7c-1-0.1-2.4-0.1-4.3-0.1H-72c-1.8,0-3.3,0-4.3,0.1
		c-1,0.1-1.8,0.3-2.3,0.7c-0.5,0.4-0.8,0.9-0.9,1.6s-0.2,1.7-0.2,2.9v0.3c0,1.3,0.1,2.2,0.2,3c0.1,0.7,0.4,1.3,0.9,1.6
		s1.3,0.6,2.3,0.7s2.5,0.1,4.3,0.1H-71.4z"/>
	<path class="st1" d="M-19.6-170.5h-10.9l-12.3-16.1H-43v16.1h-7.7V-193h11.2l12.1,16h0.1v-16h7.6V-170.5z"/>
	<path class="st1" d="M17.6-181.4c0,1.6-0.1,2.9-0.2,4.1c-0.1,1.2-0.4,2.1-0.7,2.9c-0.4,0.8-0.9,1.5-1.6,2c-0.7,0.5-1.6,0.9-2.7,1.2
		c-1.1,0.3-2.5,0.5-4.2,0.6s-3.6,0.1-5.9,0.1h-16.1V-193H2.3c2.2,0,4.1,0,5.8,0.1c1.6,0.1,3,0.3,4.1,0.5c1.1,0.3,2,0.7,2.7,1.2
		s1.3,1.1,1.7,2c0.4,0.8,0.7,1.8,0.8,3c0.1,1.2,0.2,2.5,0.2,4.1V-181.4z M1.7-176.4c1.9,0,3.3-0.1,4.4-0.2c1.1-0.1,1.9-0.3,2.4-0.7
		c0.5-0.4,0.9-0.9,1-1.6c0.1-0.7,0.2-1.6,0.2-2.7v-0.4c0-1.1-0.1-2-0.2-2.7c-0.1-0.7-0.5-1.2-1-1.6c-0.5-0.4-1.3-0.6-2.4-0.7
		c-1.1-0.1-2.5-0.2-4.4-0.2h-7.6v10.7H1.7z"/>
</g>
<g>
	<path class="st2" d="M-206.2-164.3h4.5l-1,11.6h-4.5L-206.2-164.3z"/>
	<path class="st2" d="M-91.9-164.3h4l-1,11.6h-4.2l0.5-5.2l-3.1,3.6H-98l-2.4-3.7l-0.5,5.2h-4.2l1-11.6h3.7l3.7,5.8L-91.9-164.3z"/>
	<path class="st2" d="M-86.2-164.3h4.5l-1,11.6h-4.5L-86.2-164.3z"/>
	<path class="st2" d="M-70-164.3h4.3l-1,11.6h-3.6l-5.9-6.4l-0.6,6.4h-4.3l1-11.6h3.8l5.8,6.3L-70-164.3z"/>
</g>
<path class="st2" d="M-55.1-160.1l0.1-1.2c0-0.1,0-0.1-0.1-0.1h-7.3l1.7,1.2l-0.4,4.6c0,0.1,0.1,0.2,0.2,0.2h5.3
	c0.1,0,0.2,0,0.2-0.1l0.1-1.2h-2.8l0.2-2l6.7,0l-0.2,2l-0.2,2.6c0,0.4-0.3,0.8-0.7,1.1c-0.4,0.3-0.9,0.5-1.4,0.5h-8.3
	c-0.9,0-1.7-0.3-2.3-0.8c-0.6-0.5-0.9-1.1-0.8-1.9l0.6-6.3c0.1-0.7,0.3-1.4,0.8-1.9c0.5-0.5,1.2-0.8,2.1-0.8h8.9
	c0.5,0,1,0.1,1.3,0.4c0.4,0.3,0.5,0.7,0.5,1.1l-0.2,2.6H-55.1z"/>
<path class="st2" d="M-172.2-164.2h-11.1c-0.8,0-1.5,0.5-1.5,1.2l-0.8,8.3c-0.1,1.1,1.1,2.1,2.4,2.1h9.9l0.3-2.8h-8.4l0.1-0.9
	l-1.2-0.9h2.6h6.2l0.2-2.3h-7.5l0.1-0.7l-1.6-1.1h1.7v0h8.4L-172.2-164.2z"/>
<path class="st3" d="M-187-163.8c-0.6-0.5-1.4-0.8-2.4-0.8h-10.7l-0.2,2.4l-0.6,6.8l-0.2,2.7h11.1c1,0,1.7-0.3,2.3-0.8
	c0.6-0.5,0.9-1.2,1-1.9l0.6-6.5C-186.2-162.6-186.4-163.2-187-163.8z M-190.9-155.8c0,0.2-0.1,0.2-0.3,0.2h-5.4
	c-0.2,0-0.3-0.1-0.3-0.2l0.4-4.7l-1.8-1.3h2.2c0,0,0,0,0,0h5.4c0.2,0,0.3,0.1,0.2,0.2L-190.9-155.8z"/>
<path class="st2" d="M-142.2-163.8c-0.6-0.5-1.5-0.8-2.5-0.8h-7.6c-1,0-1.8,0.3-2.4,0.8c-0.6,0.5-0.9,1.1-1,1.9l-0.2,1.8
	c-0.1,0.7,0.2,1.4,0.8,1.9c0.6,0.5,1.5,0.8,2.5,0.8h6.2c0.2,0,0.3,0.1,0.3,0.2l-0.1,1.3c0,0.1-0.1,0.2-0.3,0.2h-5.2
	c-0.2,0-0.3-0.1-0.3-0.2l0.1-0.7h-4.3l-0.1,1c-0.1,0.7,0.2,1.4,0.8,1.9c0.6,0.5,1.5,0.8,2.5,0.8h7.7c1,0,1.8-0.3,2.3-0.8
	c0.6-0.5,0.9-1.1,1-1.9l0.2-1.8c0.1-0.7-0.2-1.4-0.8-1.9c-0.6-0.5-1.5-0.8-2.5-0.8h-6.2c-0.2,0-0.3-0.1-0.3-0.2l0-0.4l-1.6-1.1h2
	c0,0,0,0,0,0h5.2c0.2,0,0.3,0.1,0.3,0.2l-0.1,0.7h4.3l0.1-1C-141.3-162.6-141.5-163.3-142.2-163.8z"/>
<path class="st2" d="M-125.9-160.1l0.1-1.2c0-0.1,0-0.1-0.1-0.1h-7.3l1.7,1.2l-0.4,4.6c0,0.1,0.1,0.2,0.2,0.2h5.3
	c0.1,0,0.2,0,0.2-0.1l0.1-1.2h-2.8l0.2-2l6.7,0l-0.2,2l-0.2,2.6c0,0.4-0.3,0.8-0.7,1.1c-0.4,0.3-0.9,0.5-1.4,0.5h-8.3
	c-0.9,0-1.7-0.3-2.3-0.8c-0.6-0.5-0.9-1.1-0.8-1.9l0.6-6.3c0.1-0.7,0.3-1.4,0.8-1.9c0.5-0.5,1.2-0.8,2.1-0.8h8.9
	c0.5,0,1,0.1,1.3,0.4c0.4,0.3,0.5,0.7,0.5,1.1l-0.2,2.6H-125.9z"/>
<path class="st3" d="M-156.8-161.7l0-0.2c0.1-0.8-0.2-1.4-0.8-1.9c-0.6-0.5-1.4-0.8-2.3-0.8h-7.7c-1,0-1.7,0.3-2.3,0.8
	c-0.6,0.5-0.9,1.2-1,1.9l0,0.2l-0.9,8.9h4.2l0.2-2.4h5.7l-0.2,2.4h4.2L-156.8-161.7L-156.8-161.7z M-161-161.5l0,0.4l-0.3,3h-5.7
	l0.2-2.5l-1.6-1.2h7.2C-161.1-161.7-161-161.6-161-161.5L-161-161.5z"/>
<path class="st3" d="M-106-161.7l0-0.2c0.1-0.8-0.2-1.4-0.8-1.9c-0.6-0.5-1.4-0.8-2.3-0.8h-7.7c-1,0-1.7,0.3-2.3,0.8
	c-0.6,0.5-0.9,1.2-1,1.9l0,0.2l-0.9,8.9h4.2l0.2-2.4h5.7l-0.2,2.4h4.2L-106-161.7L-106-161.7z M-110.2-161.5l0,0.4l-0.3,3h-5.7
	l0.2-2.5l-1.6-1.2h7.2C-110.3-161.7-110.2-161.6-110.2-161.5L-110.2-161.5z"/>
</svg>
