<?xml version="1.0" encoding="utf-8"?>
<!-- Generator: Adobe Illustrator 26.0.1, SVG Export Plug-In . SVG Version: 6.00 Build 0)  -->
<svg version="1.1" id="Calque_1" xmlns="http://www.w3.org/2000/svg" xmlns:xlink="http://www.w3.org/1999/xlink" x="0px" y="0px"
	 viewBox="0 0 336 95" style="enable-background:new 0 0 336 95;" xml:space="preserve">
<style type="text/css">
	.st0{fill:url(#SVGID_1_);fill-opacity:0.28;}
	.st1{fill:url(#SVGID_00000164503769826438271950000003660849868939762596_);}
	.st2{fill:url(#SVGID_00000183218311022434356420000014845594972759302017_);}
	.st3{fill:url(#SVGID_00000113336247676174551980000015627898333610221719_);}
	.st4{fill:url(#SVGID_00000054230207382289786530000018061964663492516224_);}
	.st5{fill:url(#SVGID_00000001626877142907461340000005458678679246898831_);}
	.st6{fill:url(#SVGID_00000140717326808697679210000008543435306177502655_);}
	.st7{fill:url(#SVGID_00000172441989561635847640000000214547355419699871_);}
	.st8{fill:#FFFFFF;}
	.st9{fill-rule:evenodd;clip-rule:evenodd;fill:#FFFFFF;}
</style>
<linearGradient id="SVGID_1_" gradientUnits="userSpaceOnUse" x1="186.408" y1="-52.744" x2="156.408" y2="112.256" gradientTransform="matrix(1 0 0 -1 0 96)">
	<stop  offset="0" style="stop-color:#B19885"/>
	<stop  offset="1" style="stop-color:#BF9D8E;stop-opacity:0.26"/>
</linearGradient>
<path class="st0" d="M10,0h316c5.5,0,10,4.5,10,10v75c0,5.5-4.5,10-10,10H10C4.5,95,0,90.5,0,85V10C0,4.5,4.5,0,10,0z"/>
<linearGradient id="SVGID_00000073690282549731110220000005118342911236043924_" gradientUnits="userSpaceOnUse" x1="71.6353" y1="94" x2="71.6353" y2="42" gradientTransform="matrix(1 0 0 -1 0 96)">
	<stop  offset="0" style="stop-color:#DD5F4D"/>
	<stop  offset="1" style="stop-color:#FFC369"/>
</linearGradient>
<path style="fill:url(#SVGID_00000073690282549731110220000005118342911236043924_);" d="M58.3,48H65v-5.4h10.8c3.8,0,5.3-0.2,6.6-1
	c1.8-1.1,2.6-3.3,2.6-7.5c0-4.2-0.8-6.2-3-7.3c-1.4-0.7-2.5-0.8-6.7-0.8H58.3V48z M65,37.2v-5.9h9.7c2.9,0,3.5,0.6,3.5,3.2
	c0,2.1-0.8,2.7-3.5,2.7H65z"/>
<linearGradient id="SVGID_00000127746089326994846990000001739036022613094055_" gradientUnits="userSpaceOnUse" x1="103.5528" y1="94" x2="103.5528" y2="42" gradientTransform="matrix(1 0 0 -1 0 96)">
	<stop  offset="0" style="stop-color:#DD5F4D"/>
	<stop  offset="1" style="stop-color:#FFC369"/>
</linearGradient>
<path style="fill:url(#SVGID_00000127746089326994846990000001739036022613094055_);" d="M89.7,48h6.7v-5.5h10.3
	c1.8,0,2.3,0.1,2.9,0.4c0.6,0.4,0.8,1.1,0.8,2.4V48h6.8v-3.5c0-1.9-0.3-2.9-0.9-3.6c-0.7-0.8-1.5-1.1-3.8-1.2c-0.2,0-0.6,0-1.1-0.1
	c3-0.4,4-0.8,4.8-1.6c1-1,1.4-2.6,1.4-5c0-3.4-0.9-5.4-2.8-6.3c-1.3-0.6-2.8-0.8-5.9-0.8h-19V48z M96.4,37.1v-5.7h10.7
	c2,0,2.6,0.1,3.1,0.6c0.4,0.5,0.6,1.1,0.6,2.5c0,2.2-0.6,2.6-3.9,2.6H96.4z"/>
<linearGradient id="SVGID_00000073692003236803875480000013256127124121975480_" gradientUnits="userSpaceOnUse" x1="135.098" y1="94" x2="135.098" y2="42" gradientTransform="matrix(1 0 0 -1 0 96)">
	<stop  offset="0" style="stop-color:#DD5F4D"/>
	<stop  offset="1" style="stop-color:#FFC369"/>
</linearGradient>
<path style="fill:url(#SVGID_00000073692003236803875480000013256127124121975480_);" d="M122.8,26v22h24.6v-5h-18v-3.9h16.8v-4.4
	h-16.8V31h17.8v-5H122.8z"/>
<linearGradient id="SVGID_00000108293747356291644360000015315553157721364642_" gradientUnits="userSpaceOnUse" x1="170.9685" y1="94" x2="170.9685" y2="42" gradientTransform="matrix(1 0 0 -1 0 96)">
	<stop  offset="0" style="stop-color:#DD5F4D"/>
	<stop  offset="1" style="stop-color:#FFC369"/>
</linearGradient>
<path style="fill:url(#SVGID_00000108293747356291644360000015315553157721364642_);" d="M152.4,48h6.5l-0.2-17l9.6,17h5.3l9.8-17
	L183,48h6.5V26H179l-8,14.6L163,26h-10.6V48z"/>
<linearGradient id="SVGID_00000145774405348132288350000002257999205798541206_" gradientUnits="userSpaceOnUse" x1="198.6485" y1="94" x2="198.6485" y2="42" gradientTransform="matrix(1 0 0 -1 0 96)">
	<stop  offset="0" style="stop-color:#DD5F4D"/>
	<stop  offset="1" style="stop-color:#FFC369"/>
</linearGradient>
<path style="fill:url(#SVGID_00000145774405348132288350000002257999205798541206_);" d="M195.3,48h6.7V26h-6.7V48z"/>
<linearGradient id="SVGID_00000095319486684356769320000014511633112749476005_" gradientUnits="userSpaceOnUse" x1="221.7145" y1="94" x2="221.7145" y2="42" gradientTransform="matrix(1 0 0 -1 0 96)">
	<stop  offset="0" style="stop-color:#DD5F4D"/>
	<stop  offset="1" style="stop-color:#FFC369"/>
</linearGradient>
<path style="fill:url(#SVGID_00000095319486684356769320000014511633112749476005_);" d="M207.6,26v11.8c0,3.1,0.1,4.5,0.5,5.8
	c0.6,2.1,2,3.4,4.5,4.1c1.4,0.4,3.6,0.5,9,0.5c4,0,6.9-0.1,7.8-0.2c2.9-0.4,4.8-1.7,5.7-3.9c0.5-1.3,0.7-2.5,0.7-6.5V26h-6.7v10.1
	c0,2.4,0,2.4,0,2.9c0,1.7-0.4,2.6-1,3.1c-0.8,0.6-2.2,0.8-7.2,0.8c-4.1,0-5.5-0.4-6.1-1.6c-0.4-1-0.4-1-0.4-5.7V26H207.6z"/>
<linearGradient id="SVGID_00000094581091006473601290000004681141495690383256_" gradientUnits="userSpaceOnUse" x1="260.0755" y1="94" x2="260.0755" y2="42" gradientTransform="matrix(1 0 0 -1 0 96)">
	<stop  offset="0" style="stop-color:#DD5F4D"/>
	<stop  offset="1" style="stop-color:#FFC369"/>
</linearGradient>
<path style="fill:url(#SVGID_00000094581091006473601290000004681141495690383256_);" d="M241.5,48h6.5l-0.2-17l9.6,17h5.3l9.8-17
	l-0.3,17h6.5V26h-10.6l-8,14.6l-8-14.6h-10.6V48z"/>
<path class="st8" d="M109.2,60.3h4.7l2.6,4.2l3.6-4.2h4.9l-6.6,7.5l-0.4,4h-4.1l0.4-4L109.2,60.3z"/>
<path class="st9" d="M164.9,60.2c0.9,0,1.7,0.3,2.3,0.8c0.6,0.5,0.9,1.2,0.8,1.9l-0.2,2.5c-0.1,0.7-0.4,1.4-1,1.9
	c-0.6,0.5-1.5,0.8-2.6,0.8h-0.1l3.5,3.9H163l-3.1-3.9h-2l-0.4,3.9h-4l1.1-11.8H164.9z M163.8,65.2l0.2-1.9c0-0.1-0.1-0.2-0.2-0.2
	h-5.3v0h-1.8l1.7,1.2l-0.1,1.2h5.3C163.7,65.4,163.8,65.4,163.8,65.2z"/>
<path class="st8" d="M108.8,60.8c-0.3-0.3-0.8-0.4-1.3-0.4h-8.9c-0.9,0-1.6,0.3-2.1,0.8c-0.5,0.5-0.8,1.1-0.8,1.9L95,69.3
	c-0.1,0.7,0.2,1.4,0.8,1.9c0.6,0.5,1.3,0.8,2.3,0.8h8.3c0.5,0,1-0.1,1.4-0.4c0.4-0.3,0.6-0.7,0.7-1.1l0.2-2.6h-3.9l-0.1,1.2
	c0,0.1-0.1,0.1-0.2,0.1h-5.3c-0.2,0-0.3-0.1-0.3-0.2l0.4-4.6l-1.7-1.2h2c0,0,0,0,0,0h5.3c0.1,0,0.2,0,0.1,0.1l-0.1,1.2h3.9l0.2-2.6
	C109.3,61.4,109.1,61.1,108.8,60.8z"/>
<path class="st8" d="M153.5,60.3h-11.1c-0.8,0-1.5,0.5-1.5,1.2l-0.8,8.3c-0.1,1.1,1.1,2.1,2.4,2.1h9.9l0.3-2.8h-8.4l0.1-0.9
	l-1.2-0.9h2.6h6.2l0.2-2.3h-7.5l0.1-0.7l-1.6-1.1h1.7v0h8.4L153.5,60.3z"/>
<path class="st9" d="M138.8,61.7c-0.2-0.5-0.6-0.8-1.1-1.1c-0.5-0.3-1.1-0.4-1.9-0.4h-9.7L125,72h11c0.7,0,1.3-0.2,1.8-0.5
	c0.5-0.3,0.8-0.8,1.1-1.3c0.3-0.5,0.4-1.1,0.4-1.7c0-0.6-0.1-1.1-0.3-1.6c-0.3-0.6-0.6-1-1.2-1.3c0.2-0.2,0.4-0.4,0.6-0.7
	c0.2-0.3,0.3-0.6,0.4-1c0.1-0.4,0.1-0.7,0.1-1.1C139,62.4,138.9,62,138.8,61.7z M135.2,68.1l0,0.3c0,0.2-0.1,0.4-0.3,0.6
	c-0.2,0.2-0.5,0.2-0.8,0.2h-4.7l0.1-1.1l-1.2-0.8h1.3v0h4.7c0.5,0,0.7,0.2,0.9,0.5C135.2,67.8,135.2,67.9,135.2,68.1z M134.9,64.1
	l0-0.2c0-0.1,0-0.2-0.1-0.3c-0.2-0.4-0.5-0.5-0.9-0.5h-4v0h-1.4l1.4,1l-0.1,0.9h4c0.3,0,0.5-0.1,0.8-0.2
	C134.7,64.6,134.9,64.4,134.9,64.1z"/>
<path class="st9" d="M211.2,60c1,0,1.7,0.3,2.3,0.8c0.6,0.5,0.9,1.2,0.8,1.9l-0.6,6.5c-0.1,0.8-0.4,1.4-1,1.9
	c-0.6,0.5-1.3,0.8-2.3,0.8h-7.7c-1,0-1.7-0.3-2.4-0.8c-0.6-0.5-0.9-1.2-0.8-1.9l0.6-6.5c0.1-0.8,0.4-1.4,1-1.9
	c0.6-0.5,1.3-0.8,2.3-0.8H211.2z M209.6,68.8l0.5-5.7c0-0.1-0.1-0.2-0.2-0.2h-5.4c0,0,0,0,0,0c0,0,0,0,0,0h-2.2l1.8,1.3l-0.4,4.6
	c0,0.1,0.1,0.2,0.3,0.2h5.4C209.6,69,209.6,68.9,209.6,68.8z"/>
<path class="st8" d="M182.7,61.1c-0.6-0.5-1.5-0.8-2.5-0.8h-7.6c-1,0-1.8,0.3-2.4,0.8c-0.6,0.5-0.9,1.1-1,1.9l-0.2,1.8
	c-0.1,0.7,0.2,1.4,0.8,1.9c0.6,0.5,1.5,0.8,2.5,0.8h6.2c0.2,0,0.3,0.1,0.3,0.2l-0.1,1.3c0,0.1-0.1,0.2-0.3,0.2h-5.2
	c-0.2,0-0.3-0.1-0.3-0.2l0.1-0.7h-4.3l-0.1,1c-0.1,0.7,0.2,1.4,0.8,1.9c0.6,0.5,1.5,0.8,2.5,0.8h7.7c1,0,1.8-0.3,2.3-0.8
	c0.6-0.5,0.9-1.1,1-1.9l0.2-1.8c0.1-0.7-0.2-1.4-0.8-1.9c-0.6-0.5-1.5-0.8-2.5-0.8h-6.2c-0.2,0-0.3-0.1-0.3-0.2l0-0.4l-1.6-1.1h2
	c0,0,0,0,0,0h5.2c0.2,0,0.3,0.1,0.3,0.2l-0.1,0.7h4.3l0.1-1C183.6,62.2,183.3,61.6,182.7,61.1z"/>
<path class="st8" d="M215.1,71.9l1.1-11.6h4l-0.3,3.1l3.9-3.1h4.7l-5.4,4.2l4.7,7.4h-4.6l-3.1-5.1l-0.7,0.5l-0.4,4.6H215.1z"/>
<path class="st8" d="M195.1,60.3l-0.4,4.3h-6.2l0.4-4.3h-4.2l-1.2,11.6h4.2l0.3-3.4l-1.6-1.1h1.7h6.2l-0.4,4.4h4.2l1.2-11.6H195.1z"
	/>
<path class="st8" d="M242,60.3h-11.1c-0.8,0-1.5,0.5-1.5,1.2l-0.8,8.3c-0.1,1.1,1.1,2.1,2.4,2.1h9.9l0.3-2.8h-8.4l0.1-0.9l-1.2-0.9
	h2.6h6.2l0.2-2.3h-7.5l0.1-0.7l-1.6-1.1h1.7v0h8.4L242,60.3z"/>
</svg>
