<?xml version="1.0" encoding="utf-8"?>
<!-- Generator: Adobe Illustrator 26.0.1, SVG Export Plug-In . SVG Version: 6.00 Build 0)  -->
<svg version="1.1" id="Calque_1" xmlns="http://www.w3.org/2000/svg" xmlns:xlink="http://www.w3.org/1999/xlink" x="0px" y="0px"
	 viewBox="0 0 233.1 36" style="enable-background:new 0 0 233.1 36;" xml:space="preserve">
<style type="text/css">
	.st0{fill:#3B69B2;}
	.st1{fill:#464660;}
	.st2{fill:#FFFFFF;}
	.st3{display:none;}
	.st4{display:inline;fill:#FFFFFF;}
</style>
<path class="st0" d="M30.3,36H5.6C2.5,36,0,33.5,0,30.4V5.6C0,2.5,2.5,0,5.6,0h24.7c3.1,0,5.6,2.5,5.6,5.6v24.7
	C35.9,33.5,33.4,36,30.3,36z"/>
<path class="st1" d="M221.9,19.2c0.3,0.2,0.5,0.4,0.7,0.6V19h1.7v5.7c0,0.5-0.1,1-0.3,1.4c-0.2,0.4-0.5,0.8-0.9,1
	c-0.4,0.3-1,0.4-1.6,0.4c-0.8,0-1.5-0.2-2-0.6c-0.5-0.4-0.8-0.9-0.9-1.6h1.7c0.1,0.2,0.2,0.4,0.4,0.5c0.2,0.1,0.5,0.2,0.8,0.2
	c0.4,0,0.6-0.1,0.9-0.3c0.2-0.2,0.3-0.5,0.3-1v-0.8c-0.2,0.3-0.4,0.5-0.7,0.6c-0.3,0.2-0.6,0.2-1,0.2c-0.5,0-0.9-0.1-1.3-0.4
	c-0.4-0.2-0.7-0.6-0.9-1c-0.2-0.4-0.3-1-0.3-1.5s0.1-1.1,0.3-1.5c0.2-0.4,0.5-0.8,0.9-1c0.4-0.2,0.8-0.4,1.3-0.4
	C221.2,18.9,221.6,19,221.9,19.2z M222.2,20.8c-0.2-0.3-0.5-0.4-0.9-0.4c-0.3,0-0.6,0.1-0.9,0.4c-0.2,0.2-0.4,0.6-0.4,1
	c0,0.4,0.1,0.8,0.4,1c0.2,0.3,0.5,0.4,0.9,0.4c0.3,0,0.6-0.1,0.9-0.4c0.2-0.3,0.4-0.6,0.4-1C222.6,21.4,222.4,21.1,222.2,20.8z"/>
<path class="st1" d="M228.8,19.2c0.3,0.2,0.5,0.4,0.7,0.6V19h1.7v5.7c0,0.5-0.1,1-0.3,1.4c-0.2,0.4-0.5,0.8-0.9,1
	c-0.4,0.3-1,0.4-1.6,0.4c-0.8,0-1.5-0.2-2-0.6c-0.5-0.4-0.8-0.9-0.9-1.6h1.7c0.1,0.2,0.2,0.4,0.4,0.5c0.2,0.1,0.5,0.2,0.8,0.2
	c0.4,0,0.6-0.1,0.9-0.3c0.2-0.2,0.3-0.5,0.3-1v-0.8c-0.2,0.3-0.4,0.5-0.7,0.6c-0.3,0.2-0.6,0.2-1,0.2c-0.5,0-0.9-0.1-1.3-0.4
	c-0.4-0.2-0.7-0.6-0.9-1c-0.2-0.4-0.3-1-0.3-1.5s0.1-1.1,0.3-1.5c0.2-0.4,0.5-0.8,0.9-1c0.4-0.2,0.8-0.4,1.3-0.4
	C228.1,18.9,228.5,19,228.8,19.2z M229.1,20.8c-0.2-0.3-0.5-0.4-0.9-0.4c-0.3,0-0.6,0.1-0.9,0.4c-0.2,0.2-0.4,0.6-0.4,1
	c0,0.4,0.1,0.8,0.4,1c0.2,0.3,0.5,0.4,0.9,0.4c0.3,0,0.6-0.1,0.9-0.4c0.2-0.3,0.4-0.6,0.4-1C229.5,21.4,229.4,21.1,229.1,20.8z"/>
<path class="st1" d="M215.1,24.6c-0.6,0-1-0.5-1-1c0-0.6,0.5-1,1-1s1,0.5,1,1C216.1,24.1,215.6,24.6,215.1,24.6z"/>
<g>
	<path class="st2" d="M42,10.2v10.4c0,1.1,0.5,2.2,1.2,2.9c0.7,0.7,1.8,1.2,2.9,1.2h0.3V10.2H42z"/>
	<path class="st2" d="M55.1,25c-1.9,0-3.5-0.6-4.6-1.9c-1.1-1.3-1.7-3.2-1.7-5.6c0-2.4,0.6-4.3,1.7-5.6c1.1-1.3,2.7-1.9,4.6-1.9
		c1.6,0,2.8,0.5,3.6,1.6h0.1V5.9h4.4v18.8h-3.9L59,23.2h-0.1C57.8,24.4,56.6,25,55.1,25z M53.9,20.1c0.5,0.6,1.2,0.9,2,0.9
		c0.8,0,1.5-0.3,2-0.9c0.5-0.6,0.8-1.5,0.8-2.6c0-1.2-0.3-2-0.8-2.6c-0.5-0.6-1.2-0.9-2-0.9c-0.8,0-1.5,0.3-2,0.9
		c-0.5,0.6-0.8,1.5-0.8,2.6C53.2,18.6,53.4,19.5,53.9,20.1z"/>
	<path class="st2" d="M73.1,25c-2.4,0-4.2-0.7-5.5-2c-1.3-1.3-1.9-3.2-1.9-5.6c0-2.4,0.7-4.2,2-5.6c1.3-1.3,3.1-2,5.4-2
		c2.2,0,4,0.7,5.2,2.1c1.3,1.4,1.9,3.2,1.9,5.3l-0.1,1.5h-10c0.4,1.6,1.3,2.4,2.8,2.4c1.1,0,1.9-0.4,2.4-1.1h4.5
		c-0.1,0.6-0.4,1.1-0.7,1.6c-0.3,0.5-0.7,1-1.2,1.5c-0.5,0.5-1.2,0.9-2.1,1.2C75.1,24.8,74.2,25,73.1,25z M70.1,15.8h5.7
		c-0.1-0.6-0.5-1.1-1-1.5c-0.5-0.4-1.1-0.6-1.9-0.6c-0.8,0-1.4,0.2-1.9,0.6C70.6,14.7,70.3,15.2,70.1,15.8z"/>
	<path class="st2" d="M86.8,25c-1.6,0-2.8-0.4-3.7-1.3s-1.4-1.9-1.4-3.3c0-1.3,0.5-2.4,1.4-3.2c1-0.8,2.4-1.3,4.3-1.3h3.2v-0.5
		c0-0.5-0.2-0.9-0.5-1.2c-0.4-0.3-0.9-0.4-1.5-0.4c-0.9,0-1.5,0.3-1.9,0.9h-4.4c0.3-1.4,1-2.5,2.1-3.4c1.1-0.9,2.5-1.4,4.4-1.4
		c2,0,3.5,0.5,4.7,1.4c1.1,1,1.7,2.4,1.7,4.2v9.2h-3.9l-0.4-1.5h-0.1c-0.3,0.4-0.7,0.8-1.4,1.2C88.5,24.8,87.7,25,86.8,25z
		 M87.9,21.4c0.8,0,1.5-0.2,2-0.6c0.5-0.4,0.7-0.9,0.7-1.5v-0.3h-3c-1,0-1.5,0.4-1.5,1.2c0,0.4,0.1,0.7,0.4,0.9
		C86.9,21.3,87.3,21.4,87.9,21.4z"/>
	<path class="st2" d="M103.5,25c-1.2,0-2.2-0.1-3.1-0.4c-0.9-0.3-1.6-0.7-2-1.2c-0.5-0.5-0.9-1.1-1.1-1.6c-0.3-0.6-0.4-1.2-0.5-1.8
		h4.6c0.1,0.4,0.3,0.7,0.7,0.9c0.4,0.3,0.9,0.4,1.5,0.4c1.4,0,2.2-0.3,2.2-0.9c0-0.3-0.2-0.5-0.6-0.7c-0.4-0.2-0.9-0.3-1.5-0.4
		c-0.6-0.1-1.3-0.2-2-0.3c-0.7-0.2-1.4-0.4-2-0.7c-0.6-0.3-1.1-0.7-1.5-1.3c-0.4-0.6-0.6-1.4-0.6-2.3c0-1.3,0.5-2.4,1.6-3.3
		c1.1-0.9,2.6-1.3,4.5-1.3c2.2,0,3.8,0.5,4.8,1.4c1,0.9,1.6,2.1,1.8,3.4h-4.6c0-0.3-0.2-0.6-0.6-0.8c-0.3-0.2-0.8-0.3-1.5-0.3
		c-1.1,0-1.6,0.3-1.6,0.9c0,0.3,0.2,0.5,0.6,0.7s0.9,0.3,1.5,0.3c0.6,0.1,1.3,0.2,2,0.4c0.7,0.2,1.4,0.4,2,0.7
		c0.6,0.3,1.1,0.7,1.5,1.4c0.4,0.6,0.6,1.4,0.6,2.4c0,0.5-0.1,1-0.3,1.5c-0.2,0.5-0.5,1-1,1.5c-0.5,0.5-1.2,0.9-2.1,1.2
		C105.9,24.9,104.8,25,103.5,25z"/>
	<path class="st2" d="M125.6,30.1c-4.1,0-6.4-1.7-7-5.1h4.4c0.2,0.8,1.1,1.2,2.6,1.2c1.7,0,2.6-0.7,2.6-2.2v-1.7H128
		c-0.3,0.4-0.7,0.7-1.3,1.1c-0.6,0.4-1.3,0.5-2.2,0.5c-1.9,0-3.4-0.6-4.6-1.9c-1.2-1.3-1.7-3-1.7-5.1c0-2.1,0.6-3.8,1.8-5.1
		c1.2-1.3,2.8-1.9,4.7-1.9c1.3,0,2.6,0.5,3.6,1.6h0.1l0.4-1.3h3.8v13.9C132.6,28.1,130.2,30.1,125.6,30.1z M125.3,20
		c0.9,0,1.6-0.3,2.1-0.8c0.5-0.5,0.8-1.3,0.8-2.3c0-1-0.3-1.8-0.8-2.3c-0.5-0.5-1.2-0.8-2.1-0.8c-0.8,0-1.5,0.3-2,0.8
		c-0.5,0.5-0.7,1.3-0.7,2.3c0,1,0.2,1.7,0.7,2.3C123.8,19.7,124.5,20,125.3,20z"/>
	<path class="st2" d="M139.8,25c-1.6,0-2.8-0.4-3.7-1.3s-1.4-1.9-1.4-3.3c0-1.3,0.5-2.4,1.4-3.2c1-0.8,2.4-1.3,4.3-1.3h3.2v-0.5
		c0-0.5-0.2-0.9-0.5-1.2c-0.4-0.3-0.9-0.4-1.5-0.4c-0.9,0-1.5,0.3-1.9,0.9h-4.4c0.3-1.4,1-2.5,2.1-3.4c1.1-0.9,2.5-1.4,4.4-1.4
		c2,0,3.5,0.5,4.7,1.4c1.1,1,1.7,2.4,1.7,4.2v9.2h-3.9l-0.4-1.5h-0.1c-0.3,0.4-0.7,0.8-1.4,1.2C141.5,24.8,140.7,25,139.8,25z
		 M140.9,21.4c0.8,0,1.5-0.2,2-0.6c0.5-0.4,0.7-0.9,0.7-1.5v-0.3h-3c-1,0-1.5,0.4-1.5,1.2c0,0.4,0.1,0.7,0.4,0.9
		C139.9,21.3,140.3,21.4,140.9,21.4z"/>
	<path class="st2" d="M150.9,24.7V10.2h3.9l0.4,1.5h0.1c0.8-1.2,1.9-1.7,3.2-1.7c0.6,0,1.2,0.1,1.7,0.3c0.5,0.2,0.9,0.4,1.2,0.7
		c0.3,0.3,0.5,0.5,0.7,0.7c0.2,0.2,0.3,0.4,0.3,0.5h0.1c0.1-0.2,0.3-0.4,0.5-0.7c0.2-0.3,0.7-0.6,1.4-1c0.7-0.3,1.4-0.5,2.3-0.5
		c1.4,0,2.6,0.5,3.7,1.5c1,1,1.6,2.4,1.6,4.3v9h-4.4v-8.2c0-0.8-0.2-1.5-0.5-1.9c-0.4-0.4-0.9-0.6-1.5-0.6c-0.6,0-1,0.2-1.4,0.6
		c-0.3,0.4-0.5,1.1-0.5,1.9v8.2h-4.4v-8.2c0-0.8-0.2-1.5-0.5-1.9c-0.4-0.4-0.9-0.6-1.5-0.6c-0.6,0-1,0.2-1.4,0.6
		c-0.3,0.4-0.5,1.1-0.5,1.9v8.2H150.9z"/>
	<path class="st2" d="M174.8,24.7V10.2h4.4v14.5H174.8z"/>
	<path class="st2" d="M182.2,24.7V10.2h3.9l0.4,1.5h0.1c1-1.2,2.3-1.7,3.9-1.7c1.4,0,2.6,0.5,3.6,1.5c1,1,1.5,2.5,1.5,4.4v8.9h-4.4
		v-8.2c0-0.8-0.2-1.4-0.6-1.9c-0.4-0.4-1-0.7-1.7-0.7c-0.7,0-1.2,0.2-1.7,0.7s-0.6,1.1-0.6,1.9v8.2H182.2z"/>
	<path class="st2" d="M209.5,10.2h-1.1l-0.4,1.3h-0.1c-1.1-1.1-2.3-1.6-3.6-1.6c-0.1,0-0.2,0-0.3,0c-1.8,0.1-3.2,0.7-4.4,1.9
		c-1.2,1.3-1.8,3-1.8,5.1c0,2.2,0.6,3.9,1.7,5.1c1.2,1.2,2.7,1.9,4.6,1.9c0.8,0,1.5-0.2,2.2-0.5c0.6-0.3,1.1-0.7,1.3-1.1h0.1V24
		c0,1.4-0.9,2.2-2.6,2.2c-1.5,0-2.3-0.4-2.6-1.2h-4.4c0.6,3.4,2.9,5.1,7,5.1c4.7,0,7-2,7-6.1V14C212.2,12.3,211.1,10.8,209.5,10.2z
		 M207,19.2c-0.5,0.5-1.2,0.8-2.1,0.8c-0.8,0-1.5-0.3-2-0.8c-0.5-0.5-0.7-1.3-0.7-2.3c0-1,0.2-1.7,0.7-2.3c0.3-0.3,0.6-0.5,1-0.7
		c0.3-0.1,0.6-0.1,0.9-0.1c0.9,0,1.6,0.3,2.1,0.8c0.5,0.5,0.7,1.3,0.7,2.3c0,0.5,0,0.9-0.2,1.2C207.5,18.6,207.3,18.9,207,19.2z"/>
</g>
<g id="Blazon" class="st3">
	<path class="st4" d="M-102.8-308.5l-76.9,63.6l-109-90.1c-1.2,4.5-2.5,8.9-3.8,13.4l112.8,93.2l81.5-67.4c-0.1-0.4-0.3-0.8-0.4-1.2
		C-99.8-300.9-101.2-304.7-102.8-308.5z"/>
	<path class="st4" d="M-12.3-366.8l-167.4,138.4l-167.4-138.4v-191.2l167.4-68.1l167.4,68.1 M-334.4-551v178.2l154.7,127.9
		L-25-372.8V-554l-154.7-55.1L-334.4-551z"/>
</g>
<g id="Loup">
	<path class="st2" d="M31.3,29c0-0.2,0.1-0.4,0.1-0.6c0.3-0.8,0.7-2,0.7-3.2c0,0-0.1,0.8-0.5,1.2c0,0,0-0.1,0-0.1
		c0.2-0.5,0.6-2,0-3.2c0,0,0.3,1-0.2,1.7c0,0-0.1,0.1-0.1,0.1c0,0,0-0.1,0-0.3c0-0.4,0-1.2-0.5-1.7c0,0,0.2,0.6,0,1.1
		c-0.3-0.3-0.6-0.5-1-0.5c0.7-2.9-1.1-4.5-1.8-4.9c0.2-0.7,0.3-1.2,0.3-1.6c1.1,1.2,1.1,2.6,1.1,2.6c0.3-2.2-1.2-4.2-1.6-4.8
		l0.7,0.3L28.4,15c1,0.8,1.1,2.1,1.1,2.1c0.1-1.6-0.8-3-1.4-3.7c0-0.1-0.1-0.3-0.2-0.4c0.8,0.4,1.3,1.1,1.5,1.9
		c0-1.9-1.6-3.1-2.3-3.6c0.5,0,1.1,0,1.6,0.2c-0.5-1.5-3.7-2.6-3.7-2.6S26,8.7,27,9.1c0-0.2-2.9-1.5-2.9-1.5s0.8-0.4,1.7-0.1
		c-0.3-0.4-3-1.2-3-1.2s0.5-0.2,1.1-0.1c-1.1-1.3-2.9-0.6-3.7-1.1c-0.3-0.3-1.3-1.4-1.3-1.4l-0.2-0.3l-0.4-0.5c0,0-1-0.3-1.7,0
		c-0.1,0.1,0,0-0.1,0.3c0,0.2,0.1,0.4,0.2,0.5l-0.1-0.1l-0.2,1.4l0,0.3v0L16,6.3l-0.3,0l-0.5,1.4c0,0,0.4,1.2,0.7,1.3
		c-0.1-0.1,0-0.6,0-0.6s0.2,0.8,0.6,1.1c-0.3-0.4-0.1-0.9-0.1-0.9s0.6,0.7,0.5,1.3c0,0.1-0.1,0.2-0.1,0.3c0,0,0,0,0,0
		c-0.5,0.8-2.4,1.3-3.1,2.7c0.6-0.5,1.3-0.6,1.7-0.5c0,0,0,0,0,0s-2.2,0.6-3.3,2.5c0.3-0.2,0.5-0.2,0.7-0.2c0,0,0,0-0.1,0.1
		c0,0,0,0,0,0c-0.5,0.3-1.2,0.9-1.4,2.2c0,0,0.1-0.4,0.4-0.6l0,0c-0.1,0.2-0.4,1-0.2,1.7c0,0,0-0.4,0.2-0.7c0,0-0.1,0.5,0.1,0.9
		c-0.8,1.1-1,2.1-1,2.4c-0.3,0-1.1,0-1.8,0.5c0,0,0.7-0.2,1.2-0.1c0,0,0,0,0,0c0,0,0,0-0.1,0c-0.4,0.1-1.9,0.5-2.5,1.3
		c0,0,0.7-0.5,1.3-0.4c-0.1,0.1-0.2,0.2-0.2,0.3c-0.5,0.3-1.2,0.8-1.7,1.5c0,0,0.4-0.4,0.9-0.5c-0.5,0.8-1,1.5-1,1.5L6.2,25
		l-1.6-0.2l-0.8,0.6l0,0.6l-0.7,0.4c0,0-0.2,0.5,0,0.7c0.1,0.2,0.6,0.3,0.6,0.3s0.1,0.6,0.3,0.7c0.1,0.1,0.5,0.1,0.5,0.1
		s0,0.3,0.1,0.5C4.7,28.9,5.2,29,5.2,29s0.3,0.4,0.4,0.4c0.1,0,0.5-0.1,0.5-0.1s1.2-0.9,1.8-2.3c0.1-0.1,0.5-0.3,1.1-0.6
		C8.9,26.8,8.8,27,8.7,27c0.6-0.3,1.1-0.9,1.4-1.2c0.1,0,0.1-0.1,0.2-0.1c-0.2,0.5-0.7,0.9-0.7,0.9c0.8-0.4,1.4-0.9,2-1.5
		c0,0.4-0.4,0.9-0.4,1c1.2-0.8,1.5-1.8,1.6-2.1c0,0,0,0,0,0c0,0,0,0,0,0c0.2,0.2,0.2,0.5,0.1,0.8c0.5-1,0.6-1.7,0.6-2
		c0.1,0,0.2,0,0.3,0c0,0.4-0.1,1.3,0.1,1.8c0,0,0-0.1,0.2-0.4c0,0,0-0.1,0.1-0.1c0,0,0,0.1,0,0.3c0,0.4,0,1.1,0.2,1.6
		c0-0.2,0.1-0.5,0.2-0.7c0.3,0.7,0.6,1.4,0.6,1.4l5.1,3.5l2.2-1.2l0.3-3.3c0.2,0.1,0.2,0.3,0.2,0.3C23,25.5,23,25.2,23,25
		c0.1-0.2,0.1-0.3,0.2-0.5c0,0.2,0,0.5-0.1,0.7c0.6-1.1,0.6-2,0.6-2c0.3,0.3,0.2,0.9,0.2,0.9c0.1-0.3,0.2-0.6,0.3-0.8
		c0,0.4,0,0.8,0.2,1c0,0,0-0.5,0.2-0.9c0,0.1,0.1,0.2,0.2,0.3c0,0.5,0,1.2,0.5,1.6c0,0-0.2-0.5-0.1-1c0.1,0.1,0.2,0.2,0.2,0.3
		c0,0.3,0.1,0.7,0.3,0.9c0,0-0.1-0.3,0-0.6l0.7,0.6c0,0-0.2,0.8-0.1,1.5c0.1,0.7,1.4,2.8,1.4,2.8l0.1,0.7l-0.4,0.2l0,0
		c-0.2-0.2-0.6,0.2-0.6,0.2l-0.1,0.2l0,0c0,0-0.4,0.8-0.4,1.1c0.1,0.4,0.6,1.2,0.6,1.2s0.6,0.3,0.8,0.3c0.2,0,0.3-0.3,0.3-0.3
		l0.7,0.1l0.4-0.3l0.4,0l0.4-0.3l0-0.3c0,0,0.5,0.1,0.7-0.1c0.1-0.1,0.2-0.3,0.2-0.5c0.2-0.4,0.5-1.1,0.7-2.1c0,0-0.4,0.8-0.8,1.1
		l0-0.1c0.3-0.5,1.1-2.1,1.2-3.4C32.1,27.6,31.8,28.5,31.3,29z M20.9,6.5l-0.2-0.4l0.5,0l0.4,0.5L20.9,6.5z"/>
</g>
</svg>
