<svg width="20" height="20" viewBox="0 0 20 20" fill="none" xmlns="http://www.w3.org/2000/svg">
<path d="M11.0352 0.0532654C10.6914 0.0186307 10.3461 0.00138957 10.0007 0.00154214H9.99032C9.41861 0.0110019 8.9615 0.479715 8.96638 1.05157V5.17356C8.965 5.31241 8.99323 5.44988 9.04907 5.57698C9.22805 6.00297 9.66869 6.25777 10.127 6.20055C10.6565 6.12121 11.0449 5.66181 11.0352 5.12672V2.13929C14.8978 2.6463 17.8208 5.88274 17.9328 9.77694C18.0448 13.6711 15.3128 17.0704 11.4857 17.7985C7.65865 18.5267 3.86912 16.3684 2.54323 12.7052C1.21735 9.04198 2.74738 4.95813 6.15394 3.06802C6.60679 2.81154 6.79629 2.25677 6.59489 1.77692L6.59367 1.77402C6.48076 1.50106 6.25678 1.28944 5.97787 1.19194C5.69912 1.0946 5.39198 1.12084 5.13367 1.26396C0.823548 3.6655 -1.09052 8.85202 0.626115 13.4777C2.3426 18.1035 7.17681 20.7856 12.0101 19.794C16.8434 18.8024 20.2311 14.4336 19.9876 9.5055C19.7442 4.5776 15.9426 0.563785 11.0352 0.0532654Z" fill="#6080FF"/>
<path d="M6.22269 6.67796C6.63877 7.77361 8.00005 10.3605 9.01834 11.462C9.64436 12.1687 10.7133 12.2633 11.4538 11.6777C11.8242 11.3669 12.0471 10.915 12.0685 10.4319C12.0897 9.94904 11.9071 9.47926 11.5654 9.13719C10.5005 8.07236 7.79758 6.66148 6.66425 6.23122C6.5373 6.18346 6.39403 6.21489 6.29852 6.31132C6.20316 6.4079 6.17341 6.55148 6.22269 6.67796Z" fill="#6080FF"/>
</svg>
