<svg width="15" height="16" viewBox="0 0 15 16" fill="none" xmlns="http://www.w3.org/2000/svg">
<path d="M7.5 0.5C3.36439 0.5 0 3.86439 0 8C0 12.1356 3.36439 15.5 7.5 15.5C11.6356 15.5 15 12.1356 15 8C15 3.86437 11.6356 0.5 7.5 0.5ZM7.5 14C4.19165 14 1.5 11.3083 1.5 8C1.5 4.69165 4.19165 2 7.5 2C10.8083 2 13.5 4.69165 13.5 8C13.5 11.3083 10.8083 14 7.5 14ZM10.4528 5.9624C10.6765 7.23682 10.0712 8.50903 8.94618 9.12904C8.66493 9.28396 8.44852 9.51102 8.33681 9.76772C8.21411 10.0504 7.93837 10.2193 7.64871 10.2193C7.54872 10.2193 7.44729 10.1991 7.35023 10.1566C6.97011 9.99148 6.79617 9.54983 6.96132 9.17006C7.20448 8.61049 7.65237 8.12929 8.22255 7.81508C8.79457 7.50014 9.09009 6.87465 8.97548 6.22171C8.87186 5.63176 8.3683 5.1282 7.77835 5.02455C7.32425 4.9451 6.88187 5.06044 6.53616 5.35048C6.19559 5.63686 6.00003 6.0558 6.00003 6.50003C6.00003 6.9142 5.6642 7.25003 5.25003 7.25003C4.83586 7.25003 4.50003 6.91423 4.50003 6.50003C4.50003 5.61122 4.89076 4.77371 5.57156 4.20169C6.25198 3.63005 7.15028 3.3909 8.03763 3.54726C9.24721 3.75963 10.2404 4.75282 10.4528 5.9624V5.9624ZM8.25 11.75C8.25 12.1642 7.91423 12.5 7.5 12.5C7.08577 12.5 6.75 12.1642 6.75 11.75C6.75 11.3358 7.08577 11 7.5 11C7.91423 11 8.25 11.3358 8.25 11.75Z" fill="#EBB667"/>
</svg>
