<svg width="15" height="16" viewBox="0 0 15 16" fill="none" xmlns="http://www.w3.org/2000/svg">
<path d="M7.5 0.5C3.36439 0.5 0 3.86439 0 8C0 12.1356 3.36439 15.5 7.5 15.5C11.6356 15.5 15 12.1356 15 8C15 3.86437 11.6356 0.5 7.5 0.5ZM7.5 14C4.19165 14 1.5 11.3083 1.5 8C1.5 4.69165 4.19165 2 7.5 2C10.8083 2 13.5 4.69165 13.5 8C13.5 11.3083 10.8083 14 7.5 14ZM8.25 5C8.25 5.41417 7.91423 5.75 7.5 5.75C7.08577 5.75 6.75 5.4142 6.75 5C6.75 4.58577 7.08577 4.25 7.5 4.25C7.91423 4.25 8.25 4.58577 8.25 5ZM8.25 7.25V11C8.25 11.4142 7.9142 11.75 7.5 11.75C7.08583 11.75 6.75 11.4142 6.75 11V7.25C6.75 6.83583 7.08583 6.5 7.5 6.5C7.9142 6.5 8.25 6.8358 8.25 7.25Z" fill="#EBB667"/>
</svg>
