<svg width="32" height="32" viewBox="0 0 32 32" fill="none" xmlns="http://www.w3.org/2000/svg">
<path fill-rule="evenodd" clip-rule="evenodd" d="M25 11.3334C25 16.1199 20.9706 20.0001 16 20.0001C11.0294 20.0001 7 16.1199 7 11.3334C7 6.54695 11.0294 2.66675 16 2.66675C20.9706 2.66675 25 6.54695 25 11.3334ZM22 21.4133C22 20.9199 21.4933 20.5866 21.0533 20.8133C19.5333 21.5733 17.8133 21.9999 16 21.9999C14.1867 21.9999 12.48 21.5733 10.9733 20.8133C10.5467 20.5999 10.0267 20.9199 10.0267 21.4133L10 27.8666C10 29.0666 10.84 29.6533 11.88 29.1733L15.4533 27.4799C15.76 27.3466 16.24 27.3466 16.5467 27.4799L20.12 29.1733C21.16 29.6666 22 29.0799 22 27.8799V21.4133Z" fill="#C8D8EE"/>
</svg>
