<svg id="Calque_1" data-name="Calque 1" xmlns="http://www.w3.org/2000/svg" viewBox="0 0 512 410.35176"><defs><style>.cls-1{opacity:0.4;}</style></defs><path class="cls-1" d="M312.84507,149.18289c-22.46517,17.55923-36.23864,38.9806-43.89826,64.7792-1.2395,4.17469-6.64515,7.82528-10.95112,10.25589-19.321,10.90628-29.0479,27.71447-28.32284,49.26059.739,21.96177,12.89528,37.81778,33.287,45.60767,9.31415,3.55821,20.04028,3.4232,28.72868,4.74988-6.21363,18.88562-12.89528,39.19367-19.85511,60.34722-2.19313.108-5.34406.39705-8.49515.39842q-89.44281.03929-178.88562.00288c-24.71094-.01926-33.27707-8.76622-33.2854-33.74282q-.01839-55.14408-.0009-110.28817c.00007-3.50576,0-7.01152,0-13.35862-6.4305,4.94191-11.03236,8.35524-15.49873,11.93735-8.55437,6.86081-13.94624,6.58262-21.1365-1.25478-19.6889-21.461-19.7166-21.49244,2.04083-40.68543Q94.0389,128.85591,171.56557,60.58734C184.64132,49.07852,197.308,47.331,209.15475,57.56057,243.69265,87.38385,277.59615,117.94129,312.84507,149.18289ZM140.20678,282.22647c8.555,0,17.11009-.01664,25.665.00445,9.3269.023,13.79255-5.109,13.92135-13.92635.23939-16.38732.14059-32.78089.05418-49.17118-.0497-9.43-4.67959-14.66375-14.39842-14.68648-16.75343-.03914-33.50706.0132-50.26052-.01808-8.78164-.0164-13.56129,4.84442-13.7637,13.05644-.43,17.44353-.34818,34.91293.07314,52.35845.20726,8.58278,5.48858,12.59283,14.1139,12.42317C123.80715,282.10562,132.00822,282.23216,140.20678,282.22647Z" transform="translate(0 -50.82412)"/><path d="M342.501,242.95838c-2.18031,2.52662-3.28242,3.21429-3.44715,4.08009-5.23405,27.51631-26.74212,37.99893-49.47767,46.88629a23.41933,23.41933,0,0,1-29.399-10.84717c-6.01744-11.74717-4.05511-27.54171,7.26894-32.08739,20.05444-8.05017,26.45511-23.93281,33.17592-42.169,13.48607-36.593,46.48654-56.8153,86.97683-54.185,30.87459,2.00571,58.688,14.43872,84.63118,30.5092,15.66628,9.70444,22.6525,26.38539,28.363,43.00455,3.74031,10.88534-2.60152,22.40322-13.25425,27.47746-11.05611,5.26634-23.60431,2.22944-30.545-7.49253a24.25684,24.25684,0,0,1-3.74-6.4554c-5.761-18.39817-21.30405-23.30264-39.634-28.6288,3.92934,16.22875,7.40452,30.91876,11.05566,45.56492,3.50335,14.05328,2.94413,27.62111-4.605,40.33656a59.90818,59.90818,0,0,1-6.96312,9.43207c-11.46189,12.72938-22.41693,26.0126-34.78836,37.80268-17.86252,17.023-27.52317,37.56888-31.52153,61.54376-1.87126,11.22038-5.12051,22.22953-8.07119,33.24718-3.9961,14.92112-17.07891,22.99767-30.76039,19.31188C294.32964,456.67,286.692,443.74744,290.108,429.37807c5.60473-23.5758,10.271-47.50585,17.976-70.39764,4.02888-11.96994,13.12449-22.47071,20.95938-32.86073,8.09468-10.73459,21.93942-19.37518,24.94106-31.06794,2.89833-11.29059-4.80451-25.30931-7.88857-38.12037C345.11583,252.86025,344.01329,248.81861,342.501,242.95838Z" transform="translate(0 -50.82412)"/><path d="M437.15977,322.23059c1.63394,2.41431,2.56109,3.22119,2.77936,4.188,7.9693,35.29891,31.57914,59.79636,57.12311,83.01157a68.71487,68.71487,0,0,1,9.34026,10.261c7.96,10.92983,7.32182,24.48176-1.22272,33.31428-8.56551,8.85427-23.80878,11.54654-33.03782,2.20148-25.50635-25.82694-57.246-46.8255-68.71609-84.30538-1.89037-6.177-1.93136-10.33493,2.85444-15.19022C416.70344,345.1368,426.46615,333.91181,437.15977,322.23059Z" transform="translate(0 -50.82412)"/><path d="M383.76506,89.31649c-.03222,21.516-16.62653,37.87217-38.18824,37.64024-20.71863-.22285-37.04488-16.98533-36.972-37.95984C308.678,67.961,326.20533,50.65248,346.995,51.08609,367.53485,51.51448,383.79636,68.42184,383.76506,89.31649Z" transform="translate(0 -50.82412)"/></svg>