<svg id="Calque_1" data-name="Calque 1" xmlns="http://www.w3.org/2000/svg" viewBox="0 0 512 512"><defs><style>.cls-1{opacity:0.4;}</style></defs><path d="M13.71429,182.85714H155.42857a27.36272,27.36272,0,0,0,27.42857-27.42857V13.71429A13.75459,13.75459,0,0,0,169.14286,0H123.42857a13.75464,13.75464,0,0,0-13.71428,13.71429v96h-96A13.75459,13.75459,0,0,0,0,123.42857v45.71429A13.75464,13.75464,0,0,0,13.71429,182.85714Z" transform="translate(0)"/><path class="cls-1" d="M498.28571,109.71429h-96v-96A13.75459,13.75459,0,0,0,388.57143,0H342.85714a13.75464,13.75464,0,0,0-13.71428,13.71429V155.42857a27.36276,27.36276,0,0,0,27.42857,27.42857H498.28571A13.75459,13.75459,0,0,0,512,169.14286V123.42857A13.75455,13.75455,0,0,0,498.28571,109.71429Z" transform="translate(0)"/><path d="M498.28571,329.14286H356.57143a27.36276,27.36276,0,0,0-27.42857,27.42857V498.28571A13.75464,13.75464,0,0,0,342.85714,512h45.71429a13.75459,13.75459,0,0,0,13.71428-13.71429v-96h96A13.75459,13.75459,0,0,0,512,388.57143V342.85714A13.75455,13.75455,0,0,0,498.28571,329.14286Z" transform="translate(0)"/><path class="cls-1" d="M13.71429,402.28571h96v96A13.75459,13.75459,0,0,0,123.42857,512h45.71429a13.75464,13.75464,0,0,0,13.71428-13.71429V356.57143a27.36276,27.36276,0,0,0-27.42857-27.42857H13.71429A13.75459,13.75459,0,0,0,0,342.85714v45.71429A13.75455,13.75455,0,0,0,13.71429,402.28571Z" transform="translate(0)"/></svg>