<svg id="Calque_1" data-name="Calque 1" xmlns="http://www.w3.org/2000/svg" viewBox="0 0 512 409.28902"><defs><style>.cls-1{opacity:0.4;}</style></defs><path class="cls-1" d="M48.88026,228.43679c-4.27252,3.51849-8.43621,7.18214-12.86,10.49886-2.49747,1.87246-5.39145,4.45188-8.16073,4.52-15.04343.36976-18.7374-13.631-25.95975-22.44844-5.1655-6.30634,1.32127-11.74443,6.15824-16.01521q66.81028-58.99,133.69616-117.89433c10.4092-9.175,20.74354-18.43768,31.273-27.47267,12.38164-10.62427,25.3012-11.23179,37.57947-.54141,31.66465,27.56959,62.918,55.61181,94.30008,83.50532a38.49029,38.49029,0,0,1,3.66361,4.52821c-1.41186,1.06762-2.335,2.13913-3.49866,2.5912-31.1665,12.107-49.44269,36.38219-60.96551,66.24558-7.069,18.32051-3.4695,35.99506,9.28594,50.97474,14.09722,16.55547,32.70526,20.16843,53.30963,16.44289,2.66492-.48188,5.2907-1.18013,9.685-2.17407-1.03043,4.33917-1.388,7.35366-2.45428,10.09215-7.3524,18.88292-12.99938,38.76014-22.903,56.21292-7.661,13.5007-20.55838,24.08891-31.54541,35.57228-1.49343,1.56092-5.41684,1.066-8.21549,1.06847q-84.89266.0756-169.78527-.02244c-20.36087-.057-29.949-9.9689-29.98736-30.37827q-.1065-56.60127-.01992-113.20289V230.03312Zm91.24644,53.62147c8.17531,0,16.35252.11124,24.52546-.02779,10.5591-.17958,14.95277-4.30061,15.10631-14.79882.234-15.99345.10882-31.99308.04254-47.98971-.03883-9.373-4.506-14.73888-14.22938-14.77892-16.70573-.06881-33.412.01621-50.1179-.03807-8.72194-.02835-13.62781,4.67416-13.843,12.89941-.45527,17.40155-.35853,34.83011.03262,52.23588.19161,8.52652,5.31448,12.67623,13.95793,12.52565C123.77413,281.94353,131.95138,282.05529,140.1267,282.05826Z" transform="translate(0 -51.35549)"/><path d="M355.2344,213.42228c-17.903,4.66236-32.2555,10.25086-39.467,28.3231-6.38359,15.99732-21.45814,20.5623-34.85193,13.06429-10.79476-6.043-15.44394-17.483-11.30849-29.20689,8.84958-25.08867,24.40351-43.29945,50.2822-52.97769,23.04077-8.6169,45.32651-18.67084,70.7061-18.20987,34.31119.62321,65.28635,21.67782,77.82687,53.72854,1.42483,3.64155,3.08249,7.27053,3.88381,11.06346,2.83639,13.42619,9.96262,22.27422,23.04246,28.04722,15.953,7.04112,20.4164,21.13447,13.50584,35.11343-6.37817,12.90183-19.8981,15.59034-35.89637,8.83221-21.88341-9.24415-39.98424-21.539-43.53757-48.35116q-1.689.66523-3.37811,1.33042c-4.34515,16.63481-8.92107,33.2168-12.75586,49.96846-.50355,2.19954,2.37313,5.64323,4.39134,7.86953,9.32247,10.28372,19.6914,19.72732,28.12178,30.67619,6.5546,8.51276,12.55784,18.25582,15.71277,28.41311,6.52789,21.01641,11.06744,42.65534,16.28733,64.07176,4.3326,17.77619-2.32958,31.002-17.25923,34.70145-14.097,3.493-26.34233-5.16735-30.74446-22.16621-4.27936-16.52465-7.19068-33.4824-12.62588-49.60134a99.7279,99.7279,0,0,0-16.426-30.41092c-14.08917-17.40176-29.93405-33.37478-44.90255-50.07346C344.419,294.8853,339.863,280.15863,343.93922,263.19713c3.15791-13.14027,6.36882-26.268,9.47587-39.42022C354.11539,220.81251,354.48217,217.76929,355.2344,213.42228Z" transform="translate(0 -51.35549)"/><path d="M331.81027,321.55186c11.69109,12.80335,22.40343,24.1823,32.59577,36.00943,1.92229,2.23054,3.28088,6.804,2.33862,9.34727-6.42377,17.33878-13.33557,34.30713-27.747,47.2792-12.4061,11.167-23.52332,23.75692-35.37276,35.55456-12.31161,12.25773-28.57145,13.45063-38.97864,3.10737-10.22614-10.16342-8.94887-26.69051,3.05676-39.051,3.47077-3.57332,6.817-7.30962,10.58757-10.54284,23.66458-20.29157,42.47446-43.789,50.274-74.7499C329.05722,326.5507,330.27784,324.77891,331.81027,321.55186Z" transform="translate(0 -51.35549)"/><path d="M459.98487,89.71278c-.06738,20.99666-16.42471,37.65347-36.74877,37.42163-21.90992-.24994-37.91429-16.04009-37.98331-37.4749-.06823-21.19539,16.61746-38.21992,37.45572-38.21637C443.61365,51.4467,460.05353,68.32463,459.98487,89.71278Z" transform="translate(0 -51.35549)"/></svg>