<?xml version="1.0" encoding="utf-8"?>
<!-- Generator: Adobe Illustrator 26.0.1, SVG Export Plug-In . SVG Version: 6.00 Build 0)  -->
<svg version="1.1" id="Calque_1" xmlns="http://www.w3.org/2000/svg" xmlns:xlink="http://www.w3.org/1999/xlink" x="0px" y="0px"
	 viewBox="0 0 512 512" style="enable-background:new 0 0 512 512;" xml:space="preserve">
<style type="text/css">
	.st0{opacity:0.4;enable-background:new    ;}
</style>
<path d="M448,192H64c-35.3,0-64,28.7-64,64v96c0,17.7,14.3,32,32,32h96v-32h256v32h96c17.7,0,32-14.3,32-32v-96
	C512,220.7,483.3,192,448,192z M432,296c-13.2,0-24-10.8-24-24c0-13.3,10.8-24,24-24s24,10.7,24,24C456,285.3,445.3,296,432,296z"/>
<path class="st0" d="M384,448H128v-64H64v96c0,17.7,14.3,32,32,32h320c17.7,0,32-14.3,32-32v-96h-64V448z M438.6,54.6L393.4,9.4
	c-6-6-14.1-9.4-22.6-9.4H96C78.3,0,64,14.3,64,32v160h64V64h229.5L384,90.5V192h64V77.2C448,68.8,444.6,60.6,438.6,54.6z"/>
</svg>
