<svg id="Calque_1" data-name="Calque 1" xmlns="http://www.w3.org/2000/svg" viewBox="0 0 512 512"><defs><style>.cls-1{opacity:0.4;}</style></defs><path class="cls-1" d="M390.79,390.79A190.27709,190.27709,0,0,1,256,446.85C151.03,446.85,65.15,360.97,65.15,256A190.62209,190.62209,0,0,1,390.79,121.21a192.56338,192.56338,0,0,1,33,44.12h71.53A256.04272,256.04272,0,0,0,0,256C0,396.8,115.2,512,256,512a255.21328,255.21328,0,0,0,180.8-75.2q6.795-6.795,13.07-14.07l-51.28-40.21Q394.81,386.765,390.79,390.79Z"/><path d="M512,9.43v218a9.42746,9.42746,0,0,1-9.43,9.43H283.33a8.19411,8.19411,0,0,1-8.19-8.19V173.52a8.19414,8.19414,0,0,1,8.19-8.19H440.47V9.43A9.42751,9.42751,0,0,1,449.9,0h52.67A9.42746,9.42746,0,0,1,512,9.43Z"/></svg>