<?xml version="1.0" encoding="utf-8"?>
<!-- Generator: Adobe Illustrator 26.0.1, SVG Export Plug-In . SVG Version: 6.00 Build 0)  -->
<svg version="1.1" id="Слой_3" xmlns="http://www.w3.org/2000/svg" xmlns:xlink="http://www.w3.org/1999/xlink" x="0px" y="0px"
	 viewBox="0 0 11.2 13" style="enable-background:new 0 0 11.2 13;" xml:space="preserve">
<style type="text/css">
	.st0{fill:#272727;}
	.st1{fill:#9933FF;}
	.st2{fill:#FFFFFF;}
</style>
<path class="st0" d="M0,3.2C1.9,2.2,3.7,1.1,5.6,0c1.9,1.1,3.7,2.2,5.6,3.2v6.5L5.6,13L0,9.8V3.2z"/>
<path class="st1" d="M5.6,1.4c0-0.5,0-0.9,0-1.4c1.9,1.1,3.7,2.2,5.6,3.2v6.5L5.6,13L0,9.8c0-2.2,0-4.4,0-6.5
	c0.4,0.2,0.8,0.4,1.2,0.7c0,1.7,0,3.5,0,5.2l4.5,2.5l4.5-2.5V3.9C8.6,3.1,7.1,2.2,5.6,1.4z"/>
<path class="st1" d="M1.2,3.9c1.5-0.9,3-1.7,4.5-2.6c0-0.5,0-0.9,0-1.4L0,3.2L1.2,3.9z"/>
<polygon class="st2" points="1.7,5.6 2.5,5.4 2.5,9 4.3,9 4.3,3.9 3,3.9 1.5,4.3 1.4,4.3 "/>
<path class="st2" d="M4.7,6.6c0-0.1-0.1-1.5,1-2.3c0.6-0.4,1.2-0.5,1.4-0.5c0.2,0,0.9,0,1.5,0.4c1.1,0.8,0.9,2.2,0.9,2.3
	c0,0.1,0,1.3-0.9,2.1C8.1,9.1,7.5,9.1,7.3,9.1c-0.1,0-1.1,0.1-1.8-0.6C4.6,7.8,4.7,6.8,4.7,6.6z"/>
<path class="st0" d="M7.1,5.3c0,0,0.1,0,0.2,0c0.2,0.1,0.3,0.2,0.3,0.2c0,0.1,0.1,0.2,0.1,0.4c0,0.2,0.1,0.4,0.1,0.6
	c0,0.4,0,0.5-0.1,0.8C7.7,7.4,7.6,7.6,7.4,7.7c-0.1,0-0.2,0.1-0.2,0c-0.1,0-0.2,0-0.3-0.1C6.6,7.6,6.6,7.4,6.5,7.2
	C6.4,7,6.4,6.9,6.4,6.5c0-0.4,0.1-0.6,0.1-0.7c0-0.1,0.1-0.2,0.1-0.2c0,0,0.1-0.3,0.4-0.3C7,5.3,7.1,5.3,7.1,5.3z"/>
</svg>
