<?xml version="1.0" encoding="utf-8"?>
<!-- Generator: Adobe Illustrator 26.0.1, SVG Export Plug-In . SVG Version: 6.00 Build 0)  -->
<svg version="1.1" id="Слой_3" xmlns="http://www.w3.org/2000/svg" xmlns:xlink="http://www.w3.org/1999/xlink" x="0px" y="0px"
	 viewBox="0 0 11.2 13" style="enable-background:new 0 0 11.2 13;" xml:space="preserve">
<style type="text/css">
	.st0{fill:#272727;}
	.st1{fill:#FFCC4C;}
	.st2{fill:#FFFFFF;}
</style>
<path class="st0" d="M0,3.2C1.9,2.2,3.7,1.1,5.6,0c1.9,1.1,3.7,2.2,5.6,3.2v6.5L5.6,13L0,9.8V3.2z"/>
<polygon class="st1" points="5.6,1.4 5.6,0 11.2,3.2 10.1,3.9 "/>
<path class="st2" d="M4.4,5.8l-1-1c0.2-0.2,0.6-0.5,1.1-0.7c0.7-0.3,1.4-0.2,1.7-0.2C6.3,4,7,4,7.5,4.7c0.2,0.2,0.2,0.5,0.3,0.6
	c0,0.3,0,0.5-0.1,0.6C7.6,6.3,7.4,6.5,7.2,6.7C7.1,6.8,6.9,6.9,6.8,7C6.5,7.2,6.1,7.5,5.8,7.8c0.7,0,1.4,0,2,0c0,0.4,0,0.9,0,1.3
	c-1.4,0-2.9,0-4.3,0V7.9c0.7-0.5,1.4-1.1,2.1-1.6c0,0,0.1-0.1,0.2-0.1C5.8,6,5.9,6,5.9,5.9c0,0,0.1-0.2,0.1-0.4
	c0-0.1-0.2-0.2-0.2-0.2c0,0-0.1-0.1-0.3,0C5.2,5.3,5,5.4,4.8,5.5C4.7,5.6,4.5,5.7,4.4,5.8z"/>
</svg>
