<?xml version="1.0" encoding="utf-8"?>
<!-- Generator: Adobe Illustrator 26.0.1, SVG Export Plug-In . SVG Version: 6.00 Build 0)  -->
<svg version="1.1" id="Слой_3" xmlns="http://www.w3.org/2000/svg" xmlns:xlink="http://www.w3.org/1999/xlink" x="0px" y="0px"
	 viewBox="0 0 11.2 13" style="enable-background:new 0 0 11.2 13;" xml:space="preserve">
<style type="text/css">
	.st0{fill:#272727;}
	.st1{fill:#E50022;}
	.st2{fill:#FFFFFF;}
</style>
<path class="st0" d="M0,3.2C1.9,2.2,3.7,1.1,5.6,0c1.9,1.1,3.7,2.2,5.6,3.2v6.5L5.6,13L0,9.8V3.2z"/>
<path class="st1" d="M5.6,1.4l0-1.4l5.6,3.2c0,2.2,0,4.3,0,6.5c-0.4-0.2-0.8-0.4-1.2-0.7l0-5.2L5.6,1.4z"/>
<path class="st1" d="M10.1,9.1c0.4,0.2,0.8,0.5,1.1,0.7l-3.5,2c-0.2-0.3-0.4-0.7-0.6-1C8.1,10.2,9.1,9.6,10.1,9.1z"/>
<polygon class="st2" points="5.5,9.2 5.5,8.3 3,8.3 2.8,7.3 5.3,4.1 7.2,4.1 7.2,7.2 7.9,7.2 7.9,8.3 7.2,8.3 7.2,9.2 "/>
<polygon class="st0" points="4.5,7.2 5.5,5.8 5.5,7.2 "/>
</svg>
