<?xml version="1.0" encoding="utf-8"?>
<!-- Generator: Adobe Illustrator 26.0.1, SVG Export Plug-In . SVG Version: 6.00 Build 0)  -->
<svg version="1.1" id="Слой_3" xmlns="http://www.w3.org/2000/svg" xmlns:xlink="http://www.w3.org/1999/xlink" x="0px" y="0px"
	 viewBox="0 0 11.2 13" style="enable-background:new 0 0 11.2 13;" xml:space="preserve">
<style type="text/css">
	.st0{fill:#272727;}
	.st1{fill:#E50022;}
	.st2{fill:#FFFFFF;}
</style>
<path class="st0" d="M0,3.2C1.9,2.2,3.7,1.1,5.6,0c1.9,1.1,3.7,2.2,5.6,3.2v6.5L5.6,13L0,9.8V3.2z"/>
<polygon class="st1" points="5.6,1.4 5.6,0 11.2,3.2 11.2,9.8 10.1,9.1 10.1,3.9 "/>
<path class="st1" d="M5.6,13l0-1.4l4.5-2.5c0.4,0.2,0.8,0.4,1.2,0.7C9.4,10.8,7.5,11.9,5.6,13z"/>
<path class="st2" d="M3.7,6.8c0.3,0.1,0.7,0.3,1,0.4C4.8,7.2,4.9,7.1,5.1,7C5.3,7,5.5,7,5.5,7c0.1,0,0.2,0,0.3,0.1
	c0,0,0.2,0.1,0.2,0.3C6.1,7.6,6,7.7,6,7.8C5.7,8.1,5.1,8,5,7.9c-0.2,0-0.3-0.1-0.5-0.2C4.4,7.7,4.2,7.6,4.1,7.5
	C3.8,7.9,3.6,8.3,3.3,8.7C3.5,8.8,3.8,9,4.1,9.1c0.6,0.2,1.2,0.2,1.6,0.2c0.3,0,0.5-0.1,0.7-0.1C6.6,9.1,6.8,9,7.1,8.9
	c0.2-0.1,0.3-0.2,0.3-0.3c0.1-0.1,0.2-0.2,0.2-0.3c0.1-0.2,0.2-0.5,0.2-0.8c0-0.2,0-0.4-0.1-0.6C7.6,6.5,7.4,6.3,7.2,6.2
	c-0.2-0.1-0.5-0.3-1-0.3C5.7,5.9,5.3,6,5.1,6.1c0-0.2,0-0.4,0-0.6h2.4V4.1c-1.3,0-2.5,0-3.8,0C3.8,5,3.7,5.9,3.7,6.8z"/>
</svg>
