<?xml version="1.0" encoding="utf-8"?>
<!-- Generator: Adobe Illustrator 26.0.1, SVG Export Plug-In . SVG Version: 6.00 Build 0)  -->
<svg version="1.1" id="Слой_3" xmlns="http://www.w3.org/2000/svg" xmlns:xlink="http://www.w3.org/1999/xlink" x="0px" y="0px"
	 viewBox="0 0 11.2 13" style="enable-background:new 0 0 11.2 13;" xml:space="preserve">
<style type="text/css">
	.st0{fill:#272727;}
	.st1{fill:#0066FF;}
	.st2{fill:#FFFFFF;}
</style>
<path class="st0" d="M0,3.2C1.9,2.2,3.7,1.1,5.6,0c1.9,1.1,3.7,2.2,5.6,3.2v6.5L5.6,13L0,9.8V3.2z"/>
<path class="st1" d="M5.6,11.7c0,0.4,0,0.9,0,1.3c-0.6-0.4-1.3-0.8-1.9-1.1c-0.6-0.4-1.3-0.7-1.9-1.1c0.2-0.3,0.4-0.7,0.6-1
	C3.4,10.4,4.5,11,5.6,11.7z"/>
<path class="st1" d="M11.2,3.2c0,2.2,0,4.4,0,6.5c-1.9,1.1-3.8,2.2-5.6,3.2c0-0.5,0-0.9,0-1.4c1.5-0.8,3-1.7,4.5-2.5l0-5.2L5.6,1.4
	l0-1.4C7.5,1.1,9.4,2.2,11.2,3.2z"/>
<path class="st2" d="M3.2,7.4c-0.1-0.5-0.1-1,0-1.3c0-0.2,0.1-0.5,0.2-0.9C3.6,5,3.7,4.8,3.9,4.7C4,4.5,4.3,4.3,4.6,4.2
	C5,4,5.3,4,5.5,4c0.1,0,0.5,0,1,0c0.3,0,0.7,0.1,1.1,0.4L6.9,5.5c-0.6-0.4-1.3-0.4-1.7,0C5,5.7,5,5.9,5,6.1C5.1,6,5.4,5.8,5.8,5.8
	c0.1,0,0.3,0,0.7,0C6.6,5.8,6.8,5.9,7,6c0.5,0.2,0.7,0.7,0.7,0.8c0.2,0.4,0.1,0.8,0,1c0,0.2-0.2,0.5-0.5,0.8C6.9,9,6.5,9.1,6.2,9.1
	C5.9,9.2,5.7,9.2,5.6,9.2c-0.1,0-0.3,0-0.5,0c-0.1,0-0.6-0.1-1-0.4C3.4,8.4,3.3,7.6,3.2,7.4z"/>
<path class="st0" d="M5,7.4c0-0.1,0-0.4,0.2-0.5c0.1-0.1,0.3-0.1,0.3-0.1c0.1,0,0.2,0,0.4,0.1c0.2,0.2,0.2,0.4,0.2,0.5
	c0,0.1,0,0.3-0.1,0.5C5.8,8.1,5.5,8.1,5.5,8.1c0,0-0.2,0-0.4-0.2C5,7.7,5,7.5,5,7.4z"/>
</svg>
