<?xml version="1.0" encoding="utf-8"?>
<!-- Generator: Adobe Illustrator 26.0.1, SVG Export Plug-In . SVG Version: 6.00 Build 0)  -->
<svg version="1.1" id="Слой_3" xmlns="http://www.w3.org/2000/svg" xmlns:xlink="http://www.w3.org/1999/xlink" x="0px" y="0px"
	 viewBox="0 0 11.2 13" style="enable-background:new 0 0 11.2 13;" xml:space="preserve">
<style type="text/css">
	.st0{fill:#272727;}
	.st1{fill:#0066FF;}
	.st2{fill:#FFFFFF;}
</style>
<path class="st0" d="M0,3.2C1.9,2.2,3.7,1.1,5.6,0c1.9,1.1,3.7,2.2,5.6,3.2v6.5L5.6,13L0,9.8V3.2z"/>
<path class="st1" d="M5.6,11.6c0,0.4,0,0.9,0,1.3C3.7,11.9,1.9,10.8,0,9.8l1.1-0.7C2.6,9.9,4.1,10.8,5.6,11.6z"/>
<path class="st1" d="M11.2,3.2c0,2.2,0,4.4,0,6.5L5.6,13l0-1.4l4.5-2.5l0-5.2L5.6,1.4l0-1.4C7.5,1.1,9.4,2.2,11.2,3.2z"/>
<path class="st2" d="M3.7,5.5V4.1h4.3v1.1l-2.1,4H3.9C4.6,8,5.3,6.7,6,5.5C5.2,5.5,4.4,5.5,3.7,5.5z"/>
</svg>
