<?xml version="1.0" encoding="utf-8"?>
<!-- Generator: Adobe Illustrator 26.0.1, SVG Export Plug-In . SVG Version: 6.00 Build 0)  -->
<svg version="1.1" id="Слой_3" xmlns="http://www.w3.org/2000/svg" xmlns:xlink="http://www.w3.org/1999/xlink" x="0px" y="0px"
	 viewBox="0 0 11.2 13" style="enable-background:new 0 0 11.2 13;" xml:space="preserve">
<style type="text/css">
	.st0{fill:#272727;}
	.st1{fill:#7BED9F;}
	.st2{fill:#FFFFFF;}
</style>
<path class="st0" d="M0,3.2C1.9,2.2,3.7,1.1,5.6,0c1.9,1.1,3.7,2.2,5.6,3.2v6.5L5.6,13L0,9.8V3.2z"/>
<path class="st1" d="M5.6,1.4c0-0.5,0-0.9,0-1.4c1.9,1.1,3.7,2.2,5.6,3.2v6.5L5.6,13L0,9.8c0-2.2,0-4.4,0-6.5
	c0.4,0.2,0.8,0.4,1.2,0.7c0,1.7,0,3.5,0,5.2l4.5,2.5l4.5-2.5V3.9C8.6,3.1,7.1,2.2,5.6,1.4z"/>
<path class="st2" d="M4.1,6.4C4.1,6.3,4,6.3,3.8,6.2C3.8,6.1,3.6,6,3.5,5.9C3.3,5.6,3.4,5.2,3.4,5.2c0.1-0.6,0.7-1,0.8-1
	C4.3,4.1,4.4,4,4.5,4c0.3-0.1,0.6-0.1,0.8-0.1c0.2,0,0.4,0,0.6,0c0.2,0,0.4,0,0.7,0.1c0.2,0.1,0.8,0.3,1,0.9c0,0.1,0.1,0.4,0,0.7
	C7.6,5.8,7.4,6,7.3,6.1C7.2,6.2,7,6.3,6.9,6.4c0.1,0,0.7,0.2,0.9,0.8c0.1,0.5,0,0.8-0.1,0.9c-0.2,0.5-0.6,0.6-1,0.8
	C6.3,9.1,5.8,9.1,5.5,9.1C4.4,9.1,3.4,8.6,3.3,8C3.2,7.8,3.2,7.4,3.4,7C3.6,6.5,4,6.4,4.1,6.4z"/>
<path class="st0" d="M5.5,8c0,0-0.2,0-0.4-0.1C5,7.8,5,7.6,5,7.5c0,0,0-0.3,0.2-0.5c0.2-0.1,0.4-0.1,0.4-0.1c0.1,0,0.2,0,0.4,0.1
	c0.2,0.1,0.2,0.3,0.2,0.4c0,0,0,0.3-0.2,0.4C5.8,8,5.6,8,5.5,8z"/>
<path class="st0" d="M5.5,6c0,0-0.3,0-0.5-0.2C4.9,5.5,5,5.3,5.1,5.1c0.1-0.2,0.4-0.2,0.4-0.2c0,0,0.3,0,0.4,0.2C6,5.2,6,5.4,6,5.4
	c0,0.1,0,0.3-0.1,0.4C5.8,6,5.6,6,5.5,6z"/>
</svg>
