<?xml version="1.0" encoding="utf-8"?>
<!-- Generator: Adobe Illustrator 26.0.1, SVG Export Plug-In . SVG Version: 6.00 Build 0)  -->
<svg version="1.1" id="Слой_3" xmlns="http://www.w3.org/2000/svg" xmlns:xlink="http://www.w3.org/1999/xlink" x="0px" y="0px"
	 viewBox="0 0 11.2 13" style="enable-background:new 0 0 11.2 13;" xml:space="preserve">
<style type="text/css">
	.st0{fill:#272727;}
	.st1{fill:#7BED9F;}
	.st2{fill:#FFFFFF;}
</style>
<path class="st0" d="M0,3.2C1.9,2.2,3.7,1.1,5.6,0c1.9,1.1,3.7,2.2,5.6,3.2v6.5L5.6,13L0,9.8V3.2z"/>
<path class="st1" d="M5.6,1.4c0-0.5,0-0.9,0-1.4c1.9,1.1,3.7,2.2,5.6,3.2v6.5L5.6,13L0,9.8c0-2.2,0-4.4,0-6.5
	c0.4,0.2,0.8,0.4,1.2,0.7c0,1.7,0,3.5,0,5.2l4.5,2.5l4.5-2.5V3.9C8.6,3.1,7.1,2.2,5.6,1.4z"/>
<path class="st1" d="M1.2,3.9C0.8,3.7,0.4,3.5,0,3.2c0.7-0.4,1.3-0.8,2-1.2c0.2,0.3,0.4,0.7,0.6,1C2.1,3.4,1.6,3.6,1.2,3.9z"/>
<path class="st2" d="M6.1,7C6,7.1,5.8,7.2,5.4,7.3c-0.1,0-0.9,0.2-1.6-0.3C3.8,6.9,3.5,6.6,3.4,6.3C3.2,5.7,3.3,5.2,3.5,4.8
	c0.6-1,2.2-1.2,3.2-0.7c0.1,0.1,0.5,0.2,0.8,0.7C7.7,5,7.8,5.2,7.8,5.5c0,0.2,0.1,0.6,0.1,1.1c0,0.3-0.1,0.7-0.3,1.1
	c-0.1,0.2-0.4,0.7-1,1C6.4,8.9,6.2,9,6,9C5.7,9.1,5,9.2,4.2,9C4,8.9,3.7,8.8,3.4,8.6c0.2-0.4,0.4-0.7,0.7-1.1C4.3,7.7,4.6,7.8,5,7.8
	c0.2,0,0.5,0,0.7-0.1C6.1,7.5,6.1,7.1,6.1,7z"/>
<path class="st0" d="M5.6,6.3c-0.2,0-0.4-0.1-0.5-0.2C5.1,6,5.1,5.8,5,5.7c0-0.1,0-0.4,0.2-0.6C5.4,5,5.6,5,5.6,5c0,0,0.3,0,0.4,0.2
	c0.1,0.1,0.1,0.3,0.1,0.4c0,0.1,0,0.3-0.1,0.4C6,6.1,5.9,6.3,5.6,6.3z"/>
</svg>
