<svg xmlns="http://www.w3.org/2000/svg" xmlns:xlink="http://www.w3.org/1999/xlink" viewBox="0 0 336 95"><defs><style>.cls-1{fill-opacity:0.28;fill:url(#Dégradé_sans_nom);}.cls-2,.cls-3{fill:#fff;}.cls-3{fill-rule:evenodd;}.cls-4{fill:#6590ff;}</style><linearGradient id="Dégradé_sans_nom" x1="186.408" y1="-52.74398" x2="156.408" y2="112.25602" gradientTransform="matrix(1, 0, 0, -1, 0, 96)" gradientUnits="userSpaceOnUse"><stop offset="0" stop-color="#6778b4"/><stop offset="1" stop-color="#6786c4" stop-opacity="0.26"/></linearGradient></defs><g id="Background"><rect id="Background-2" data-name="Background" class="cls-1" width="336" height="95" rx="10"/></g><g id="IDEAS_GAMING" data-name="IDEAS GAMING"><g id="GAMING"><path id="G" class="cls-2" d="M242.00524,61.6865l.09-1.21c.02-.09-.03-.13-.13-.13h-7.32l1.66,1.21-.43,4.56c0,.14.08.21.25.21h5.28c.11,0,.16-.04.17-.13l.11-1.2h-2.83l.19106-1.98259,6.74763.02453-.18869,1.95806-.23,2.57995a1.52851,1.52851,0,0,1-.66,1.1,2.29661,2.29661,0,0,1-1.4.45h-8.34a3.37376,3.37376,0,0,1-2.26-.76,2.07755,2.07755,0,0,1-.77-1.88l.57-6.3a3.00216,3.00216,0,0,1,.82-1.87,2.78268,2.78268,0,0,1,2.11-.76h8.94a1.91256,1.91256,0,0,1,1.31.45,1.21488,1.21488,0,0,1,.46,1.09l-.23,2.59Z" transform="translate(0)"/><path id="N" class="cls-2" d="M227.04486,57.52821h4.28321l-1.04188,11.6211h-3.61914l-5.94246-6.44141-.56536,6.44141H215.876l1.04188-11.6211h3.78516l5.77852,6.27539Z" transform="translate(0)"/><path id="I" class="cls-2" d="M210.81733,57.52821H215.333l-1.04188,11.6211h-4.51562Z" transform="translate(0)"/><path id="M" class="cls-2" d="M205.17475,57.52821h4.01758l-1.04188,11.6211h-4.1836l.47217-5.2295-3.08524,3.63575h-2.32421l-2.42794-3.65235-.47072,5.2461h-4.18359l1.04188-11.6211h3.65234l3.74131,5.76074Z" transform="translate(0)"/><path id="A" class="cls-3" d="M191.09767,60.04494l.02-.17a2.18831,2.18831,0,0,0-.81994-1.92,3.46826,3.46826,0,0,0-2.34-.79h-7.7a3.29208,3.29208,0,0,0-2.3.79,2.87362,2.87362,0,0,0-.96,1.92l-.02.17-.89,8.87h4.22l.23005-2.37h5.73l-.24,2.37h4.22l.88-8.87Zm-4.21.26-.04.38-.3,3.02h-5.72l.24-2.45-1.64-1.21h7.23a.22625.22625,0,0,1,.23.23Z" transform="translate(0)"/><path id="G-2" data-name="G" class="cls-2" d="M171.20408,61.6865l.09-1.21c.02-.09-.03-.13-.13-.13h-7.32l1.66,1.21-.43,4.56c0,.14.08.21.25.21h5.28c.11,0,.16-.04.17-.13l.11-1.2h-2.83l.19106-1.98259,6.74763.02453-.18869,1.95806-.23,2.57995a1.52853,1.52853,0,0,1-.66,1.1,2.29666,2.29666,0,0,1-1.4.45h-8.34a3.37371,3.37371,0,0,1-2.26-.76,2.07753,2.07753,0,0,1-.77-1.88l.57-6.3a3.00216,3.00216,0,0,1,.82-1.87,2.78268,2.78268,0,0,1,2.11-.76h8.94a1.91256,1.91256,0,0,1,1.31.45,1.21488,1.21488,0,0,1,.46,1.09l-.23,2.59Z" transform="translate(0)"/></g><g id="IDEAS"><path id="S" class="cls-2" d="M154.88654,58.01928a3.81053,3.81053,0,0,0-2.461-.7658h-7.632a3.5924,3.5924,0,0,0-2.41.7658,2.70334,2.70334,0,0,0-1.008,1.8732l-.168,1.7992a1.98635,1.98635,0,0,0,.84,1.8732,3.85388,3.85388,0,0,0,2.474.7616h6.211c.19,0,.272.07.254.21l-.132,1.2845c-.004.14-.104.21-.295.21h-5.234q-.28648,0-.273-.21l.082-.6587h-4.286l-.1,1.0292a1.98848,1.98848,0,0,0,.84,1.8733,3.85872,3.85872,0,0,0,2.475.7616h7.74a3.366,3.366,0,0,0,2.347-.7616,2.91465,2.91465,0,0,0,.967-1.8733l.168-1.7991a1.98553,1.98553,0,0,0-.839-1.8732,3.85869,3.85869,0,0,0-2.475-.7617h-6.211c-.19,0-.281-.07-.272-.2099l.041-.4035-1.63-1.0869h1.998c.013,0,.022-.0041.036-.0041h5.226c.19,0,.272.07.254.21l-.059.6587h4.286l.099-1.0293A2.05867,2.05867,0,0,0,154.88654,58.01928Z" transform="translate(0)"/><path id="A-2" data-name="A" class="cls-3" d="M140.31022,60.04494l.02-.17a2.18832,2.18832,0,0,0-.82-1.92,3.46824,3.46824,0,0,0-2.34-.79h-7.7a3.29208,3.29208,0,0,0-2.3.79,2.8737,2.8737,0,0,0-.96,1.92l-.02.17-.89,8.87h4.22l.23-2.37h5.73l-.24,2.37h4.22l.88-8.87Zm-4.21.26-.04.38-.3,3.02h-5.72l.24-2.45-1.64-1.21h7.23a.22626.22626,0,0,1,.23.23Z" transform="translate(0)"/><path id="E" class="cls-2" d="M124.90694,57.55231H113.799a1.38568,1.38568,0,0,0-1.52,1.1569l-.801,8.2729c-.105,1.0612,1.108,2.1431,2.405,2.1431h9.907l.272-2.7964h-8.427l.092-.9447-1.249-.87391H123.3l.227-2.347h-7.49l.066-.68249-1.612-1.1277h1.722v-.0042h8.427Z" transform="translate(0)"/><path id="D" class="cls-3" d="M110.03527,58.02647a3.4897,3.4897,0,0,0-2.35-.78h-10.7l-.22,2.43-.63,6.76-.25,2.69h11.1a3.26118,3.26118,0,0,0,2.29-.78,2.95246,2.95246,0,0,0,.97-1.93l.6-6.46A2.22381,2.22381,0,0,0,110.03527,58.02647Zm-3.86,8.01c0,.15-.09.22-.28.22h-5.39c-.18,0-.26-.06-.26-.2l.43-4.65-1.78-1.28h2.16a.035.035,0,0,0,.02-.01h5.4c.18,0,.26.07.24.22Z" transform="translate(0)"/><path id="I-2" data-name="I" class="cls-2" d="M90.88031,57.52821h4.51563l-1.04188,11.6211H89.83843Z" transform="translate(0)"/></g></g><g id="DIAMOND"><path id="D-2" data-name="D" class="cls-4" d="M284.48926,36.313a39.96494,39.96494,0,0,1-.18164,4.07519,9.24265,9.24265,0,0,1-.74317,2.937,4.99784,4.99784,0,0,1-1.59961,1.96386,8.115,8.115,0,0,1-2.72265,1.2041,21.5843,21.5843,0,0,1-4.15821.59424q-2.47559.14868-5.874.14844H253.07324V24.7959H269.21q3.33252,0,5.77539.13183a22.91419,22.91419,0,0,1,4.125.54444,8.09979,8.09979,0,0,1,2.73828,1.15527,5.06181,5.06181,0,0,1,1.65039,1.96338,9.11324,9.11324,0,0,1,.792,2.95361,37.18227,37.18227,0,0,1,.19824,4.14161Zm-15.873,5.01562q2.80371,0,4.40527-.16455a5.2262,5.2262,0,0,0,2.39258-.71,2.36265,2.36265,0,0,0,.99024-1.56738,15.05843,15.05843,0,0,0,.19726-2.73877v-.396a14.5519,14.5519,0,0,0-.19726-2.68945,2.35584,2.35584,0,0,0-.99024-1.55127,5.23861,5.23861,0,0,0-2.39258-.70947q-1.60107-.16481-4.40527-.165h-7.62305V41.32861Z" transform="translate(0)"/><path id="N-2" data-name="N" class="cls-4" d="M247.33105,47.23584H236.4082L224.06641,31.165h-.13184v16.0708h-7.65625V24.7959h11.21973l12.07812,15.97217h.13184V24.7959h7.623Z" transform="translate(0)"/><path id="O" class="cls-4" d="M194.66309,47.5q-3.36621,0-5.82422-.14844a23.28133,23.28133,0,0,1-4.17481-.57763,8.254,8.254,0,0,1-2.80468-1.20459,5.144,5.144,0,0,1-1.68262-2.0293,9.81621,9.81621,0,0,1-.8086-3.03613,35.79944,35.79944,0,0,1-.21484-4.22412V35.752a35.80516,35.80516,0,0,1,.21484-4.22412,9.6242,9.6242,0,0,1,.8086-3.01953,5.30156,5.30156,0,0,1,1.68262-2.0293,8.0545,8.0545,0,0,1,2.80468-1.22119,23.32583,23.32583,0,0,1,4.17481-.57763q2.458-.148,5.82422-.14844h1.02343q3.36621,0,5.82422.14844a23.33872,23.33872,0,0,1,4.17481.57763,7.87448,7.87448,0,0,1,2.78808,1.22119,5.36919,5.36919,0,0,1,1.667,2.0293,9.67736,9.67736,0,0,1,.8086,3.01953,36.036,36.036,0,0,1,.21387,4.22412v.52784a36.03026,36.03026,0,0,1-.21387,4.22412,9.871,9.871,0,0,1-.8086,3.03613,5.20689,5.20689,0,0,1-1.667,2.0293,8.06677,8.06677,0,0,1-2.78808,1.20459,23.29417,23.29417,0,0,1-4.17481.57763q-2.458.148-5.82422.14844Zm.82519-5.97314q2.73925,0,4.27344-.14844a4.63161,4.63161,0,0,0,2.29394-.70947,2.4423,2.4423,0,0,0,.94043-1.63379,18.75372,18.75372,0,0,0,.18164-2.95313v-.26416a18.82231,18.82231,0,0,0-.18164-2.937,2.3918,2.3918,0,0,0-.94043-1.6333,4.75458,4.75458,0,0,0-2.29394-.69336q-1.53369-.14794-4.27344-.14844h-.59375q-2.73925,0-4.29.14844a4.78411,4.78411,0,0,0-2.31054.69336,2.337,2.337,0,0,0-.92383,1.6333,20.50759,20.50759,0,0,0-.165,2.937V36.082a20.435,20.435,0,0,0,.165,2.95313A2.38474,2.38474,0,0,0,188.294,40.669a4.66034,4.66034,0,0,0,2.31054.70947q1.55127.14868,4.29.14844Z" transform="translate(0)"/><path id="M-2" data-name="M" class="cls-4" d="M174.03906,47.23584h-7.623V32.12207h-.09864l-8.18457,15.11377H152.127L144.1084,32.12207h-.165V47.23584h-7.62305V24.7959h10.85645l8.085,15.08105h.09961l8.01855-15.081h10.65918Z" transform="translate(0)"/><path id="A-3" data-name="A" class="cls-4" d="M133.38281,47.23584h-8.44726l-2.01367-3.894H109.22754l-1.98047,3.894H98.89844L111.60352,24.7959h8.94238ZM120.249,38.16064l-4.1582-8.085H115.959l-4.09179,8.085Z" transform="translate(0)"/><path id="I-3" data-name="I" class="cls-4" d="M95.96191,47.23584H88.042V24.7959h7.91992Z" transform="translate(0)"/><path id="D-3" data-name="D" class="cls-4" d="M82.92676,36.313a39.68408,39.68408,0,0,1-.18164,4.07519,9.24383,9.24383,0,0,1-.74219,2.937,4.99181,4.99181,0,0,1-1.60059,1.96386,8.115,8.115,0,0,1-2.72265,1.2041,21.5843,21.5843,0,0,1-4.15821.59424q-2.47412.14868-5.874.14844H51.51074V24.7959H67.64746q3.334,0,5.77539.13183a22.90182,22.90182,0,0,1,4.125.54444,8.097,8.097,0,0,1,2.73926,1.15527,5.0595,5.0595,0,0,1,1.64941,1.96338,9.08859,9.08859,0,0,1,.792,2.95361,36.9467,36.9467,0,0,1,.19824,4.14161ZM67.05371,41.32861q2.80518,0,4.40527-.16455a5.2183,5.2183,0,0,0,2.39258-.71,2.35911,2.35911,0,0,0,.99024-1.56738A15.04465,15.04465,0,0,0,75.04,36.148v-.396a14.53872,14.53872,0,0,0-.19824-2.68945,2.35227,2.35227,0,0,0-.99024-1.55127,5.23068,5.23068,0,0,0-2.39258-.70947q-1.60107-.16481-4.40527-.165h-7.623V41.32861Z" transform="translate(0)"/></g></svg>