<svg xmlns="http://www.w3.org/2000/svg" xmlns:xlink="http://www.w3.org/1999/xlink" viewBox="0 0 336 95"><defs><style>.cls-1{fill-opacity:0.28;fill:url(#Dégradé_sans_nom_4);}.cls-2,.cls-3{fill:#fff;}.cls-3{fill-rule:evenodd;}.cls-4{fill:url(#Dégradé_sans_nom_9);}.cls-5{fill:url(#Dégradé_sans_nom_9-2);}.cls-6{fill:url(#Dégradé_sans_nom_9-3);}.cls-7{fill:url(#Dégradé_sans_nom_9-4);}.cls-8{fill:url(#Dégradé_sans_nom_9-5);}.cls-9{fill:url(#Dégradé_sans_nom_9-6);}.cls-10{fill:url(#Dégradé_sans_nom_9-7);}</style><linearGradient id="Dégradé_sans_nom_4" x1="186.408" y1="-52.74398" x2="156.408" y2="112.25602" gradientTransform="matrix(1, 0, 0, -1, 0, 96)" gradientUnits="userSpaceOnUse"><stop offset="0" stop-color="#b19885"/><stop offset="1" stop-color="#bf9d8e" stop-opacity="0.26"/></linearGradient><linearGradient id="Dégradé_sans_nom_9" x1="259.57185" y1="96.08689" x2="259.57185" y2="44.08689" gradientTransform="matrix(1, 0, 0, -1, 0, 96)" gradientUnits="userSpaceOnUse"><stop offset="0" stop-color="#dd5f4d"/><stop offset="1" stop-color="#ffc369"/></linearGradient><linearGradient id="Dégradé_sans_nom_9-2" x1="221.21086" y1="96.08689" x2="221.21086" y2="44.08689" xlink:href="#Dégradé_sans_nom_9"/><linearGradient id="Dégradé_sans_nom_9-3" x1="198.14485" y1="96.08689" x2="198.14485" y2="44.08689" xlink:href="#Dégradé_sans_nom_9"/><linearGradient id="Dégradé_sans_nom_9-4" x1="170.46485" y1="96.08689" x2="170.46485" y2="44.08689" xlink:href="#Dégradé_sans_nom_9"/><linearGradient id="Dégradé_sans_nom_9-5" x1="134.59435" y1="96.08689" x2="134.59435" y2="44.08689" xlink:href="#Dégradé_sans_nom_9"/><linearGradient id="Dégradé_sans_nom_9-6" x1="103.04921" y1="96.08689" x2="103.04921" y2="44.08689" xlink:href="#Dégradé_sans_nom_9"/><linearGradient id="Dégradé_sans_nom_9-7" x1="71.13166" y1="96.08689" x2="71.13166" y2="44.08689" xlink:href="#Dégradé_sans_nom_9"/></defs><g id="Background"><rect id="Background-2" data-name="Background" class="cls-1" width="336" height="95" rx="10"/></g><g id="IDEAS_GAMING" data-name="IDEAS GAMING"><g id="GAMING"><path id="G" class="cls-2" d="M242.00524,61.6865l.09-1.21c.02-.09-.03-.13-.13-.13h-7.32l1.66,1.21-.43,4.56c0,.14.08.21.25.21h5.28c.11,0,.16-.04.17-.13l.11-1.2h-2.83l.19106-1.98259,6.74763.02453-.18869,1.95806-.23,2.57995a1.52851,1.52851,0,0,1-.66,1.1,2.29661,2.29661,0,0,1-1.4.45h-8.34a3.37376,3.37376,0,0,1-2.26-.76,2.07755,2.07755,0,0,1-.77-1.88l.57-6.3a3.00216,3.00216,0,0,1,.82-1.87,2.78268,2.78268,0,0,1,2.11-.76h8.94a1.91256,1.91256,0,0,1,1.31.45,1.21488,1.21488,0,0,1,.46,1.09l-.23,2.59Z" transform="translate(0)"/><path id="N" class="cls-2" d="M227.04486,57.52821h4.28321l-1.04188,11.6211h-3.61914l-5.94246-6.44141-.56536,6.44141H215.876l1.04188-11.6211h3.78516l5.77852,6.27539Z" transform="translate(0)"/><path id="I" class="cls-2" d="M210.81733,57.52821H215.333l-1.04188,11.6211h-4.51562Z" transform="translate(0)"/><path id="M" class="cls-2" d="M205.17475,57.52821h4.01758l-1.04188,11.6211h-4.1836l.47217-5.2295-3.08524,3.63575h-2.32421l-2.42794-3.65235-.47072,5.2461h-4.18359l1.04188-11.6211h3.65234l3.74131,5.76074Z" transform="translate(0)"/><path id="A" class="cls-3" d="M191.09767,60.04494l.02-.17a2.18831,2.18831,0,0,0-.81994-1.92,3.46826,3.46826,0,0,0-2.34-.79h-7.7a3.29208,3.29208,0,0,0-2.3.79,2.87362,2.87362,0,0,0-.96,1.92l-.02.17-.89,8.87h4.22l.23005-2.37h5.73l-.24,2.37h4.22l.88-8.87Zm-4.21.26-.04.38-.3,3.02h-5.72l.24-2.45-1.64-1.21h7.23a.22625.22625,0,0,1,.23.23Z" transform="translate(0)"/><path id="G-2" data-name="G" class="cls-2" d="M171.20408,61.6865l.09-1.21c.02-.09-.03-.13-.13-.13h-7.32l1.66,1.21-.43,4.56c0,.14.08.21.25.21h5.28c.11,0,.16-.04.17-.13l.11-1.2h-2.83l.19106-1.98259,6.74763.02453-.18869,1.95806-.23,2.57995a1.52853,1.52853,0,0,1-.66,1.1,2.29666,2.29666,0,0,1-1.4.45h-8.34a3.37371,3.37371,0,0,1-2.26-.76,2.07753,2.07753,0,0,1-.77-1.88l.57-6.3a3.00216,3.00216,0,0,1,.82-1.87,2.78268,2.78268,0,0,1,2.11-.76h8.94a1.91256,1.91256,0,0,1,1.31.45,1.21488,1.21488,0,0,1,.46,1.09l-.23,2.59Z" transform="translate(0)"/></g><g id="IDEAS"><path id="S" class="cls-2" d="M154.88654,58.01928a3.81053,3.81053,0,0,0-2.461-.7658h-7.632a3.5924,3.5924,0,0,0-2.41.7658,2.70334,2.70334,0,0,0-1.008,1.8732l-.168,1.7992a1.98635,1.98635,0,0,0,.84,1.8732,3.85388,3.85388,0,0,0,2.474.7616h6.211c.19,0,.272.07.254.21l-.132,1.2845c-.004.14-.104.21-.295.21h-5.234q-.28648,0-.273-.21l.082-.6587h-4.286l-.1,1.0292a1.98848,1.98848,0,0,0,.84,1.8733,3.85872,3.85872,0,0,0,2.475.7616h7.74a3.366,3.366,0,0,0,2.347-.7616,2.91465,2.91465,0,0,0,.967-1.8733l.168-1.7991a1.98553,1.98553,0,0,0-.839-1.8732,3.85869,3.85869,0,0,0-2.475-.7617h-6.211c-.19,0-.281-.07-.272-.2099l.041-.4035-1.63-1.0869h1.998c.013,0,.022-.0041.036-.0041h5.226c.19,0,.272.07.254.21l-.059.6587h4.286l.099-1.0293A2.05867,2.05867,0,0,0,154.88654,58.01928Z" transform="translate(0)"/><path id="A-2" data-name="A" class="cls-3" d="M140.31022,60.04494l.02-.17a2.18832,2.18832,0,0,0-.82-1.92,3.46824,3.46824,0,0,0-2.34-.79h-7.7a3.29208,3.29208,0,0,0-2.3.79,2.8737,2.8737,0,0,0-.96,1.92l-.02.17-.89,8.87h4.22l.23-2.37h5.73l-.24,2.37h4.22l.88-8.87Zm-4.21.26-.04.38-.3,3.02h-5.72l.24-2.45-1.64-1.21h7.23a.22626.22626,0,0,1,.23.23Z" transform="translate(0)"/><path id="E" class="cls-2" d="M124.90694,57.55231H113.799a1.38568,1.38568,0,0,0-1.52,1.1569l-.801,8.2729c-.105,1.0612,1.108,2.1431,2.405,2.1431h9.907l.272-2.7964h-8.427l.092-.9447-1.249-.87391H123.3l.227-2.347h-7.49l.066-.68249-1.612-1.1277h1.722v-.0042h8.427Z" transform="translate(0)"/><path id="D" class="cls-3" d="M110.03527,58.02647a3.4897,3.4897,0,0,0-2.35-.78h-10.7l-.22,2.43-.63,6.76-.25,2.69h11.1a3.26118,3.26118,0,0,0,2.29-.78,2.95246,2.95246,0,0,0,.97-1.93l.6-6.46A2.22381,2.22381,0,0,0,110.03527,58.02647Zm-3.86,8.01c0,.15-.09.22-.28.22h-5.39c-.18,0-.26-.06-.26-.2l.43-4.65-1.78-1.28h2.16a.035.035,0,0,0,.02-.01h5.4c.18,0,.26.07.24.22Z" transform="translate(0)"/><path id="I-2" data-name="I" class="cls-2" d="M90.88031,57.52821h4.51563l-1.04188,11.6211H89.83843Z" transform="translate(0)"/></g></g><g id="PREMIUM"><path id="M-2" data-name="M" class="cls-4" d="M240.97635,45.91311h6.468l-.198-16.995,9.603,16.995h5.346l9.768-16.995-.33,16.995h6.534v-22.011h-10.56l-7.986,14.619-8.019-14.619h-10.626Z" transform="translate(0)"/><path id="U" class="cls-5" d="M207.10335,23.90211v11.847a20.482,20.482,0,0,0,.495,5.775,5.746,5.746,0,0,0,4.455,4.059c1.419.396,3.564.528,9.042.528a72.609,72.609,0,0,0,7.821-.231c2.904-.429,4.818-1.749,5.742-3.894.528-1.254.66-2.541.66-6.534v-11.55h-6.699v10.098c0,2.442,0,2.442-.033,2.937-.033,1.683-.363,2.64-1.023,3.135-.825.627-2.211.759-7.227.759-4.092,0-5.544-.396-6.105-1.65-.429-.99-.429-.99-.429-5.709v-9.57Z" transform="translate(0)"/><path id="I-3" data-name="I" class="cls-6" d="M194.79535,45.91311h6.699v-22.011h-6.699Z" transform="translate(0)"/><path id="M-3" data-name="M" class="cls-7" d="M151.86936,45.91311h6.468l-.198-16.995,9.603,16.995h5.346l9.768-16.995-.33,16.995h6.534v-22.011h-10.56l-7.986,14.619-8.019-14.619h-10.626Z" transform="translate(0)"/><path id="E-2" data-name="E" class="cls-8" d="M122.28536,23.90211v22.011h24.618v-4.983h-18.018v-3.894h16.764v-4.356h-16.764v-3.795h17.787v-4.983Z" transform="translate(0)"/><path id="R" class="cls-9" d="M89.18906,45.91311h6.666v-5.544h10.2633c1.815,0,2.343.066,2.871.429.594.429.825,1.122.825,2.376v2.739h6.798v-3.465c0-1.881-.264-2.871-.924-3.63-.66-.792-1.518-1.056-3.828-1.188-.165,0-.594-.033-1.089-.066,2.97-.429,3.993-.759,4.752-1.551.957-1.023,1.386-2.607,1.386-4.983,0-3.432-.891-5.445-2.805-6.336-1.287-.594-2.772-.792-5.94-.792H89.18906Zm6.666-10.923v-5.676h10.6923c2.013,0,2.574.099,3.069.627.429.462.561,1.056.561,2.475,0,2.178-.627,2.574-3.861,2.574Z" transform="translate(0)"/><path id="P" class="cls-10" d="M57.83265,45.91311h6.666v-5.412h10.758c3.828,0,5.313-.231,6.6-1.023,1.815-1.122,2.574-3.3,2.574-7.491,0-4.158-.825-6.171-3.036-7.26-1.386-.693-2.475-.825-6.732-.825h-16.83Zm6.666-10.758v-5.907h9.735c2.871,0,3.531.594,3.531,3.234,0,2.079-.792,2.673-3.531,2.673Z" transform="translate(0)"/></g></svg>