<svg width="14" height="24" viewBox="0 0 14 24" fill="none" xmlns="http://www.w3.org/2000/svg">
<path fill-rule="evenodd" clip-rule="evenodd" d="M1.34758 14.8156V23.5058C1.3476 23.589 1.36903 23.6708 1.40991 23.7438C1.4508 23.8168 1.50983 23.8787 1.58159 23.9237C1.65325 23.9682 1.73538 23.9941 1.82021 23.999C1.90503 24.0039 1.98973 23.9876 2.06628 23.9517L3.83082 23.1228V16.8537C2.90997 16.2901 2.07419 15.6041 1.34758 14.8156ZM7.00078 3.55214L3.04401 4.92981L3.03891 8.8266C3.03407 9.80581 3.36553 10.7584 3.98049 11.5327C4.73904 12.4745 5.7543 13.1819 7.00078 13.6376C8.24726 13.1819 9.26299 12.4745 10.0211 11.5327C10.636 10.7586 10.9674 9.80611 10.9627 8.82705L10.9576 4.92981L7.00078 3.55214ZM10.806 12.1506C9.89596 13.2799 8.6745 14.1155 7.1713 14.6309C7.11802 14.6492 7.06192 14.6586 7.00541 14.6585H6.99151C6.93516 14.6586 6.8792 14.6493 6.82609 14.6309C5.32567 14.1133 4.10282 13.2799 3.19229 12.1506C2.43667 11.2008 2.02887 10.0317 2.03385 8.82976L2.03941 4.58382C2.0386 4.48194 2.07021 4.38233 2.12987 4.29869C2.18954 4.21505 2.27433 4.15149 2.37257 4.11676L6.83072 2.56383C6.93924 2.52635 7.05768 2.52635 7.16621 2.56383L11.6262 4.11676C11.7243 4.15134 11.8091 4.21457 11.8689 4.29783C11.9288 4.38109 11.9609 4.48033 11.9608 4.58201L11.9663 8.82796C11.9709 10.0307 11.5625 11.2004 10.806 12.1506ZM13.9917 2.75535C13.9915 2.65376 13.9592 2.5547 13.8994 2.47151C13.8396 2.38832 13.7551 2.32501 13.6572 2.2901L7.16991 0.0316175C7.06147 -0.0063074 6.94287 -0.0063074 6.83443 0.0316175L0.347153 2.2901C0.248678 2.32449 0.163441 2.38758 0.10301 2.47081C0.0425785 2.55404 0.00988012 2.65338 0.00935209 2.75535L0.00147477 8.93501C-0.00130549 10.6474 0.580232 12.3141 1.63858 13.6286C2.93604 15.2398 4.68112 16.4291 6.82562 17.1663C6.87873 17.1847 6.93469 17.194 6.99105 17.1938H7.01144C7.06779 17.194 7.12375 17.1847 7.17686 17.1663C9.32137 16.43 11.0664 15.2398 12.3639 13.6286C13.4223 12.3141 14.0038 10.6474 14.001 8.93501L13.9917 2.75535ZM10.1689 16.8555V23.1228L11.9339 23.9517C12.0103 23.9877 12.095 24.004 12.1797 23.9991C12.2645 23.9942 12.3466 23.9682 12.4181 23.9237C12.4895 23.8784 12.548 23.8165 12.5885 23.7435C12.629 23.6705 12.65 23.5888 12.6498 23.5058V14.8156C11.9233 15.6037 11.0875 16.2891 10.1666 16.8519L10.1689 16.8555ZM7.50493 18.0959C7.34524 18.1509 7.1771 18.179 7.00773 18.179H6.98734C6.81827 18.1791 6.65042 18.1509 6.49107 18.0959C5.92348 17.902 5.36962 17.6719 4.8331 17.407V22.6512L6.99985 21.6363L9.16429 22.653V17.4088C8.62805 17.6736 8.0745 17.9038 7.50725 18.0977" fill="#A5C9FF"/>
</svg>
