<svg id="Calque_1" data-name="Calque 1" xmlns="http://www.w3.org/2000/svg" viewBox="0 0 700 700"><defs><style>.cls-1{fill:#ffb660;}</style></defs><path class="cls-1" d="M519.64768,334.06633c15.36008-14.26568,6.58191-39.49843-13.16381-41.69475l-86.681-9.87283c-5.48748-1.09443-9.87283-3.291-12.06933-8.77841l-36.20691-78.99686a24.20264,24.20264,0,0,0-43.88325,0l-36.20691,78.99686a16.99242,16.99242,0,0,1-12.06934,8.77841l-85.57991,9.87283c-20.84834,2.1965-28.52467,27.42946-13.16381,41.69475l63.63638,58.15048c3.29092,3.291,5.48748,8.77841,4.3854,13.16379l-17.55663,84.48468c-4.38541,20.84834,17.55663,36.20692,36.20691,26.33427l75.70727-42.79a16.26558,16.26558,0,0,1,14.26565,0l75.70726,42.79c17.55664,9.87283,39.49844-5.48749,36.20692-26.33427l-17.55664-84.48471c-1.09442-5.48745,1.09443-9.87283,4.38541-14.26568Z"/><path class="cls-1" d="M350,0C156.7007,0,0,156.7007,0,350S156.7007,700,350,700,700,543.2993,700,350,543.2993,0,350,0Zm-.529,621.55165C199.49059,621.55165,77.91931,499.96076,77.91931,350S199.49059,78.44835,349.471,78.44835c149.96088,0,271.53217,121.59089,271.53217,271.55165S499.43184,621.55165,349.471,621.55165Z"/></svg>