<svg id="Calque_1" data-name="Calque 1" xmlns="http://www.w3.org/2000/svg" xmlns:xlink="http://www.w3.org/1999/xlink" viewBox="0 0 160.1604 27.58119"><defs><style>.cls-1{fill:#f2f2f2;}.cls-2{fill:url(#Dégradé_sans_nom_10);}</style><linearGradient id="Dégradé_sans_nom_10" x1="13.79603" y1="24.85941" x2="13.79603" y2="-1.99542" gradientTransform="translate(-0.00382 1.99542)" gradientUnits="userSpaceOnUse"><stop offset="0" stop-color="#9047ae"/><stop offset="0.58786" stop-color="#a551b2"/><stop offset="1" stop-color="#b759b6"/></linearGradient></defs><path class="cls-1" d="M20.03673,13.7906a6.24216,6.24216,0,0,1-3.87151,5.78506v7.80478l-.05009.00473a13.78721,13.78721,0,0,1-2.32055.196,14.67172,14.67172,0,0,1-2.32289-.19129V19.57565a6.24339,6.24339,0,0,1-3.87293-5.785A6.13211,6.13211,0,0,1,11.148,8.17917v5.70711l2.61592,1.56613L16.381,13.88628V8.12953A6.23332,6.23332,0,0,1,20.03673,13.7906Z" transform="translate(0)"/><path class="cls-2" d="M27.58441,13.7906a13.83292,13.83292,0,0,1-.28224,2.78979,2.62913,2.62913,0,0,0-1.98932,4.78935,13.90287,13.90287,0,0,1-7.09761,5.48509V20.804A8.29577,8.29577,0,1,0,6.1034,16.96423a8.8619,8.8619,0,0,0,3.21027,3.83861v6.05083a14.277,14.277,0,0,1-7.067-5.48507A2.62395,2.62395,0,0,0,.27907,16.57917,13.96146,13.96146,0,0,1,.28383,11.0008,2.62836,2.62836,0,0,0,2.27169,6.21258,13.826,13.826,0,0,1,6.21438,2.2689,2.62867,2.62867,0,0,0,11.0039.28224a13.91744,13.91744,0,0,1,5.57726,0,2.62882,2.62882,0,0,0,4.79059,1.98545,13.84471,13.84471,0,0,1,3.94369,3.94374,2.62828,2.62828,0,0,0,1.98666,4.78934A13.83259,13.83259,0,0,1,27.58441,13.7906Z" transform="translate(0)"/><path class="cls-1" d="M55.08618,4.69011V22.23992h-4.2749V11.71452l-3.92481,10.5254H43.43628L39.48657,11.69011V22.23992H35.21118V4.69011h5.05029l4.92481,12.14941,4.875-12.14941Z" transform="translate(0)"/><path class="cls-1" d="M69.08667,19.13933h-6.5503l-1.0498,3.10059h-4.4751l6.3501-17.54981h4.95019l6.34961,17.54981h-4.5249Zm-1.1001-3.29981-2.17481-6.4248-2.15039,6.4248Z" transform="translate(0)"/><path class="cls-1" d="M92.28637,22.23992h-4.2749l-7.1499-10.8252v10.8252H76.58618V4.69011h4.27539l7.1499,10.875V4.69011h4.2749Z" transform="translate(0)"/><path class="cls-1" d="M106.31079,19.13933H99.761l-1.0498,3.10059H94.23559l6.35059-17.54981h4.95019L111.886,22.23992h-4.52539Zm-1.09961-3.29981-2.17481-6.4248-2.15039,6.4248Z" transform="translate(0)"/><path class="cls-1" d="M125.46118,10.23992a3.20447,3.20447,0,0,0-1.36231-1.3379,4.4693,4.4693,0,0,0-2.08789-.46191,4.296,4.296,0,0,0-3.32519,1.36231,5.17266,5.17266,0,0,0-1.25,3.63769,5.23306,5.23306,0,0,0,1.3125,3.78711,4.78136,4.78136,0,0,0,3.61328,1.3623,4.36848,4.36848,0,0,0,2.66211-.7998,4.53245,4.53245,0,0,0,1.58691-2.2998h-5.4248v-3.1504h9.2998v3.97559a8.36867,8.36867,0,0,1-1.6123,2.97461,8.50178,8.50178,0,0,1-2.8877,2.22461,8.91247,8.91247,0,0,1-3.94922.85059,9.34638,9.34638,0,0,1-4.63769-1.1377,8.09614,8.09614,0,0,1-3.17481-3.16211,9.27687,9.27687,0,0,1-1.13769-4.625,9.34634,9.34634,0,0,1,1.13769-4.63769A8.09614,8.09614,0,0,1,117.386,5.62761a9.27687,9.27687,0,0,1,4.625-1.13769,8.99039,8.99039,0,0,1,5.3125,1.52441,7.20286,7.20286,0,0,1,2.86231,4.22559Z" transform="translate(0)"/><path class="cls-1" d="M137.136,8.11492v3.5498h5.72461v3.2998H137.136v3.85059h6.47461v3.42481h-10.75V4.69011h10.75V8.11492Z" transform="translate(0)"/><path class="cls-1" d="M155.3352,22.23992l-3.65039-6.625H150.6604v6.625H146.385V4.69011h7.1748a7.90107,7.90107,0,0,1,3.53809.72461,5.00147,5.00147,0,0,1,2.1875,1.9873,5.54587,5.54587,0,0,1,.72461,2.8125,5.22238,5.22238,0,0,1-.98731,3.125,5.30974,5.30974,0,0,1-2.91211,1.9502l4.04981,6.9502Zm-4.6748-9.6504h2.64941a2.42471,2.42471,0,0,0,1.7627-.57519,2.16969,2.16969,0,0,0,.58789-1.625,2.10145,2.10145,0,0,0-.58789-1.57422,2.42471,2.42471,0,0,0-1.7627-.57519H150.6604Z" transform="translate(0)"/></svg>