<svg id="Calque_1" data-name="Calque 1" xmlns="http://www.w3.org/2000/svg" xmlns:xlink="http://www.w3.org/1999/xlink" viewBox="0 0 109.38598 27.58119"><defs><style>.cls-1{fill:#f2f2f2;}.cls-2{fill:url(#Dégradé_sans_nom_16);}</style><linearGradient id="Dégradé_sans_nom_16" x1="13.79603" y1="24.85941" x2="13.79603" y2="-1.99542" gradientTransform="translate(-0.00382 1.99542)" gradientUnits="userSpaceOnUse"><stop offset="0" stop-color="#2ebf71"/><stop offset="0.21891" stop-color="#2ec377"/><stop offset="0.51605" stop-color="#2ecf88"/><stop offset="0.85663" stop-color="#2ee3a5"/><stop offset="1" stop-color="#2eedb3"/></linearGradient></defs><path class="cls-1" d="M20.03673,13.7906a6.24216,6.24216,0,0,1-3.87151,5.78506v7.80478l-.05009.00473a13.78721,13.78721,0,0,1-2.32055.196,14.67172,14.67172,0,0,1-2.32289-.19129V19.57565a6.24339,6.24339,0,0,1-3.87293-5.785A6.13211,6.13211,0,0,1,11.148,8.17917v5.70711l2.61592,1.56613L16.381,13.88628V8.12953A6.23332,6.23332,0,0,1,20.03673,13.7906Z" transform="translate(0)"/><path class="cls-2" d="M27.58441,13.7906a13.83292,13.83292,0,0,1-.28224,2.78979,2.62913,2.62913,0,0,0-1.98932,4.78935,13.90287,13.90287,0,0,1-7.09761,5.48509V20.804A8.29577,8.29577,0,1,0,6.1034,16.96423a8.8619,8.8619,0,0,0,3.21027,3.83861v6.05083a14.277,14.277,0,0,1-7.067-5.48507A2.62395,2.62395,0,0,0,.27907,16.57917,13.96146,13.96146,0,0,1,.28383,11.0008,2.62836,2.62836,0,0,0,2.27169,6.21258,13.826,13.826,0,0,1,6.21438,2.2689,2.62867,2.62867,0,0,0,11.0039.28224a13.91744,13.91744,0,0,1,5.57726,0,2.62882,2.62882,0,0,0,4.79059,1.98545,13.84471,13.84471,0,0,1,3.94369,3.94374,2.62828,2.62828,0,0,0,1.98666,4.78934A13.83259,13.83259,0,0,1,27.58441,13.7906Z" transform="translate(0)"/><path class="cls-1" d="M38.61157,22.1529a5.61475,5.61475,0,0,1-2.4375-1.84961,5.05106,5.05106,0,0,1-.96289-2.95019h4.55029a2.20761,2.20761,0,0,0,.67481,1.4873,2.16921,2.16921,0,0,0,1.5.5127,2.34411,2.34411,0,0,0,1.5-.4375,1.4646,1.4646,0,0,0,.55029-1.21289,1.44053,1.44053,0,0,0-.4375-1.0752,3.54236,3.54236,0,0,0-1.0752-.69922,17.24132,17.24132,0,0,0-1.8125-.625,19.684,19.684,0,0,1-2.7749-1.05078,5.11892,5.11892,0,0,1-1.8501-1.5498,4.318,4.318,0,0,1-.7749-2.67481A4.60147,4.60147,0,0,1,37.03637,6.19a7.2944,7.2944,0,0,1,4.625-1.38672A7.37944,7.37944,0,0,1,46.33618,6.19a4.97065,4.97065,0,0,1,1.90039,3.86328h-4.625a1.81365,1.81365,0,0,0-.625-1.33789,2.20159,2.20159,0,0,0-1.4751-.4873,1.84,1.84,0,0,0-1.25.41211,1.48768,1.48768,0,0,0-.4751,1.1875,1.47127,1.47127,0,0,0,.79981,1.32519,13.15891,13.15891,0,0,0,2.5,1.02539,23.12224,23.12224,0,0,1,2.76269,1.09961,5.25464,5.25464,0,0,1,1.83741,1.52539,4.07943,4.07943,0,0,1,.7749,2.57422A5.05436,5.05436,0,0,1,47.699,20.1031a5.34777,5.34777,0,0,1-2.2124,1.95019,7.57572,7.57572,0,0,1-3.42529.72461A9.01677,9.01677,0,0,1,38.61157,22.1529Z" transform="translate(0)"/><path class="cls-1" d="M63.71069,5.05329V8.4781h-4.6499v14.125H54.78588V8.4781H50.136V5.05329Z" transform="translate(0)"/><path class="cls-1" d="M76.78588,19.50251H70.23559l-1.0498,3.10059h-4.4751l6.3501-17.54981H76.011L82.36059,22.6031h-4.5249Zm-1.10009-3.2998L73.511,9.7779l-2.15039,6.42481Z" transform="translate(0)"/><path class="cls-1" d="M95.7102,5.05329V8.4781H88.56079v3.70019H93.9104v3.32422H88.56079V22.6031H84.2854V5.05329Z" transform="translate(0)"/><path class="cls-1" d="M109.386,5.05329V8.4781h-7.15039v3.70019h5.34961v3.32422h-5.34961V22.6031H97.9602V5.05329Z" transform="translate(0)"/></svg>