<svg id="Calque_1" data-name="Calque 1" xmlns="http://www.w3.org/2000/svg" xmlns:xlink="http://www.w3.org/1999/xlink" viewBox="0 0 101.21069 27.58119"><defs><style>.cls-1{fill:#f2f2f2;}.cls-2{fill:url(#Dégradé_sans_nom_3);}</style><linearGradient id="Dégradé_sans_nom_3" x1="13.79603" y1="24.85941" x2="13.79603" y2="-1.99542" gradientTransform="translate(-0.00382 1.99542)" gradientUnits="userSpaceOnUse"><stop offset="0" stop-color="#e94a58"/><stop offset="0.48597" stop-color="#e94c57"/><stop offset="0.66101" stop-color="#ea5355"/><stop offset="0.78576" stop-color="#ec5e51"/><stop offset="0.88662" stop-color="#ee6f4c"/><stop offset="0.97202" stop-color="#f18545"/><stop offset="1" stop-color="#f28e42"/></linearGradient></defs><path class="cls-1" d="M20.03673,13.7906a6.24216,6.24216,0,0,1-3.87151,5.78506v7.80478l-.05009.00473a13.78721,13.78721,0,0,1-2.32055.196,14.67172,14.67172,0,0,1-2.32289-.19129V19.57565a6.24339,6.24339,0,0,1-3.87293-5.785A6.13211,6.13211,0,0,1,11.148,8.17917v5.70711l2.61592,1.56613L16.381,13.88628V8.12953A6.23332,6.23332,0,0,1,20.03673,13.7906Z"/><path class="cls-2" d="M27.58441,13.7906a13.83292,13.83292,0,0,1-.28224,2.78979,2.62913,2.62913,0,0,0-1.98932,4.78935,13.90287,13.90287,0,0,1-7.09761,5.48509V20.804A8.29577,8.29577,0,1,0,6.1034,16.96423a8.8619,8.8619,0,0,0,3.21027,3.83861v6.05083a14.277,14.277,0,0,1-7.067-5.48507A2.62395,2.62395,0,0,0,.27907,16.57917,13.96146,13.96146,0,0,1,.28383,11.0008,2.62836,2.62836,0,0,0,2.27169,6.21258,13.826,13.826,0,0,1,6.21438,2.2689,2.62867,2.62867,0,0,0,11.0039.28224a13.91744,13.91744,0,0,1,5.57726,0,2.62882,2.62882,0,0,0,4.79059,1.98545,13.84471,13.84471,0,0,1,3.94369,3.94374,2.62828,2.62828,0,0,0,1.98666,4.78934A13.83259,13.83259,0,0,1,27.58441,13.7906Z"/><path class="cls-1" d="M50.41137,4.65251V22.20232h-4.2749V14.97673h-6.6499v7.22559H35.21118V4.65251h4.27539v6.875h6.6499v-6.875Z"/><path class="cls-1" d="M57.76147,8.07732v3.5498h5.72461v3.29981H57.76147v3.85058h6.47461v3.42481h-10.75V4.65251h10.75V8.07732Z"/><path class="cls-1" d="M77.93579,19.10173h-6.5503l-1.0498,3.10059h-4.4751l6.3501-17.54981h4.95019l6.34961,17.54981h-4.5249Zm-1.1001-3.2998L74.66088,9.37712l-2.15039,6.42481Z"/><path class="cls-1" d="M96.8601,5.75212A7.86279,7.86279,0,0,1,100.073,8.84a9.07565,9.07565,0,0,1,1.1377,4.58741,9.0944,9.0944,0,0,1-1.1377,4.5747,7.811,7.811,0,0,1-3.22558,3.09961,10.21311,10.21311,0,0,1-4.83692,1.10059H85.4353V4.65251h6.57519A10.21369,10.21369,0,0,1,96.8601,5.75212ZM95.51049,17.17693a5.01688,5.01688,0,0,0,1.34961-3.74951,5.10488,5.10488,0,0,0-1.34961-3.77491A5.1039,5.1039,0,0,0,91.7351,8.30242H89.71069v10.1997H91.7351A5.16,5.16,0,0,0,95.51049,17.17693Z"/></svg>