<svg id="Calque_1" data-name="Calque 1" xmlns="http://www.w3.org/2000/svg" xmlns:xlink="http://www.w3.org/1999/xlink" viewBox="0 0 121.83618 27.58119"><defs><style>.cls-1{fill:#f2f2f2;}.cls-2{fill:url(#Dégradé_sans_nom_13);}</style><linearGradient id="Dégradé_sans_nom_13" x1="13.79603" y1="24.85941" x2="13.79603" y2="-1.99542" gradientTransform="translate(-0.00382 1.99542)" gradientUnits="userSpaceOnUse"><stop offset="0" stop-color="#ef9b32"/><stop offset="0.24776" stop-color="#efa034"/><stop offset="0.52859" stop-color="#f0ad38"/><stop offset="0.82452" stop-color="#f0c43f"/><stop offset="1" stop-color="#f1d545"/></linearGradient></defs><path class="cls-1" d="M20.03673,13.7906a6.24216,6.24216,0,0,1-3.87151,5.78506v7.80478l-.05009.00473a13.78721,13.78721,0,0,1-2.32055.196,14.67172,14.67172,0,0,1-2.32289-.19129V19.57565a6.24339,6.24339,0,0,1-3.87293-5.785A6.13211,6.13211,0,0,1,11.148,8.17917v5.70711l2.61592,1.56613L16.381,13.88628V8.12953A6.23332,6.23332,0,0,1,20.03673,13.7906Z" transform="translate(0)"/><path class="cls-2" d="M27.58441,13.7906a13.83292,13.83292,0,0,1-.28224,2.78979,2.62913,2.62913,0,0,0-1.98932,4.78935,13.90287,13.90287,0,0,1-7.09761,5.48509V20.804A8.29577,8.29577,0,1,0,6.1034,16.96423a8.8619,8.8619,0,0,0,3.21027,3.83861v6.05083a14.277,14.277,0,0,1-7.067-5.48507A2.62395,2.62395,0,0,0,.27907,16.57917,13.96146,13.96146,0,0,1,.28383,11.0008,2.62836,2.62836,0,0,0,2.27169,6.21258,13.826,13.826,0,0,1,6.21438,2.2689,2.62867,2.62867,0,0,0,11.0039.28224a13.91744,13.91744,0,0,1,5.57726,0,2.62882,2.62882,0,0,0,4.79059,1.98545,13.84471,13.84471,0,0,1,3.94369,3.94374,2.62828,2.62828,0,0,0,1.98666,4.78934A13.83259,13.83259,0,0,1,27.58441,13.7906Z" transform="translate(0)"/><path class="cls-1" d="M48.28637,15.15339a4.29431,4.29431,0,0,1,.92481,2.71191,4.30926,4.30926,0,0,1-1.53711,3.48731,6.48191,6.48191,0,0,1-4.2876,1.28808H35.21118V5.09089h7.90039a6.47991,6.47991,0,0,1,4.1875,1.22461,4.05265,4.05265,0,0,1,1.51221,3.32519,4.01851,4.01851,0,0,1-.8125,2.5752,4.19786,4.19786,0,0,1-2.1626,1.4248A4.082,4.082,0,0,1,48.28637,15.15339Zm-8.7998-2.96289h2.7998a2.47651,2.47651,0,0,0,1.61231-.46289,1.65951,1.65951,0,0,0,.5625-1.36231,1.70049,1.70049,0,0,0-.5625-1.375,2.43371,2.43371,0,0,0-1.61231-.47461h-2.7998Zm4.8125,6.51269a1.73318,1.73318,0,0,0,.5874-1.41308,1.80731,1.80731,0,0,0-.61279-1.44922,2.50654,2.50654,0,0,0-1.6875-.52539H39.48657v3.875h3.1499A2.53569,2.53569,0,0,0,44.29907,18.70319Z" transform="translate(0)"/><path class="cls-1" d="M55.449,21.66511a8.58594,8.58594,0,0,1-3.2749-3.21192,8.976,8.976,0,0,1-1.2124-4.63769,8.91015,8.91015,0,0,1,1.2124-4.625A8.62534,8.62534,0,0,1,55.449,5.9903a9.53139,9.53139,0,0,1,9.0752,0,8.44889,8.44889,0,0,1,3.25,3.2002,9.06464,9.06464,0,0,1,1.1875,4.625,9.05315,9.05315,0,0,1-1.2002,4.63769,8.52509,8.52509,0,0,1-3.25,3.21192,9.49921,9.49921,0,0,1-9.0625,0Zm7.8999-4.14942a5.31756,5.31756,0,0,0,1.2627-3.70019,5.309,5.309,0,0,0-1.2627-3.71289,4.32554,4.32554,0,0,0-3.3623-1.38672,4.37339,4.37339,0,0,0-3.3877,1.375,5.29247,5.29247,0,0,0-1.2622,3.72461,5.30654,5.30654,0,0,0,1.2622,3.71289,4.355,4.355,0,0,0,3.3877,1.38672A4.30537,4.30537,0,0,0,63.34887,17.51569Z" transform="translate(0)"/><path class="cls-1" d="M82.26147,19.54011H75.71118l-1.04981,3.10058H70.18628l6.35009-17.5498h4.9502l6.34961,17.5498h-4.5249Zm-1.1001-3.29981-2.1748-6.4248-2.15039,6.4248Z" transform="translate(0)"/><path class="cls-1" d="M98.71118,22.64069l-3.65039-6.625H94.03637v6.625H89.761V5.09089h7.17481a7.901,7.901,0,0,1,3.53808.72461,5.00677,5.00677,0,0,1,2.1875,1.9873,5.55563,5.55563,0,0,1,.72461,2.8125,5.22238,5.22238,0,0,1-.9873,3.125,5.31589,5.31589,0,0,1-2.91309,1.9502l4.05078,6.95019ZM94.03637,12.9903h2.64942a2.42466,2.42466,0,0,0,1.76269-.57519,2.16969,2.16969,0,0,0,.58789-1.625,2.10145,2.10145,0,0,0-.58789-1.57422,2.42467,2.42467,0,0,0-1.76269-.5752H94.03637Z" transform="translate(0)"/><path class="cls-1" d="M117.48559,6.1905a7.85969,7.85969,0,0,1,3.21289,3.08789,9.0726,9.0726,0,0,1,1.1377,4.58691,9.09507,9.09507,0,0,1-1.1377,4.5752,7.81113,7.81113,0,0,1-3.22558,3.09961,10.21325,10.21325,0,0,1-4.83692,1.10058h-6.57519V5.09089H112.636A10.20792,10.20792,0,0,1,117.48559,6.1905ZM116.136,17.6153a5.01728,5.01728,0,0,0,1.34961-3.75,5.10365,5.10365,0,0,0-1.34961-3.77441,5.10414,5.10414,0,0,0-3.77539-1.35059h-2.02441V18.9405h2.02441A5.16,5.16,0,0,0,116.136,17.6153Z" transform="translate(0)"/></svg>