<svg width="48" height="48" viewBox="0 0 48 48" fill="none" xmlns="http://www.w3.org/2000/svg">
<path fill-rule="evenodd" clip-rule="evenodd" d="M39.3754 1.45888L41.4323 3.97262C41.4987 4.05329 41.5944 4.10438 41.6984 4.11475C41.8024 4.12513 41.9063 4.09393 41.9873 4.02798L44.4977 1.97189C44.5786 1.90599 44.6823 1.8748 44.7861 1.88516C44.89 1.89551 44.9855 1.94656 45.0517 2.02714L47.1096 4.54099C47.1426 4.58093 47.1672 4.62698 47.1823 4.67649C47.1973 4.726 47.2024 4.77799 47.1973 4.82948C47.1921 4.88097 47.1769 4.93094 47.1524 4.9765C47.1278 5.02207 47.0945 5.06233 47.0544 5.09498L36.4544 13.5146C36.4143 13.5472 36.381 13.5875 36.3565 13.6331C36.332 13.6786 36.3167 13.7286 36.3116 13.7801C36.3064 13.8316 36.3115 13.8836 36.3266 13.9331C36.3416 13.9826 36.3663 14.0286 36.3992 14.0686L37.2059 15.054C37.2671 15.1285 37.2988 15.223 37.2948 15.3194C37.2908 15.4158 37.2514 15.5074 37.1842 15.5766L32.2413 20.7047C31.7168 21.2489 31.3909 21.9539 31.316 22.7059L30.6628 29.2559C30.6212 29.6695 30.4173 30.0497 30.0957 30.3129C29.774 30.5762 29.3611 30.7011 28.9474 30.6601L25.631 30.3294C25.22 30.2891 24.8064 30.3737 24.4441 30.5721C24.0819 30.7705 23.7879 31.0734 23.6005 31.4414L20.9919 36.5731C20.9738 36.6086 20.9504 36.641 20.9225 36.6694L12.5319 45.7906C12.3406 45.9867 12.1101 46.1401 11.8554 46.2409C11.6007 46.3417 11.3276 46.3876 11.054 46.3756C10.7804 46.3635 10.5123 46.2939 10.2675 46.1712C10.0226 46.0485 9.80641 45.8754 9.63301 45.6634L3.29658 37.9231C3.13432 37.7253 3.01268 37.4974 2.93859 37.2525C2.86451 37.0077 2.83944 36.7506 2.86483 36.496C2.89022 36.2414 2.96557 35.9943 3.08655 35.7689C3.20754 35.5435 3.3718 35.3441 3.56993 35.1822L12.2015 28.1557C12.9042 27.5807 13.8042 27.3039 14.7087 27.3845L17.5807 27.6395C17.9684 27.6738 18.3538 27.5528 18.6523 27.3031C18.9508 27.0534 19.1379 26.6953 19.1725 26.3077L19.4193 23.5174C19.4577 23.0832 19.5825 22.661 19.7864 22.2757C19.9903 21.8904 20.2692 21.5498 20.6067 21.274L39.8174 5.8073C39.8576 5.77456 39.8909 5.73421 39.9155 5.68856C39.94 5.6429 39.9553 5.59285 39.9604 5.54127C39.9656 5.4897 39.9605 5.43761 39.9454 5.38801C39.9304 5.33841 39.9057 5.29227 39.8728 5.25224L37.8198 2.73236C37.7539 2.65148 37.7227 2.54778 37.7331 2.44396C37.7434 2.34014 37.7945 2.24465 37.8751 2.17837L38.8214 1.40363C38.9023 1.33772 39.006 1.30654 39.1098 1.31689C39.2137 1.32724 39.3092 1.3783 39.3754 1.45888ZM25.7883 28.3168L28.3087 28.5681C28.3601 28.5732 28.412 28.5682 28.4615 28.5533C28.511 28.5383 28.557 28.5138 28.597 28.481C28.637 28.4483 28.6701 28.408 28.6945 28.3625C28.719 28.3169 28.7342 28.267 28.7393 28.2156L29.0579 25.0208C29.0659 24.9393 29.0483 24.8574 29.0076 24.7864C28.967 24.7154 28.9052 24.6587 28.831 24.6244C28.7567 24.59 28.6736 24.5795 28.5931 24.5945C28.5127 24.6094 28.4388 24.649 28.3819 24.7078L25.5439 27.6514C25.5171 27.6805 25.4942 27.7129 25.4757 27.7478C25.4471 27.8049 25.4329 27.8681 25.4341 27.9319C25.4353 27.9957 25.452 28.0583 25.4828 28.1143C25.5135 28.1702 25.5574 28.2179 25.6106 28.2531C25.6638 28.2884 25.7248 28.3102 25.7883 28.3168ZM27.1113 8.14835L13.7516 19.087C13.4526 19.3318 13.2632 19.6853 13.2248 20.0698C13.1865 20.4543 13.3024 20.8382 13.5471 21.1373L14.2574 22.011C14.5022 22.3099 14.8557 22.4994 15.2402 22.5377C15.6247 22.5761 16.0086 22.4601 16.3077 22.2154L29.6679 11.2714C29.8161 11.1503 29.9389 11.0012 30.0293 10.8325C30.1198 10.6639 30.1761 10.4791 30.1951 10.2887C30.2141 10.0982 30.1954 9.90596 30.14 9.72278C30.0846 9.53961 29.9937 9.36914 29.8724 9.22114L29.1616 8.35282C28.9167 8.05388 28.5632 7.86441 28.1787 7.82607C27.7943 7.78772 27.4103 7.90365 27.1113 8.14835Z" fill="black"/>
</svg>
