<svg width="48" height="48" viewBox="0 0 48 48" fill="none" xmlns="http://www.w3.org/2000/svg">
<path fill-rule="evenodd" clip-rule="evenodd" d="M32.5623 12.8253C31.5439 13.6387 30.275 14.0738 28.9718 14.0565C27.4787 14.0363 26.0546 13.4244 25.0122 12.3552C24.1026 11.4217 23.5449 10.2017 23.434 8.90315C23.3231 7.60456 23.666 6.3077 24.4042 5.23357C25.1423 4.15944 26.2301 3.37451 27.4821 3.01252C28.7342 2.65054 30.073 2.73391 31.2704 3.24842C32.4679 3.76294 33.4499 4.67676 34.0491 5.83417C34.6483 6.99157 34.8276 8.32095 34.5565 9.59575C34.2854 10.8706 33.5806 12.0119 32.5623 12.8253ZM33.6668 19.6347L40.6321 18.2591L40.6597 18.2477C40.9172 18.1911 41.1834 18.1865 41.4427 18.2339C41.702 18.2814 41.9492 18.3801 42.1699 18.5242C42.3906 18.6684 42.5804 18.8551 42.7282 19.0734C42.8759 19.2917 42.9786 19.5373 43.0303 19.7958C43.0941 20.0513 43.1055 20.317 43.0639 20.577C43.0223 20.837 42.9286 21.0859 42.7884 21.3088C42.6482 21.5317 42.4644 21.7239 42.2481 21.874C42.0317 22.024 41.7872 22.1288 41.5293 22.182L33.797 24.3023C33.3164 24.4131 32.8127 24.3613 32.3647 24.155L32.2097 24.0794L28.5133 22.2835L27.5153 27.093L29.6702 26.9561L29.9455 26.9349C30.3819 26.859 30.8308 26.9514 31.2017 27.1936L40.4819 32.5395C40.9468 32.8275 41.2832 33.2831 41.4217 33.8121C41.5602 34.3411 41.4901 34.9031 41.226 35.382C40.9732 35.8223 40.5677 36.1547 40.0863 36.3161C39.6049 36.4776 39.0811 36.4569 38.6139 36.258L29.5762 32.4709C29.5762 32.4709 20.3833 33.7735 20.3194 33.7949L16.1268 41.5796C15.932 41.9117 15.6653 42.196 15.3462 42.4116C15.0272 42.6272 14.6639 42.7686 14.2831 42.8255L6.03655 43.6685C5.46113 43.7133 4.89036 43.5363 4.44117 43.1739C3.99199 42.8115 3.69839 42.291 3.62053 41.7191C3.54267 41.1473 3.68645 40.5672 4.02241 40.0979C4.35836 39.6286 4.86106 39.3056 5.42752 39.1949L12.1969 37.9708L15.2985 31.4244L17.5587 19.5493L14.9828 20.2835L11.188 28.8426C11.0358 29.2359 10.7344 29.5532 10.3495 29.7253C9.96454 29.8974 9.52718 29.9105 9.13264 29.7616C8.73811 29.6128 8.41836 29.3141 8.24303 28.9306C8.06769 28.5471 8.05097 28.1098 8.19651 27.7141L11.2641 17.6477C11.3617 17.373 11.5179 17.1228 11.7219 16.9146C11.9259 16.7063 12.1729 16.5451 12.4455 16.4419L12.6975 16.3574L19.8787 13.5977C21.1567 13.098 25.6521 15.2305 26.8946 15.8599C26.9548 15.8397 33.6668 19.6347 33.6668 19.6347Z" fill="black"/>
</svg>
