<svg width="16" height="16" viewBox="0 0 16 16" fill="none" xmlns="http://www.w3.org/2000/svg">
<path d="M9.46585 8.01229L15.6959 1.78201C16.1014 1.37676 16.1014 0.721523 15.6959 0.316269C15.2907 -0.0889842 14.6354 -0.0889842 14.2302 0.316269L7.99992 6.54654L1.76983 0.316269C1.36439 -0.0889842 0.709336 -0.0889842 0.304083 0.316269C-0.101361 0.721523 -0.101361 1.37676 0.304083 1.78201L6.53417 8.01229L0.304083 14.2426C-0.101361 14.6478 -0.101361 15.3031 0.304083 15.7083C0.506045 15.9105 0.771595 16.012 1.03696 16.012C1.30232 16.012 1.56768 15.9105 1.76983 15.7083L7.99992 9.47803L14.2302 15.7083C14.4323 15.9105 14.6977 16.012 14.9631 16.012C15.2284 16.012 15.4938 15.9105 15.6959 15.7083C16.1014 15.3031 16.1014 14.6478 15.6959 14.2426L9.46585 8.01229Z" fill="white"/>
</svg>
