<svg width="48" height="48" viewBox="0 0 48 48" fill="none" xmlns="http://www.w3.org/2000/svg">
<path fill-rule="evenodd" clip-rule="evenodd" d="M19.8899 16.9868C19.8899 16.9868 19.2108 19.3161 18.7139 20.5689C18.4207 21.3145 18.0245 22.0144 17.5371 22.6479C16.9428 23.2931 16.1948 23.7747 15.3635 24.0472L8.89846 26.1588C8.70178 26.2231 8.49159 26.234 8.28905 26.1904C8.08652 26.1468 7.89879 26.0502 7.74478 25.9103C5.91827 24.2549 4.55488 22.1455 3.79169 19.7943C3.0285 17.443 2.89242 14.9327 3.39713 12.5159C3.41806 12.4378 3.43525 12.3615 3.45243 12.2853C3.85776 10.5025 4.71963 8.85936 5.9523 7.51928C7.18333 6.18173 8.73381 5.18407 10.4569 4.62073L16.0642 2.78943C17.7874 2.22724 19.6259 2.11785 21.4057 2.47161C23.1884 2.82762 24.8494 3.6467 26.224 4.84765C26.2434 4.86512 26.2629 4.88257 26.2825 4.90001C26.3215 4.93486 26.3605 4.9697 26.3986 5.00472C28.2236 6.66012 29.5867 8.76817 30.3512 11.1178C30.4483 11.4178 30.4234 11.744 30.2819 12.0247C30.1405 12.3054 29.8941 12.5177 29.5968 12.615L21.6708 15.2035C21.2559 15.3395 20.8787 15.5716 20.5694 15.8813C20.2602 16.191 20.0274 16.5696 19.8899 16.9868ZM43.0355 9.22134C43.078 9.20637 43.1171 9.18311 43.1505 9.15291C43.2183 9.09229 43.3073 9.06104 43.3981 9.06598C43.4889 9.07092 43.5741 9.11165 43.6351 9.17928L44.3152 9.94136C44.3759 10.0093 44.4227 10.0885 44.4529 10.1745C44.4831 10.2606 44.4961 10.3517 44.4912 10.4427C44.4862 10.5337 44.4634 10.6228 44.4241 10.7049C44.3847 10.787 44.3296 10.8605 44.2619 10.9212L33.2678 20.778C32.9748 21.0408 32.772 21.2839 32.815 21.4393L32.8183 21.4493C32.8632 21.6051 32.8634 21.7704 32.8188 21.9261C32.7742 22.0819 32.6868 22.2219 32.5664 22.33L29.9316 24.6917C29.9244 24.698 29.9187 24.7058 29.9147 24.7145C29.9108 24.7232 29.9087 24.7326 29.9087 24.7421C29.9087 24.7517 29.9108 24.7611 29.9147 24.7699C29.9186 24.7786 29.9244 24.7863 29.9315 24.7926C31.9382 26.6954 34.3197 26.4778 35.6464 26.1427C35.7623 26.1134 35.8834 26.1114 36.0003 26.1368C36.1172 26.1621 36.2267 26.2142 36.3203 26.2889C36.4138 26.3635 36.489 26.4589 36.5398 26.5674C36.5907 26.6759 36.6158 26.7946 36.6133 26.9144C36.6007 27.5985 36.6075 28.5868 36.6853 29.8464C36.6965 30.0297 36.6435 30.2111 36.5356 30.3594C36.4278 30.5077 36.2716 30.6136 36.0941 30.659C31.9592 31.7079 29.8717 30.7494 27.3528 29.5929C27.1736 29.5106 26.9922 29.4273 26.8078 29.3437C26.7939 29.3369 26.7782 29.3351 26.7632 29.3387C26.7482 29.3423 26.735 29.3511 26.7258 29.3634C26.7166 29.3758 26.712 29.391 26.7129 29.4064C26.7137 29.4218 26.7198 29.4365 26.7303 29.4478C26.8462 29.5783 26.906 29.7494 26.8966 29.9238C26.8871 30.0981 26.8092 30.2615 26.6799 30.3783L23.2423 33.4598C23.2326 33.4689 23.2258 33.4806 23.2225 33.4935C23.2193 33.5063 23.2198 33.5198 23.2239 33.5325C23.7222 34.9141 24.4468 36.1457 24.9607 36.6134C25.6437 37.2373 25.1065 37.8194 25.0564 37.8721L25.0473 37.8751C24.9676 37.9174 23.8024 38.5324 23.2045 38.7248C22.6067 38.9172 22.0397 38.0917 21.9964 38.0273L21.9934 38.0182C21.9358 37.8858 20.5403 34.7048 20.1189 33.9889C19.7162 33.3051 18.47 33.9648 18.3116 34.0522C18.3005 34.0577 18.2914 34.0667 18.2858 34.0778L12.1337 45.2003C12.0323 45.3838 11.8885 45.5402 11.7143 45.6566C11.5402 45.7729 11.3407 45.8458 11.1326 45.869C10.9244 45.8923 10.7137 45.8653 10.5179 45.7903C10.3222 45.7154 10.1471 45.5945 10.0073 45.438L7.12513 42.2029C6.89511 41.9445 6.77576 41.606 6.79293 41.2605C6.81009 40.915 6.96239 40.5904 7.21684 40.357C8.8123 38.8986 11.8754 36.1227 12.2276 35.9697C12.4515 35.8726 12.8098 35.8596 13.1608 35.8468C13.565 35.8321 13.9595 35.8178 14.1283 35.6759C14.9701 34.9646 16.0858 33.4026 16.6011 32.5211C16.6343 32.4633 16.6502 32.3971 16.6471 32.3304L16.5896 31.2952C16.5867 31.2441 16.5952 31.1931 16.6144 31.1457C16.6337 31.0984 16.6632 31.056 16.7009 31.0216L17.1377 30.6299C17.2043 30.5701 17.2447 30.4866 17.2504 30.3972L17.2976 29.6957C17.3033 29.6063 17.3437 29.5227 17.4103 29.463L17.4218 29.4521L26.4244 21.3825C26.4579 21.3525 26.4851 21.3161 26.5045 21.2755C26.5239 21.2348 26.5352 21.1908 26.5376 21.1458C26.54 21.1007 26.5335 21.0557 26.5185 21.0132C26.5035 20.9706 26.4803 20.9315 26.4503 20.8979C26.3897 20.8298 26.3585 20.7404 26.3634 20.6494C26.3684 20.5583 26.4091 20.473 26.4767 20.4121L26.8243 20.1011L27.3193 19.6571L29.5389 17.6668C29.5724 17.6366 29.6116 17.6135 29.6542 17.5985C29.6967 17.5836 29.7418 17.5772 29.7868 17.5797C29.8318 17.5823 29.8759 17.5937 29.9166 17.6133C29.9572 17.6329 29.9937 17.6603 30.0237 17.6941C30.0537 17.7278 30.09 17.7552 30.1306 17.7748C30.1712 17.7944 30.2152 17.8058 30.2602 17.8082C30.3052 17.8107 30.3501 17.8043 30.3926 17.7892C30.435 17.7742 30.474 17.7509 30.5074 17.7207L33.3008 15.2171C33.3343 15.187 33.3734 15.1638 33.4159 15.1489C33.4584 15.134 33.5034 15.1277 33.5484 15.1302C33.5933 15.1328 33.6373 15.1442 33.6779 15.1639C33.7185 15.1835 33.7548 15.2109 33.7848 15.2446C33.8148 15.2782 33.8512 15.3056 33.8918 15.3251C33.9323 15.3446 33.9763 15.356 34.0213 15.3584C34.0662 15.3609 34.1111 15.3545 34.1535 15.3396C34.196 15.3246 34.235 15.3014 34.2685 15.2713L36.7206 13.0735C36.782 13.019 36.8606 12.9882 36.9426 12.9864L38.7885 12.9518C38.8707 12.951 38.9497 12.92 39.0105 12.8647L41.0568 11.0302C41.1133 10.9796 41.1514 10.9118 41.1653 10.8371C41.1792 10.7625 41.168 10.6853 41.1336 10.6176L40.0825 8.55816C40.0482 8.49059 40.0371 8.41355 40.051 8.33907C40.065 8.26459 40.1031 8.19688 40.1596 8.1465L40.8107 7.56231C40.8442 7.53211 40.8833 7.50885 40.9258 7.49388C40.9683 7.4789 41.0133 7.47252 41.0583 7.47508C41.1033 7.47764 41.1474 7.48911 41.1879 7.50882C41.2285 7.52852 41.2648 7.55608 41.2947 7.58989L42.6666 9.12532C42.6965 9.15914 42.7328 9.18669 42.7733 9.2064C42.8139 9.22611 42.858 9.23757 42.903 9.24013C42.948 9.2427 42.993 9.23631 43.0355 9.22134ZM23.6977 32.1269L26.058 30.0107C26.1824 29.8992 25.8955 29.5406 25.7838 29.4149L25.3302 28.9072C25.3184 28.8942 25.302 28.8864 25.2846 28.8856C25.2671 28.8847 25.25 28.8908 25.2371 28.9025L22.7834 31.1019C22.7704 31.1136 22.7626 31.13 22.7616 31.1475C22.7606 31.165 22.7664 31.1822 22.7779 31.1955L23.6052 32.121C23.6168 32.134 23.633 32.1419 23.6503 32.143C23.6676 32.1441 23.6847 32.1383 23.6977 32.1269Z" fill="black"/>
</svg>
