<svg width="17" height="17" viewBox="0 0 17 17" fill="none" xmlns="http://www.w3.org/2000/svg">
<g clip-path="url(#clip0)">
<path d="M4.76674 -3.05176e-05H15.436C15.7111 -3.05176e-05 15.9341 0.222962 15.9341 0.498016V13.3012C15.9341 13.5762 15.7111 13.7992 15.436 13.7992H4.76674C4.49168 13.7992 4.26869 13.5762 4.26869 13.3012V0.498016C4.26869 0.222962 4.49168 -3.05176e-05 4.76674 -3.05176e-05Z" fill="#2F3952"/>
<path d="M1.56459 3.20073H3.27123V13.3011C3.27123 14.125 3.94147 14.7953 4.76537 14.7953H12.7319V16.5019C12.7319 16.777 12.5089 16.9999 12.2339 16.9999H1.56459C1.28954 16.9999 1.06655 16.777 1.06655 16.5019V3.69878C1.06655 3.42372 1.28954 3.20073 1.56459 3.20073Z" fill="#2F3952"/>
</g>
<defs>
<clipPath id="clip0">
<rect width="17" height="17" fill="white" transform="matrix(-1 0 0 1 17 -3.05176e-05)"/>
</clipPath>
</defs>
</svg>
