<svg width="13" height="13" viewBox="0 0 13 13" fill="none" xmlns="http://www.w3.org/2000/svg">
<g clip-path="url(#clip0_1217:1362)">
<path d="M3.88342 0.686279H11.1361C11.323 0.686279 11.4746 0.837862 11.4746 1.02484V9.728C11.4746 9.91497 11.323 10.0666 11.1361 10.0666H3.88342C3.69645 10.0666 3.54486 9.91497 3.54486 9.728V1.02484C3.54486 0.837862 3.69645 0.686279 3.88342 0.686279Z" fill="#ADBCD0"/>
<path d="M1.70691 2.86206H2.86702V9.72797C2.86702 10.288 3.32263 10.7436 3.88269 10.7436H9.2981V11.9038C9.2981 12.0907 9.14651 12.2423 8.95954 12.2423H1.70691C1.51993 12.2423 1.36835 12.0907 1.36835 11.9038V3.20062C1.36835 3.01364 1.51993 2.86206 1.70691 2.86206Z" fill="#ADBCD0"/>
</g>
<defs>
<clipPath id="clip0_1217:1362">
<rect width="11.556" height="11.556" fill="white" transform="matrix(-1 0 0 1 12.1992 0.686279)"/>
</clipPath>
</defs>
</svg>
