<svg width="48" height="48" viewBox="0 0 48 48" fill="none" xmlns="http://www.w3.org/2000/svg">
<path d="M23.8666 3.99997C19.509 4.00048 15.33 5.73094 12.2477 8.8111C9.16537 11.8913 7.432 16.0691 7.42847 20.4266V29.6647C7.42946 30.4246 7.62652 31.1712 8.00058 31.8326C8.37463 32.494 8.91304 33.0476 9.56371 33.44L12.358 35.1257C13.0082 35.5184 13.5461 36.0722 13.9198 36.7335C14.2935 37.3948 14.4903 38.1413 14.4913 38.9009V39.5809C14.4933 40.7513 14.9592 41.8732 15.7867 42.7007C16.6143 43.5283 17.7362 43.9941 18.9066 43.9962H28.8475C30.0181 43.9941 31.1401 43.5284 31.968 42.7009C32.7959 41.8733 33.2621 40.7515 33.2647 39.5809V38.9085C33.2649 38.149 33.4612 37.4024 33.8346 36.741C34.208 36.0796 34.7459 35.5259 35.3961 35.1333L38.2018 33.4476C38.8536 33.0547 39.3926 32.4999 39.7665 31.837C40.1403 31.1741 40.3362 30.4258 40.3351 29.6647V20.4266C40.3341 18.2662 39.9072 16.1272 39.0787 14.1319C38.2502 12.1367 37.0364 10.3243 35.5068 8.79864C33.9772 7.27293 32.1618 6.06379 30.1645 5.24038C28.1671 4.41698 26.027 3.99547 23.8666 3.99997ZM15.3332 27.9619C14.8149 27.9739 14.2998 27.8774 13.8209 27.6786C13.3421 27.4798 12.9101 27.1831 12.5526 26.8075C12.1952 26.432 11.9202 25.9858 11.7453 25.4978C11.5704 25.0097 11.4995 24.4904 11.537 23.9733C11.537 23.9733 11.2589 18.3524 18.3408 18.3524C18.3408 18.3524 21.8608 18.2019 21.7694 21.4247C21.7161 21.4247 21.5561 27.9619 15.3808 27.9619H15.3332ZM23.6856 33.2209C21.0285 33.2209 21.2532 31.7924 21.2532 31.7924C21.3161 30.3289 21.9338 28.9444 22.9809 27.92C23.0722 27.8253 23.1816 27.7499 23.3027 27.6985C23.4238 27.647 23.554 27.6205 23.6856 27.6205C23.8172 27.6205 23.9474 27.647 24.0685 27.6985C24.1896 27.7499 24.299 27.8253 24.3904 27.92C25.4339 28.9468 26.0509 30.3299 26.118 31.7924C26.118 31.7924 26.3732 33.2209 23.7275 33.2209H23.6856ZM36.2075 23.9733C36.2459 24.4988 36.1723 25.0264 35.9915 25.5214C35.8107 26.0163 35.5269 26.4671 35.1589 26.8442C34.7908 27.2212 34.3469 27.5158 33.8566 27.7085C33.3662 27.9012 32.8404 27.9875 32.3142 27.9619C26.1389 27.9619 25.9789 21.4228 25.9789 21.4228C25.8818 18.2228 29.4075 18.3504 29.4075 18.3504C36.5332 18.3504 36.2647 23.9733 36.2647 23.9733H36.2075Z" fill="black"/>
</svg>
