<svg width="48" height="48" viewBox="0 0 48 48" fill="none" xmlns="http://www.w3.org/2000/svg">
<path fill-rule="evenodd" clip-rule="evenodd" d="M10.2944 14.5366C10.2944 17.0392 12.4038 20.5588 14.9991 20.5588C17.5945 20.5588 19.7039 17.0392 19.7039 14.5366C19.7039 13.3334 19.2082 12.1795 18.3259 11.3287C17.4436 10.478 16.2469 10 14.9991 10C13.7514 10 12.5547 10.478 11.6724 11.3287C10.7901 12.1795 10.2944 13.3334 10.2944 14.5366ZM14.9991 22.1228C10.1324 22.1228 6.07696 25.4078 5.02226 29.7875V29.7882C4.86027 30.7267 5.59029 31.6653 6.64429 31.6653H14.8364C16.4177 29.5849 18.6723 28.0713 21.2445 27.3633C19.8659 26.1901 18.8112 24.3914 18.4058 22.6705C17.3511 22.3574 16.2158 22.1228 14.9991 22.1228ZM27.734 27.285C29.194 26.1118 30.1673 24.3131 30.5727 22.5922C31.6274 22.2013 32.7627 22.0444 33.9794 22.0444C38.8461 22.0444 42.9015 25.3294 43.9562 29.7091C44.1995 30.6477 43.3882 31.5862 42.4148 31.5862H34.1414C32.5603 29.5061 30.3059 27.9927 27.734 27.285ZM29.2746 14.5366C29.2746 17.0392 31.384 20.5588 33.9794 20.5588C36.5747 20.5588 38.6841 17.0392 38.6841 14.5366C38.6841 13.3334 38.1884 12.1795 37.3061 11.3287C36.4238 10.478 35.2271 10 33.9794 10C32.7316 10 31.5349 10.478 30.6526 11.3287C29.7703 12.1795 29.2746 13.3334 29.2746 14.5366ZM24.4893 28.4583C29.356 28.4583 33.4114 31.7432 34.4661 36.1229C34.5234 36.3473 34.5267 36.5813 34.4757 36.8071C34.4248 37.0329 34.321 37.2444 34.1722 37.4256C34.0235 37.6067 33.8338 37.7526 33.6175 37.8522C33.4013 37.9518 33.1643 38.0024 32.9247 38.0001H16.1345C15.8949 38.0024 15.6579 37.9518 15.4417 37.8522C15.2254 37.7526 15.0357 37.6067 14.887 37.4256C14.7382 37.2444 14.6344 37.0329 14.5835 36.8071C14.5325 36.5813 14.5358 36.3473 14.5931 36.1229C15.5671 31.7432 19.6225 28.4583 24.4893 28.4583ZM19.7845 20.9497C19.7845 23.4523 21.8939 26.9719 24.4893 26.9719C27.0846 26.9719 29.194 23.4523 29.194 20.9497C29.194 19.7465 28.6983 18.5926 27.816 17.7418C26.9337 16.891 25.7371 16.4131 24.4893 16.4131C23.2415 16.4131 22.0448 16.891 21.1625 17.7418C20.2802 18.5926 19.7845 19.7465 19.7845 20.9497Z" fill="black"/>
</svg>
