<svg width="48" height="48" viewBox="0 0 48 48" fill="none" xmlns="http://www.w3.org/2000/svg">
<path fill-rule="evenodd" clip-rule="evenodd" d="M37.694 40.4704H31.2002V37.1768H37.694V40.4704ZM27.9529 40.4704H21.4591V37.1768H27.9529V40.4704ZM18.2118 40.4704H11.718V37.1768H18.2118V40.4704ZM11.7242 9.17653L11.718 9.18288V10.8234H18.2118V9.18288L11.7242 9.17653ZM21.4653 7.529L21.4591 7.53606V10.8234H27.9529V7.53606L21.4653 7.529ZM37.694 10.8234V9.18288L31.2064 9.17653L31.2002 9.18288V10.8234H37.694ZM24.7057 14.1177C19.3348 14.1177 14.9645 18.5499 14.9645 24.0001C14.9645 29.4502 19.3334 33.8824 24.7057 33.8824C30.0779 33.8824 34.4468 29.4502 34.4468 24.0001C34.4468 18.5499 30.0765 14.1177 24.7057 14.1177ZM31.2064 5.88217H37.6878C38.5503 5.88348 39.3771 6.23165 39.9869 6.85037C40.5968 7.46909 40.94 8.30788 40.9413 9.18288V40.4704C40.9404 41.3438 40.5979 42.1812 39.9892 42.7988C39.3804 43.4164 38.555 43.7638 37.694 43.7648H31.2002C30.6284 43.7612 30.0678 43.603 29.5762 43.3066C29.0851 43.6035 28.5246 43.7616 27.9529 43.7648H21.4591C20.8872 43.7612 20.3267 43.603 19.8351 43.3066C19.344 43.6035 18.7835 43.7616 18.2118 43.7648H11.718C10.8571 43.7636 10.0318 43.4162 9.42303 42.7986C8.81428 42.1811 8.47181 41.3438 8.4707 40.4704V9.1857C8.47217 8.31076 8.81543 7.47208 9.42527 6.8534C10.0351 6.23472 10.8618 5.88649 11.7242 5.885H18.2069C18.3534 5.88978 18.4994 5.90463 18.6439 5.92947C18.9233 5.41816 19.332 4.99165 19.8279 4.69388C20.3239 4.3961 20.8891 4.23783 21.4653 4.23535H27.9467C28.5229 4.23737 29.0881 4.39513 29.5843 4.6924C30.0804 4.98967 30.4895 5.4157 30.7695 5.92665C30.914 5.90181 31.06 5.88695 31.2064 5.88217ZM24.7069 25.6476H26.3302C26.755 25.6387 27.1594 25.4612 27.4567 25.1533C27.754 24.8454 27.9205 24.4315 27.9205 24.0004C27.9205 23.5694 27.754 23.1555 27.4567 22.8476C27.1594 22.5396 26.755 22.3622 26.3302 22.3533V20.7064C26.3214 20.2755 26.1465 19.8652 25.8429 19.5636C25.5394 19.2619 25.1314 19.093 24.7065 19.093C24.2817 19.093 23.8737 19.2619 23.5702 19.5636C23.2666 19.8652 23.0917 20.2755 23.0829 20.7064V23.9041C23.0853 23.9203 23.0885 23.9363 23.0927 23.9521C23.092 23.9594 23.09 23.9664 23.0879 23.9735C23.0854 23.9821 23.0829 23.9908 23.0829 24.0001C23.0826 24.2165 23.1245 24.4309 23.206 24.6309C23.2875 24.8309 23.4071 25.0126 23.558 25.1657C23.7088 25.3187 23.8879 25.4401 24.0851 25.5228C24.2823 25.6055 24.4936 25.6479 24.7069 25.6476ZM21.0985 18.5222C22.1666 17.7983 23.4223 17.4119 24.7069 17.4121V17.4114C26.4287 17.4132 28.0795 18.108 29.2969 19.3433C30.5144 20.5785 31.1991 22.2533 31.2007 24.0001C31.2009 25.3033 30.8201 26.5772 30.1065 27.6608C29.3929 28.7444 28.3786 29.5891 27.1919 30.0878C26.0051 30.5866 24.6992 30.7171 23.4394 30.4629C22.1795 30.2087 21.0222 29.5812 20.1139 28.6597C19.2056 27.7382 18.587 26.5642 18.3364 25.286C18.0859 24.0079 18.2145 22.683 18.7062 21.4791C19.1978 20.2751 20.0303 19.2461 21.0985 18.5222Z" fill="black"/>
</svg>
