<svg width="15" height="15" viewBox="0 0 15 15" fill="none" xmlns="http://www.w3.org/2000/svg">
<path d="M7.45528 0.100174C3.53876 0.100174 0.330278 3.08651 0.0253906 6.88167L4.02146 8.51551C4.36005 8.28651 4.7691 8.15234 5.20916 8.15234C5.24859 8.15234 5.28786 8.15367 5.3268 8.15584L7.10388 5.60867C7.10388 5.59651 7.10371 5.58467 7.10371 5.57267C7.10371 4.03951 8.36489 2.79217 9.91545 2.79217C11.4658 2.79217 12.727 4.03951 12.727 5.57267C12.727 7.10584 11.4658 8.35334 9.91545 8.35334C9.89404 8.35334 9.87281 8.35284 9.85157 8.35234L7.31708 10.1407C7.31843 10.1732 7.31961 10.2063 7.31961 10.2393C7.31961 11.3903 6.37292 12.3263 5.20916 12.3263C4.18764 12.3263 3.33348 11.6053 3.14 10.6505L0.282245 9.48217C1.16708 12.5768 4.04219 14.8457 7.45528 14.8457C11.573 14.8457 14.911 11.5447 14.911 7.47317C14.911 3.40101 11.5729 0.100174 7.45528 0.100174Z" fill="white"/>
<path d="M4.69709 11.2872L3.78125 10.913C3.94355 11.2472 4.22434 11.527 4.59715 11.6807C5.4031 12.0127 6.33226 11.6345 6.66816 10.8368C6.8308 10.4512 6.83181 10.0253 6.67052 9.63867C6.50956 9.25184 6.20586 8.95018 5.81535 8.78918C5.42788 8.62968 5.01277 8.63551 4.64805 8.77168L5.59406 9.15851C6.1885 9.40351 6.46962 10.0785 6.22187 10.6663C5.97462 11.2543 5.29153 11.5323 4.69709 11.2872Z" fill="white"/>
<path d="M11.788 5.57268C11.788 4.55118 10.9476 3.72002 9.9145 3.72002C8.88152 3.72002 8.04102 4.55118 8.04102 5.57268C8.04102 6.59435 8.88152 7.42518 9.9145 7.42518C10.9476 7.42502 11.788 6.59418 11.788 5.57268ZM8.51023 5.56952C8.51023 4.80085 9.1404 4.17785 9.9177 4.17785C10.695 4.17785 11.3252 4.80085 11.3252 5.56952C11.3252 6.33818 10.695 6.96118 9.9177 6.96118C9.1404 6.96118 8.51023 6.33802 8.51023 5.56952Z" fill="white"/>
</svg>
